<?xml version="1.0" encoding="UTF-8"?>
<svg id="Layer_2" data-name="Layer 2" xmlns="http://www.w3.org/2000/svg" viewBox="0 0 648.77 63.51">
  <defs>
    <style>
      .cls-1 {
        fill: #fff;
      }
    </style>
  </defs>
  <g id="Layer_1-2" data-name="Layer 1">
    <path class="cls-1" d="M6.62,63.51h18.03l6.62-8.29V8.38L24.65,0H6.62L0,8.38v46.84l6.62,8.29h0ZM18.03,49.41h-4.86V14.09h4.86v35.32h0ZM48.59,63.51v-19.99h11.41l6.9-8.38V8.21L60.28,0h-24.93v63.51h13.24ZM53.52,29.42h-4.93v-15.33h4.93v15.33h0ZM83.73,63.51v-19.99h11.41l6.9-8.38V8.21l-6.62-8.21h-24.93v63.51h13.24ZM88.66,29.42h-4.93v-15.33h4.93v15.33h0ZM112.25,63.51h18.03l6.62-8.29V8.38l-6.62-8.38h-18.03l-6.62,8.38v46.84l6.62,8.29h0ZM123.66,49.41h-4.86V14.09h4.86v35.32h0ZM154.22,63.51v-25.54h5.21v25.54h13.17v-25.81l-5.35-6.61,5.35-6.98v-15.72l-6.67-8.39h-24.94v63.51h13.24ZM159.43,24.4h-5.21v-11.1h5.21v11.1h0ZM179.22,15.5v48h13.17V15.5h7.89V0h-28.87v15.5h7.82ZM208.44,63.51h18.17l6.62-8.47V0h-13.17v49.41h-5.07V0h-13.17v55.04l6.62,8.47h0ZM249.21,63.51v-26.95l-.63-7.13-.35-4.14-.35-3.17.77,3.61.77,3.52,1.55,6.87,8.45,27.39h14.86V0h-11.69v27.04l.63,6.78.28,3.17.28,3.17-.99-4.05-.42-2.03-1.48-6.61L252.45,0h-15.14v63.51h11.9ZM291.61,63.51V0h-13.24v63.51h13.24ZM300.97,15.5v48h13.17V15.5h7.89V0h-28.87v15.5h7.82ZM331.18,41.72v21.79h13.1v-21.79L355.48,0h-14.23l-2.54,16.47-.07.53-.42,4.76-.28,2.64-.21,2.73v-2.11l-.28-3.26-.57-5.28-2.56-16.47h-14.34l11.2,41.72h0ZM383.01,63.51h18.03l6.62-8.29V8.38l-6.62-8.38h-18.03l-6.62,8.38v46.84l6.62,8.29h0ZM394.42,49.41h-4.86V14.09h4.86v35.32h0ZM418.36,63.51h18.17l6.62-8.47V0h-13.17v49.41h-5.07V0h-13.17v55.04l6.62,8.47h0ZM452.51,15.5v48h13.17V15.5h7.89V0h-28.87v15.5h7.82ZM499.77,63.51l6.9-8.47V8.29l-6.55-8.29h-25v63.51h24.65ZM493.43,49.41h-5V13.92h5v35.5h0ZM517.37,63.51h18.03l6.62-8.29V8.38l-6.62-8.38h-18.03l-6.62,8.38v46.84l6.62,8.29h0ZM528.78,49.41h-4.86V14.09h4.86v35.32h0ZM552.72,63.51h18.03l6.62-8.29V8.38l-6.62-8.38h-18.03l-6.62,8.38v46.84l6.62,8.29h0ZM564.13,49.41h-4.86V14.09h4.86v35.32h0ZM594.69,63.51v-25.54h5.21v25.54h13.17v-25.81l-5.35-6.61,5.35-6.98v-15.72l-6.67-8.39h-24.94v63.51h13.24ZM599.9,24.4h-5.21v-11.1h5.21v11.1h0ZM624.07,63.51h18.07l6.63-8.38v-22.85l-18.24-12.71v-6h4.93v7.58l13.31-2.55v-10.57l-6.55-8.02h-18.45l-6.55,8.47v20.38l18.24,12.71v8.03h-4.93v-10.13l-13.31,2.55v12.86l6.85,8.63h0Z"/>
  </g>
</svg>