<?xml version="1.0" encoding="UTF-8"?>
<svg id="Layer_2" data-name="Layer 2" xmlns="http://www.w3.org/2000/svg" xmlns:xlink="http://www.w3.org/1999/xlink" viewBox="0 0 769.16 113.78">
  <defs>
    <style>
      .cls-1, .cls-2, .cls-3, .cls-4 {
        fill: none;
      }

      .cls-5 {
        fill: #475921;
      }

      .cls-2 {
        stroke-width: 1.34px;
      }

      .cls-2, .cls-4 {
        stroke: #cc5600;
      }

      .cls-3 {
        stroke: #fff;
        stroke-width: 8px;
      }

      .cls-6 {
        fill: #cc5600;
      }

      .cls-7 {
        fill: #fff;
      }

      .cls-4 {
        stroke-width: 4px;
      }

      .cls-8 {
        clip-path: url(#clippath);
      }
    </style>
    <clipPath id="clippath">
      <path class="cls-1" d="M55.89,103.79c26.45,0,47.89-21.44,47.89-47.89S82.34,8,55.89,8,8,29.44,8,55.89s21.44,47.89,47.89,47.89h0Z"/>
    </clipPath>
  </defs>
  <g id="Layer_1-2" data-name="Layer 1">
    <g>
      <path class="cls-5" d="M55.89,104.45c26.78,0,48.56-21.78,48.56-48.56S82.67,7.33,55.89,7.33,7.33,29.12,7.33,55.89s21.78,48.56,48.56,48.56h0Z"/>
      <g class="cls-8">
        <path class="cls-7" d="M35.66,14.64c0,.47.24.63.61.62-.12.43-.62.56-1.06.74-.09.48-.42.77-.97.88-.1.71.31,1.44.88,1.58-.09.36-.08.5.1.83.39.19.77.04.97-.27-.05-.71-.4-1.06-1.11-.94-.02-.47.1-.53-.04-.99.37-.65,1.54-.66,1.83-1.37.34.12.39.61.57.93.34.06.54-.04.74-.24.02-.55-.32-.64-.36-1.11.45-.3,1.15.17,1.67-.2.05-.24.23-.37.15-.71.43.06.9.93,1.66.42.21-.14.34-.48.28-.88.57-.14.51.51.91.58.43,0,.72-.12.88-.33,0-.76-1.01-.96-.58-1.7.26.14.43.39.81.36.16.76.6,1.16,1.16,1.4.24-.72-.88-.71-.63-1.46.31.04.19.62.67.46.1-.51-.53-.79-.46-1.33.43-.14.4.3.53.55.32.32,1.05.47,1.63.19.09-.3.26-.53.2-.94.21.05.23.35.43.41.94-.2,1.62,1.36,2.34.34-.06-.47-.46-.52-.5-1.01.05-.16.27-.2.51-.21-.26.98.58,2.01,1.62,1.34.19.14.16.55.32.73-.08.14-.35.14-.34.35.14.32.12.84.42.95.05,0,.1-.01.15-.02.43-.12.21-.74-.03-.92.1-.18.08-.44.24-.57-.02-.38-.38-.33-.46-.64.21-.15.53-.23.55-.53-.09-.58-.82-.35-1.08-.72.53.04.95.54,1.56.2.05-.22.04-.32-.06-.53.25.03.41.18.71.15.1.18.04.16.13.45.75.18,1.09.87,1.82,1.09.29.6.82.91,1.31,1.3,2.15,1.74,4.07,3.83,5.8,6.14.02.5.13.88.43,1.02,1.31-1.44.7,2.07,2.43,1.09.17-.34-.08-.74,0-1.23-.22-.22-.56-.53-.95-.27-.23-.12-.26-.48-.59-.47.3-.23.35-1.05-.13-1.14-.37.17-.69.37-.75.78-.87-1.18-1.78-2.06-2.68-3.21-1.16-1.48-3.02-2.1-4.12-3.66.08-.37.47-.5.25-1.1-.29-.18-.83-.43-1.25-.16-.47-.1-.72-.48-.88-.97-.83-.61-2.12-.95-3.3-.61-1.66.48-3.7.08-5.54.5-.72.17-1.3.41-2.03.39-.26.26-.58.46-.84.71-.88.16-1.55.52-2.44.83-.61.21-1.29.48-1.68.74-.32.22-.49.56-.84.71-.53.23-1.18.06-1.54.64h0Z"/>
        <path class="cls-7" d="M58.78,12.82c.04.31.1,1.01.71.84.07-.32-.02-.93-.3-1.27-.55-.66-2.85-.86-2.92-.04-.03.39,1.03,1.48,1.4,1.45.52-.05.49-.85,1.11-.98h0Z"/>
        <path class="cls-7" d="M47.44,13.01c.36.67.81,1.24,1.28,1.77-.8-.03-.83,1.03-.44,1.51.13-.01.25-.03.38-.04.11-.26.1-.4,0-.69.11-.16.53-.09.58-.3-.5-.81-.76-2.39-1.8-2.24h0Z"/>
        <path class="cls-7" d="M46.33,13.07c-.47.15-.54.87-.06,1,.53-.11.62-.47.59-.9-.2-.01-.28-.14-.53-.1h0Z"/>
        <path class="cls-7" d="M49.46,13.79c.43.02.63-.17.71-.47-.14-1.05-1.46-.16-.71.47h0Z"/>
        <path class="cls-7" d="M52.92,14.74c.35-.33.95-1.07.36-1.57-.76.22-.86,1.09-.36,1.57h0Z"/>
        <path class="cls-7" d="M59.62,12.79c.04.33.05.69.25.81.04.33-.34.32-.31.65.03,1.21,1.58.49,2.25.88-.05.27-.31.46-.06.78.28.21.82.07.97-.19.52.19.81.89,1.36,1.14.55.25.95.31.99,1.26,1.23.47,2.12,1.38,3.03,2.25.64-.11,1.07-.37,1.48-.48-.2-.44-.42-.86-1.02-.8-.17.16-.29.36-.31.65-.36-.21-.47-.74-.94-.81.19-.17.65-.13.81-.33.14-.36-.17-.57-.19-.98-1.63-1.15-3.23-2.35-4.87-3.49-.22-.04-.18.13-.37.12-.88-.55-1.75-2.37-3.09-1.48h0Z"/>
        <path class="cls-7" d="M42.68,14.88c0,.5.5.35.42.95.24-.08.51-.15.57-.37-.17-.39-.49-.6-.99-.57h0Z"/>
        <path class="cls-7" d="M47.18,14.65c-.25.03-.39-.08-.69,0-.19.23-.24.77.04.99.13-.01.25-.03.38-.04.05-.1.08-.21.03-.39.18-.02.24.1.46.02.56-.36-.16-1.24-.22-.59h0Z"/>
        <path class="cls-7" d="M54.21,13.74c-.13.5.64,1.29,1.02.88-.15-.53-.55-.76-1.02-.88h0Z"/>
        <path class="cls-7" d="M44.55,15.12c.18.85.62,1.07.89,1.66-.12.48.15,1.04.59,1.08-.1-.91.16-1.59-.74-1.68-.09-.43-.06-.78-.06-1.14-.2-.13-.55-.16-.68.08h0Z"/>
        <path class="cls-7" d="M50.3,14.45c.2.45.38.93.93.82.23-.67-.57-1.08-.93-.82h0Z"/>
        <path class="cls-7" d="M39.35,15.97c-.08.41.44.35.23.66,0,.15-.26-.06-.45.05-.06.48.41.89,1.08.72-.14-.69-.08-1.73-.86-1.43h0Z"/>
        <path class="cls-7" d="M41.34,15.88c.27.44-.12,1.05.89.99.16-.38.16-1.3-.89-.99h0Z"/>
        <path class="cls-7" d="M36.14,16.76c.14.44.55.96.99.61-.02-.1,0-.16.06-.19-.16-.41-.73-.89-1.04-.42h0Z"/>
        <path class="cls-7" d="M52.97,14.97c.1.36.16.76.47.88.26.04.22-.13.43-.13.12-.13.03-.4,0-.62-.23-.12-.48-.24-.92-.13h0Z"/>
        <path class="cls-7" d="M45.87,15.96c.21.29.23.83.72.73-.01-.13.14-.12.24-.17.08-.72-.59-.96-.96-.57h0Z"/>
        <path class="cls-7" d="M33.04,17.79c-.01.4.15.57.25.81-.72.06-1.56.47-1.45,1.4-.67.64-1.14,1.43-2.17,1.79.03.48-.43.58-.24,1.18.23.14.66.2.93.04.32.73,1.63.73,1.83-.14-.29-.39-.5-.88-.9-1.12-.14-.41.36-.31.31-.65.33-.04.3.37.72.22.16-.22.09-.62.03-1,.28-.21.47-.5.68-.77.35.31.45.93,1.17.78.05-.08.12-.13.21-.18.06-.54-.39-.43-.54-.7.27-.25.34-.65.58-.91-.1-.9-.77-1.81-1.39-.76h0Z"/>
        <path class="cls-7" d="M49.51,15.53c.24.47-.06.43-.31.65.22.53-.04.58-.03,1.08.14,0,.08.24.25.2.29-.14.4-.42.36-.81.2-.02.44-.02.52-.14-.05-.59-.27-1.29-.81-.98h0Z"/>
        <path class="cls-7" d="M37.72,18.39c.17.05.25.2.48.17.22-.08.42-.17.41-.43.67.03.66.91,1.47.75.16-.12.21-.97-.18-.9-.24-.05-.11.18-.12.32-.29-.3-.69-.46-1.07-.64-.25-1.27-1.25-.16-.99.73h0Z"/>
        <path class="cls-7" d="M54.8,15.14c-.08.25-.22.45-.17.79.2.12.65.29.93.05.03-.57-.55-.52-.76-.84h0Z"/>
        <path class="cls-7" d="M42.97,16.69c.24.4-.38,1.36.77,1.31.34-.34-.08-.68.18-1.09-.06-.28-.61-.45-.95-.21h0Z"/>
        <path class="cls-7" d="M51.39,15.77c.19.4-.21.78.17,1.06.14-.03.21,0,.25.05.79-.14.68-1.35-.41-1.11h0Z"/>
        <path class="cls-7" d="M56.17,16.04c.14.46.56.56.86.82-.11.81.3,1.55,1.1,1.48.21-.67-.57-.78-.96-.96.26-.55-.33-2.15-1-1.34h0Z"/>
        <path class="cls-7" d="M42.01,17.49c-.31.16.02.48-.43.43,0,.55.56.69.95.5.06-.6-.44-.51-.52-.94h0Z"/>
        <path class="cls-7" d="M36.37,18.7c.3.37.51.87.97,1.04,1-.55-.62-2.22-.97-1.04h0Z"/>
        <path class="cls-7" d="M53.7,16.42c-.18.2.21.53.14.91,1.08.26,1.01-1.16-.14-.91h0Z"/>
        <path class="cls-7" d="M38.45,19.99c.15.11.37.15.67.08.11-.29.28-.53.21-.95-.56-.59-.91.25-.89.87h0Z"/>
        <path class="cls-7" d="M58.41,16.8c.12.44.23.89.8.78.03-.09.07-.18.17-.22-.05-.49-.53-.91-.97-.57h0Z"/>
        <path class="cls-7" d="M34.81,19.73c.3.96.79,1.86.85,2.66.3.2.85.22,1.06-.13.03-.82-.69-.69-.98-1.11-.03-.34.25-.45.38-.66,0-.82-.86-1.33-1.32-.76h0Z"/>
        <path class="cls-7" d="M46.34,18.66c.03.64.66.9.96.45.02-.72-.65-.92-.96-.45h0Z"/>
        <path class="cls-7" d="M63.21,18.43c0-.53.32-.98.23-1.26-.49-1.51-1.83,1.51-.23,1.26h0Z"/>
        <path class="cls-7" d="M44.29,19.08c-.35-.03-.23.19-.48.22.16.34.4.62.87.69.23-.3,0-.86-.39-.91h0Z"/>
        <path class="cls-7" d="M51.37,18.3c-.16.19.06.29.06.53-.13.15-.48.13-.58.3-.12.71-.14,1.49-.53,1.98.21.61.39,1.25,1.2,1.09.03-.07.05-.14.13-.17.1-.72-.63-.71-.73-.99-.09-.26.51-.6.04-.93.02-.65.8-.69,1.09-1.13-.12-.37-.3-.67-.7-.69h0Z"/>
        <path class="cls-7" d="M33.45,21.2c-.28.06-.23-.28-.56-.16-.06.18-.23.27-.16.56-.47.01-.69.23-.61.69.07.03.14.05.17.13.4-.14,1.01-.12,1.18-.45.62-.22,1.39.31,1.66-.27-.23-.52-1.27-1.53-1.67-.49h0Z"/>
        <path class="cls-7" d="M42.22,20.09c.08.35.49.42.71.65.74-.34-.4-1.42-.71-.65h0Z"/>
        <path class="cls-7" d="M40.97,21.34c.12-.41-.19-.94-.81-.86-.32.39,0,1.11.81.86h0Z"/>
        <path class="cls-7" d="M59.2,18.3c-.05.37-.41.5-.26,1.03.32.08.55-.28.96-.34-.01-.5-.24-.74-.7-.69h0Z"/>
        <path class="cls-7" d="M52.78,19.13c.1.42.5.46.7.76-.29.25-.08.9-.49,1.06-.32-.09-.54-.3-.75-.52.04-.2.53-.04.59-.22,0-.54-.31-.71-.84-.59.29.36-.13.46-.14.78.54,1.33,2.03.56,2.24-.5-.24-.46-.79-.96-1.32-.76h0Z"/>
        <path class="cls-7" d="M46.95,19.75c-.18.45.15,1.02.76.88.07-.07.03-.22.15-.26-.21-.31-.33-.72-.91-.62h0Z"/>
        <path class="cls-7" d="M48.47,19.74c0,.73.81,1.15.97.42-.12-.4-.6-.74-.97-.42h0Z"/>
        <path class="cls-7" d="M43.32,20.33c.19.64-.24,1.18.19,1.59.09-.02.14,0,.16.06,1.17-.05.47-1.85-.35-1.65h0Z"/>
        <path class="cls-7" d="M45.2,20.67c.08.54.32.83.83.75.03-.09.05-.18.14-.21-.04-.64-.68-.89-.97-.54h0Z"/>
        <path class="cls-7" d="M54.61,19.68c.35.33.01.67-.28.88.02.18.04.35.06.53-.1.21-.35-.41-.55-.09.3.44.21.77.3,1.19-.14.12-.39.15-.42.36.2.32.63.64.98.5-.09-.43.23-.69-.05-1.07.12-.17.47.21.68-.08,0-.41-.28-.46-.39-.72-.13-.42.21-.47.21-.79.23.09.34.32.72.22-.12-.68-.58-.95-1.26-.93h0Z"/>
        <path class="cls-7" d="M39.56,21.49c-.23.02-.47.04-.7.06-.04.5.51.55.71.88.5-.12.13-.74-.01-.94h0Z"/>
        <path class="cls-7" d="M41.18,21.67c.05.51.25.8.77.69,0-.08.09-.07.14-.1.31-.67-.55-1.09-.91-.6h0Z"/>
        <path class="cls-7" d="M32.61,22.52c-.07.49-.35.83-.29,1.42.23.18.71.04.73-.32.18.06.18.36.36.42-.82.07-.5,1.24-.11,1.63.42-.16.64-.07,1.14-.13.03-.11.1-.2.2-.25.03-.8-.64-.7-.83-1.21.29-.07.52.38.71.15.54-.5,0-1.46-.5-1.63-.62.39-.77-.04-1.39-.07h0Z"/>
        <path class="cls-7" d="M60.07,19.8c.18.5.5.81,1.03.88.15-.58-.63-1.77-1.03-.88h0Z"/>
        <path class="cls-7" d="M65.45,19.17c.23.46-.04.5-.3.73.04.42.07.84.54.7.05-.1.08-.21.03-.39.78-.13.34-1.35-.28-1.04h0Z"/>
        <path class="cls-7" d="M49.12,21.33c.28.93.83,1.51,1.6,1.81.43-.67-.58-.76-.83-1.13.14-.33.11-.71-.18-.9-.29,0-.48.08-.59.22h0Z"/>
        <path class="cls-7" d="M47.8,22.48c2.21.19-.44-2.18,0,0h0Z"/>
        <path class="cls-7" d="M37.64,22.89c-.06.75.58.95.96.63-.05-.59-.54-1.02-.96-.63h0Z"/>
        <path class="cls-7" d="M27.81,24.17c.06.45.41.53.56.85-.05.27-.31.46-.06.78-.58.57-.8,1.43-1.12,2.21.41.03.96-.07,1.36-.16.38-.7-.15-1.39.09-1.85.3.2.94.39,1.06-.13.23-.08.17.19.4.11.04.23-.13.45.07.61-.13.24-.49.3-.63.54,0,.67.41.81.74,1.06.32-.05.35-.32.56-.45.29.27.6.51.93.73,0,.54-.5,1.01-.28,1.49.58-.3.42-1.18,1.31-1.23.03-.75,1.14-.95.87-1.72-.74.1-.81.74-1.34,1-.29-.39.35-.57.18-1.1-.26-.18-.41-.04-.6.15-.06-.64.05-1.15.44-1.43-.37-.64.35-.64.15-1.32-.46-.14-1.76-.44-1.88.3-.02.37.48.09.51.4-.37.18-.82-.29-1.27-.31.08-.25-.01-.25-.06-.53-.59-.06-1.47-.4-1.99,0h0Z"/>
        <path class="cls-7" d="M55.6,21.56c.25.7.88.92,1.25,1.46.28-.03.42-.17.49-.37-.22-.57-.76-.72-1.26-.93.15-.22.42-.36.37-.74.84-.04.7,1.15,1.25,1.46.26,1.14-1.24.9-1.07,1.97.48.36.97-.17,1.43-.25.03-.44-.39-.55-.1-.83.08.67.81,1.26,1.3.61-.35-1.01.08-1.56.18-2.4-1-.21-.66,1.21-1.28,1.53-.35-.6.54-1.17.26-1.72-.46-.04-.34.37-.55.53-.18-.67-.51-1.29-1.45-1.21-.34.24-.54.58-.82.86h0Z"/>
        <path class="cls-7" d="M39.73,23.62c.1-.02.15,0,.18.06.3-.16.46-.43.61-.7-.25-.69-1.29.17-.79.64h0Z"/>
        <path class="cls-7" d="M46.07,22.08c-.1.25-.17.52-.13.88.37.14.69-.09.92-.27-.06-.46-.28-.72-.79-.61h0Z"/>
        <path class="cls-7" d="M43.28,22.57c-.26.04-.62.02-.75.16-.04.26-.07.6.11.91.44,0,.49-.3.8-.4-.05-.23-.01-.56-.17-.67h0Z"/>
        <path class="cls-7" d="M43.97,22.56c-.02.28.33,1.05.98.87-.03-.67-.44-.86-.98-.87h0Z"/>
        <path class="cls-7" d="M52.76,21.59c-.04.27-.17.44-.15.76.41-.03.76.36.99-.04-.08-.59-.37-.81-.84-.72h0Z"/>
        <path class="cls-7" d="M66.6,20.49c-.04.22.13.18.12.37-.8.09-.56,1.16,0,1.3.27-.11.38-.34.38-.66.17.08.18.35.49.25.12-.61-.4-1.83-.99-1.26h0Z"/>
        <path class="cls-7" d="M38.47,23.83c-.33.32-.24,1.91.81,1.37-.19-.54-.34-1.13-.81-1.37h0Z"/>
        <path class="cls-7" d="M68.74,21.08c.42.52,1.14.04,1.02-.43-.14-.57-1.12-.32-1.02.43h0Z"/>
        <path class="cls-7" d="M51.64,22.53c.02.23.04.46.07.69.41.31.98.07.93-.73-.33,0-.62-.2-.99.04h0Z"/>
        <path class="cls-7" d="M40.84,24c.02.32.05.64.34.65.49-.07.59-.42.59-.83-.19-.45-.73.02-.93.18h0Z"/>
        <path class="cls-7" d="M47.23,23.53c.15.41.41.67.95.48.09-.95-.76-1.13-.95-.48h0Z"/>
        <path class="cls-7" d="M55.02,22.55c.17.54.4,1,1.1.87.03-.07.05-.14.13-.17,0-.7-.8-1.11-1.23-.7h0Z"/>
        <path class="cls-7" d="M48.07,24.07c.07.03.14.05.17.13.35-.04.51-.24.47-.59.36-.06.84-.02.97-.27-.41-.58-1.56.04-1.6.73h0Z"/>
        <path class="cls-7" d="M68.53,21.2c-.43.13-.7.66-.25.93.97.12.82-.87.25-.93h0Z"/>
        <path class="cls-7" d="M45.93,23.95c-.18.46.12,1.01.84.84.21-.4-.11-1.09-.84-.84h0Z"/>
        <path class="cls-7" d="M44.55,24.1c-.12.41.15.95.68.9.06-.09.15-.15.26-.21-.02-.59-.39-.75-.94-.69h0Z"/>
        <path class="cls-7" d="M42.51,24.52c0,.43.18.66.45.75.32,0,.38-.19.51-.33-.05-.55-.63-.81-.96-.42h0Z"/>
        <path class="cls-7" d="M35.85,25.31c.14.43.35.79.91.73.27-.49-.55-1.26-.91-.73h0Z"/>
        <path class="cls-7" d="M59.53,22.4c-.15.77.98.59,1.08,1.33.72,0,.56-.7,1.05-.89,0-.14-.11-.15-.11-.29-.48-.4-.67.33-.88.33-.4.01-.46-.61-1.13-.48h0Z"/>
        <path class="cls-7" d="M52.96,23.28c.1.58.31.98.89.83.11-.17.08-.49.03-.81-.19-.18-.59-.04-.92-.02h0Z"/>
        <path class="cls-7" d="M35.18,25.37c-.33.42.14.92.64.93.42-.31.15-1.21-.64-.93h0Z"/>
        <path class="cls-7" d="M39.28,25.12c.02.68.71,1.12,1.07.66-.12-.55-.65-.88-1.07-.66h0Z"/>
        <path class="cls-7" d="M50.64,23.77c.03.64.34.92.9.87.27-.52-.26-1.05-.9-.87h0Z"/>
        <path class="cls-7" d="M36.65,25.58c.04.56.37.75.79.83.13-.12.24-.27.33-.42-.11-.44-.75-.83-1.12-.4h0Z"/>
        <path class="cls-7" d="M68.14,21.84c-.17.21-.45.33-.63.53.02.73.34,1.08.97,1.04.46-.52.23-1.33-.34-1.57h0Z"/>
        <path class="cls-7" d="M53.92,24.22c.2.51-.02.78.13,1.14.62-.13.59-.77,1.11-.98.04-1.17-.93-.53-1.25-.16h0Z"/>
        <path class="cls-7" d="M46.42,26.41c0,.42.19.58.33.81-.63.44-1.21.1-1.63-.19-.39.13-.39.56-.42.97-.68-.06-1.53.1-1.94.46.08.38.7.48.43,1.02-.13.16-.38-.27-.64-.23-.36.22-.74.42-1.07.66.09,1.48,1.45,1.25,2.13.51.46-.45.65-1.01,1.3-1.31.28-.13.62-.06.9-.18.72-.32,1.09-1.08,2.35-.89.61.09,1.32.53,2.28.42.6-.07,1.05-.35,1.7-.51.11-.19.25-.36.23-.64.17.05.25.2.48.17,1.25-.26,1.72.48,2.61.69.24-.02.46-.05.51-.21.24.38,1.01.66,1.48.21-.52-.76.72-1.35.7-1.85-.02-.51-.71-.81-1.38-.6-.2.26-.05.57.03.92-.61.11-.95-.13-1.34-.3.04-.22.32-.25.32-.5-.15-.31-.4-.47-.82-.44-.4.03-.17.55-.46.67-.66,0-.86-.6-1.19-1.01-.56-.05-.61.3-.78.55-.75.05-.86-.71-1.55-.74-.27-.75-1.31-.8-1.79-.17-1.57-.38-1.81,1.2-2.79,1.71h0Z"/>
        <path class="cls-7" d="M69.69,21.96c-.25.72.5,1.23.92.69-.01-.33-.14-.48-.23-.69-.34.2-.34,0-.69,0h0Z"/>
        <path class="cls-7" d="M52.79,24.92c.38-.63-.49-1.24-.86-.65,0,.57.28.79.86.65h0Z"/>
        <path class="cls-7" d="M59.55,24.47c.28.09.74.01.9-.18-.02-.09,0-.14.06-.16-.1-.52-.5-.99-.94-.81-.01.42-.21.76-.02,1.15h0Z"/>
        <path class="cls-7" d="M45.31,25.47c-.56-.15-.87.44-1.22.68,0,.3.12.43.22.59.73-.31,1.49-.32,2.24-.57.25-.32-.03-.69-.19-.98-.47.07-1.11-.55-1.04.28h0Z"/>
        <path class="cls-7" d="M43.04,25.66c-.16.43.2.92.7.86.07-.09.15-.17.22-.26-.08-.43-.55-.79-.92-.6h0Z"/>
        <path class="cls-7" d="M71.01,24.03c.28.17.6-.09.82-.17.27.13.35.48.54.7-.08.37-.4.55-.51.9.39,1.49,1.61.55,2.38.02-.65-1.3-1.89-1.84-2.52-3.15-.39.42-.83,1.1-.72,1.7h0Z"/>
        <path class="cls-7" d="M42.01,25.87c-.35.19-.64.63-.43.97.9.34,1.17-.84.43-.97h0Z"/>
        <path class="cls-7" d="M34.39,27.76c.81.07,1.09-.67.62-.99-.48.15-.87.59-.62.99h0Z"/>
        <path class="cls-7" d="M57.81,24.68c.11.53.54.64.61,1.23,1.42-.14-.1-2.31-.61-1.23h0Z"/>
        <path class="cls-7" d="M38.56,26.76c.07.53.31.86.89.77.3-.55-.4-1.19-.89-.77h0Z"/>
        <path class="cls-7" d="M35.97,26.96c-.22.08-.42.17-.41.43.13.09.22.25.48.17-.08.1-.05.28-.02.46.33.1.63.25,1.1.18.12-.14.15-.34.08-.62-.39-.22-1.1-.06-1.23-.62h0Z"/>
        <path class="cls-7" d="M61.97,24.18c.23.41.27.44.19.97.07.03.14.05.17.13.35-.05.5-.24.81-.33-.02-.68-.8-1.1-1.17-.78h0Z"/>
        <path class="cls-7" d="M69.56,23.44c-.44.02-.79.11-.96.34.22.83.57,2.6,1.62,2.03-.26-.4-.77-.48-.89-1.05.02-.1.12-.13.12-.25.31-.14.14.35.41.26.56-.36-.32-.85-.31-1.34h0Z"/>
        <path class="cls-7" d="M56.08,25.77c.3.36.86-.05.95-.44-.11-.7-1.21-.33-.95.44h0Z"/>
        <path class="cls-7" d="M60.65,24.65c.06.39-.36.41-.46.67.08.48.16.95.58,1.01.24-.04.31-.21.25-.49.38,0,.43-.26.56-.45-.03-.6-.39-.79-.93-.73h0Z"/>
        <path class="cls-7" d="M39.77,27.22c-.03.5.3.61.55.8.08-.06.17-.12.32-.13.31-.5-.35-1.05-.87-.67h0Z"/>
        <path class="cls-7" d="M42.44,27.18c.28.17.34.69.82.57.13-.17.16-.43.08-.78-.29-.25-.77-.12-.9.21h0Z"/>
        <path class="cls-7" d="M67.47,25.22c.43.63.55,2.19,1.68,1.26-.09-1.07-1.62-.86-1.24-2-.65-1.24-2,.81-.45.74h0Z"/>
        <path class="cls-7" d="M29.34,28.67c-.27.55-.14,1.5.41,1.49.52-.01.61-.89.38-1.35-.25-.06-.41-.24-.78-.14h0Z"/>
        <path class="cls-7" d="M33.71,28.64c.52,2.08,1.84-1,0,0h0Z"/>
        <path class="cls-7" d="M60.59,27.42c.31.12.3.66.83.52-.02-1.2-1.31-1.53-1.75-2.48-1.66.45.14,1.8.92,1.96h0Z"/>
        <path class="cls-7" d="M42.71,27.56c-.49.15-.92.35-.89.92.55.22.97-.34.89-.92h0Z"/>
        <path class="cls-7" d="M27.07,30.7c.7,0,.31-.79.7-1-.39-.91-1.32.5-.7,1h0Z"/>
        <path class="cls-7" d="M63.56,25.23c-.14.28-.41.45-.36.89.54.26,1.01.08,1.26-.38-.02-.53-.47-.51-.9-.51h0Z"/>
        <path class="cls-7" d="M35.24,28.58c-.21.38-.45.74-.38,1.35.7-.13.77-.77.92-1.34-.11-.09-.34-.04-.54-.01h0Z"/>
        <path class="cls-7" d="M37.6,28.38c.14.37.26.77.55.89.27.04.31-.15.43-.25-.03-.79-.62-.68-.99-.64h0Z"/>
        <path class="cls-7" d="M39.73,28.2c-.08,0-.15.02-.23.03.01.1.02.2.04.3-.76-.04-.59.85-.05.85.46,0,.74-.79.24-1.18h0Z"/>
        <path class="cls-7" d="M40.92,28.56c.22.29.52.24.39.71.35.03.4-.15.57-.25.08-.66-.65-.89-.95-.46h0Z"/>
        <path class="cls-7" d="M70.89,24.89c-.17.48.42.66.22,1.2-.12.2-.25-.32-.56-.16-.8.33-.07,1.29.14,1.83.78.07,1.58-.38,2.06-.78-.46-.79-1.13-1.29-1.56-2.12-.1.01-.2.02-.3.04h0Z"/>
        <path class="cls-7" d="M61.36,26.1c.02.49.25.73.43,1.02.49.01,1.19-.38,1.19-.99-.07,0-.07-.09-.09-.14-.59.03-1.01-.07-1.52.1h0Z"/>
        <path class="cls-7" d="M33.02,31.15c.64-.15,1.2-.94.68-1.46-.62.26-.74.87-.68,1.46h0Z"/>
        <path class="cls-7" d="M30.69,30.28c-.02.47.23.6.48.73.41-.07.46-.43.45-.84-.21-.16-.79-.15-.93.11h0Z"/>
        <path class="cls-7" d="M40.97,28.99c-.25.19-.57.34-.69.63-.04.25.21.16.23.34.58-.01.94-.65.46-.96h0Z"/>
        <path class="cls-7" d="M58.64,27.11c0,.18-.09.3-.01.54-.23.03-.45.05-.68.08.06.49-.42.54-.59.84.16.93,1.24.69,1.48,1.51.41.04.98-.12,1.18-.45.15.3.35.54.49.86.76,0,.77-.58,1.46-.63-.02-.18-.04-.35-.06-.53-.31-.12-.49.12-.91.11-.09-.58-1.17-.7-1.48-.21-.48-.12-.76-.49-1.29-.54.22-.64,1.42-.21,1.5-.95.05-.47-.43-.93-1.07-.64h0Z"/>
        <path class="cls-7" d="M30.01,30.43c-.67.04-.53.73-.79,1.09.32.57,1.03,1.04,1.72.87-.05-.46-.36-.59-.63-.77.27-.5-.21-.67-.3-1.19h0Z"/>
        <path class="cls-7" d="M62.98,27.52c-.61-.17-1,.26-1.34.39.05.54.38.74.52,1.17.13-.01.25-.03.38-.04.16-.3.03-.51-.1-.83,0-.06.07-.08.06-.16.41-.11.48.2.86.13.31-.15.4-.47.61-.69.17.07.32.17.49.25.27-.18.6-.31.95-.42-.02-.09,0-.14.06-.16-.06-.27-.24-.39-.44-.49-.27.08-.21.43-.56.45-.38-.14-.69-.69-1.2-.4.05.38-.34.42-.29.8h0Z"/>
        <path class="cls-7" d="M38.39,29.91c.15.43.33.83.94.74.2-.48-.54-1.23-.94-.74h0Z"/>
        <path class="cls-7" d="M35.1,30.14c-.3.24-.55.69-.29,1.03.13-.02.2,0,.23.05.32.03.27-.13.54-.13.21-.4-.14-.78-.47-.95h0Z"/>
        <path class="cls-7" d="M34.12,32.71c.71.82,2.05.82,2.86,1.5.61-.39.97.34,1.46.06.24.04.15.5.58.32.08-.56-.35-1.17-.71-1.45-.27.03-.31.26-.24.57-.56-.08-.65-.74-1.11-.94-.85.87-1.16-.07-1.4-.83-.38.02-.55.2-.55.53-.83-.37-1.51-.93-2.44-1.17-.25,0-.35.13-.34.35-.28-.32-1-.58-1.08-.03-.1.68,2.22,1.73,2.97,1.11h0Z"/>
        <path class="cls-7" d="M69.32,27.23c.35.56-.23.8,0,1.23.57.01.66-.35,1.01-.5.18-.61-.57-1.42-1.01-.73h0Z"/>
        <path class="cls-7" d="M64.84,28.3c-.16-.06-.35-.33-.55-.09.29.42.56.86.78,1.37.42-.03.4-.42.36-.81.18.06.24.28.42.33.26-.16.48-.36.7-.54-.21-.92-.82-1.11-1.61-.65-.07.11-.04.29-.11.4h0Z"/>
        <path class="cls-7" d="M39.05,30.89c.48.3,0,.79-.17,1.17-.14-.55-.7-.92-1.23-.7,0,.61.37.75.66,1,.28.02.4-.1.51-.21.17.54.49.88.9,1.12.02.55-1.02,1.09-.27,1.57.76-.39.46-1.57,1.42-1.63.2-.97-.76-1.62-1.01-.73-.21-.14-.5-.18-.66-.38.65-.12.86-1.69-.14-1.21h0Z"/>
        <path class="cls-7" d="M63.63,28.44c-.09.2-.15.32-.01.54-.18.19-.33.14-.6.15.02.3.2.63.28,1.04.42.03.39-.29.39-.58,1.27.55.91-1.3-.06-1.14h0Z"/>
        <path class="cls-7" d="M66.89,28.74c-.14.35-.31.67-.58.91.36.48.14,1-.52.83-.2-.19.07-.53-.23-.66-.1.01-.2.02-.3.04-.29-.02-.09.34-.26.41-.37.05-.56-.25-.85-.05-.26.4-.03,1.25.03,1.53-.42.3-.45-.41-.69-.61-.42-.06-.38.25-.65.31-.4-.04-.64-.29-.64-.85-.24-.27-1-.22-1.05.2.16.7.76.84.95,1.5-.02.34-.5-.04-.66.23.03,1.03,1.16.68,1.53,1.28.91.16,1.33-.73,1.79-1.13.54-.49,1.58-.98,2.3-1.35,1.07-.55,3.12-1.97.88-2.25-.42-.02-.44-.55-1.04-.34h0Z"/>
        <path class="cls-7" d="M62.31,29.52c-.14.54.06,1.18.82,1.06.3-.36-.1-1.19-.82-1.06h0Z"/>
        <path class="cls-7" d="M51.81,32.37c.24-.43.37-1,.78-1.17,1.11-.44,1.97.77,2.86,1.43.97.73,1.97.96,2.19,2.27.77.07,1,.96,1.48,1.51.29.34.81.56,1.11.94.74.94,1.57,2.52.64,2.84-.51.18-1-.23-1.43-.37-.65-.22-1.37-.12-1.35-.99.1-.13.38-.11.6-.15-.27-.24-.52-.5-.98-.5.1.19.25.66-.07.7-1.91-.65-4.37-1.36-5.46-3.34.16-.37.92-.09,1.05-.2-.12-.5.12-1.01-.3-1.19-.25.12,0,.65-.47.59-.44.04-.52-.65-.43-1.02-.32-.32-.81-.43-.82-1.13.11-.14.29-.23.59-.22h0ZM54.08,33.33c.21.35.91,1.27,1.65.96-.5-.38-.66-1.2-1.65-.96h0ZM54.52,34.51c.09.54,1,1.54.51,2.32.31.36.45.94,1.17.78-.85-.24-.79-1.2-.11-1.6-.14-.83-1.2-.88-1.32-1.46-.11.02-.21.04-.24-.05h0Z"/>
        <path class="cls-7" d="M60.17,31c.09.81.69.98,1.15,1.32.33-.63-.63-1.77-1.15-1.32h0Z"/>
        <path class="cls-7" d="M48.5,32.92c.18.57-.3.63-.17,1.17.63.99.29,2.73.93,3.96-.34.37-.81.23-1.42.32-.15.24-.21.57-.36.81-1.27.35-1.35,1.59-2.2,2.18-.58-.31-.22-1.29-.52-1.78-.25.17-.66.21-.79.48.07.78.77.77.74,1.68-1.45.46-1.41,2.09-2.93,2.5-.54-.55.19-1.08.44-1.43-.07-.79.63-1.5.64-2.38,0-.3-.2-.6-.18-.9.03-.71.6-2.14,1.2-2.14.23.34.08.97,0,1.3.35.25.85.31,1.02.8.09-.69.67-.98,1.31-1.23.09-.29-.24-.8.11-1.01-.26-.16-.72-.07-.75-.52,0-.27.44-.2.57-.37-.09-.24-.18-.47-.51-.4.19.52-.5.74-.79.48-.05-1.89,1.69-2.37,2.07-3.93.74-.13,1.18.13,1.59.43h0ZM47.57,34.8c-.37.07-.31.49-.53.68.09.24.26.37.51.4.16-.22.15-.86.03-1.08h0Z"/>
        <path class="cls-7" d="M25.46,36.73c.38-.1.58.02.78.14.29-.3.58-.6,1.23-.61.48.76,1.48,1.38,2.42,1.02.82.33,1.36,1.25,2.56.85.83.45-.18,1.27-.32,1.8-.81-.02-.79-1.09-1.52-1.2.05.31.1.63-.06.77-.52.11-.8-.09-1.04-.34-.1-.37.18-.43,0-.69-.32.18-.63.37-1.02.5-.55-.14-.78-.69-1.33-.84.14.72-.91.95-1.28.84.07.24,0,.36-.01.54-.88.83-2.42.22-1.4-.83-.23-.79-.96-1.97-.4-2.72.83-.21.94.5,1.39.76h0ZM25.7,38.08c.02.18.04.35.06.53.25-.08.32-.3.32-.57-.24-.03-.15-.04-.38.04h0Z"/>
        <path class="cls-7" d="M74.21,32.87c.11-.38.57-.46,1-.66.58-.26.78-.94,1.11-.98.62-.07.95.75,1.11,1.63.58.02,1.23.23,1.23.7,0,.43-.48.26-.52.75,1.1,0,.96,1.65.33,2.11-.27,0-.17-.48-.24-.74-.96-.02-.89-1.01-1.13-1.78-.45-.22-.87-.91-1.53-.59.07.27.26.72.12.98-.11.24-.55-.03-.6.15.24.22.36.59.7.69.24-.29.4-.65.49-1.06.38-.08.53.14.73.3.03.53-.11.92-.56,1.07.04.27.03.6.23.66-.03-.25-.21-.39.1-.47.86.24,1.08,1.3,2.08,1.37.1-.22-.1-.67.22-.72.58.07.74.96.72,1.53.49.52,1.73,1.25,1.12,2.32-1.19-.15-1.34-1.61-2.18-2.2-.17.48,0,1.23-.35,1.58.2.36.96,0,1.32.15.22.3.15.87-.03,1.08-.3.1-.4-.07-.69,0-1.24.7-2.44,2.1-4.23,2.5-.56.13-1.18.07-1.73.28-.86.33-1.4,1.53-2.17,1.79-.71.24-1.21.06-1.76.05-.92-.95-1.34-2.28-1.48-4.05-.14.09-.08.35-.34.35-.8-.77-1.85-1.65-2.23-2.65.47-.42.89.36,1.1.25-.1-.24.18-.18.19-.33-.25-.15-.5-.3-.61-.62.11-.21.23-.41.65-.38.89-.58,1.82-1.24,3.14-1.98,1.01-.57,2.09-2.08,3.05-2.13.8-.04.95.98,1.68,1.26-.2-.89-1.3-1.06-1.24-2,.29-.16.79-.15,1.2-.22h0ZM74.84,36.25c.43.33.76.78,1.2,1.09-.2-.41-.4-.83-.67-1.15-.31.06-.31-.06-.53.06h0ZM74.3,36.85c.35.4.84.61,1.19,1.01,0-.43-.71-1.18-1.19-1.01h0ZM70.43,37.23c-.16.63-1.21.56-1.48,1.1.34.16.87.05,1.25.16-.05-.45.24-.63.43-.9.04-.25-.15-.22-.2-.36h0ZM71.11,37.84c.02.13-.03.2-.12.24.17.34.32.69.5,1.02-.14-.25.17-1.3-.38-1.26h0ZM76.65,37.26c-.29,0,.02.48-.16.56.45.21.83.52,1.18.86.15-.22.24-.49.2-.87-.57.28-.79-.38-1.22-.55h0ZM70.68,38.73c-.4.44.39.83.59,1.08.02-.29-.37-.81-.59-1.08h0ZM69.48,38.95c.21.26.36.58.5.94.22-.03.09-.34.34-.35,0-.24-.17-.25-.14-.52-.31.08-.36-.18-.7-.07h0Z"/>
        <path class="cls-7" d="M44.1,37.28c.22.6.15.98.26,1.51.43.02.59-.18.64-.46.24.08.56.04.67-.16-.1-.79-1.07-1.4-1.56-.89h0Z"/>
        <path class="cls-7" d="M33.89,40.49c.25-.25.15-.68-.11-.91.07-.29.38-.67.11-1.01-1.41-.2-1.64,2.2,0,1.92h0Z"/>
        <path class="cls-7" d="M27.83,40.52c.44.59,1.61-.15,1.72.95.01.28-.38.25-.32.57.15.42.45.65.99.57.39-1.12-.58-2.2-1.65-2.26.11-.39.42-.63.83-.79-.62-1.23-1.44.48-1.58.95h0Z"/>
        <path class="cls-7" d="M26.54,40.67c-.02.15-.6-.26-.51.21-.23.04-.24-.21-.55-.09-.14.31.02.87.27.97.28-.1.43-.31.72-.39.35.07.47.43.87.2.21-.86.54-1.46.19-2.25-.49.05-.76.27-1.1.44.03.2.01.45.21.44-.08.08-.33.37-.1.47h0Z"/>
        <path class="cls-7" d="M24.12,40.26c-.11.16-.03.55.15.6-.38.21-.23.74.04.99-.85.65-.21,1.93.9,1.74.03-.07.05-.14.13-.17-.03-.58-.53-.55-.66-1,.27-.16.35-.61.05-.85.43-.1.29-.64.59-.84-.19-.43-.73-.4-1.21-.47h0Z"/>
        <path class="cls-7" d="M34.64,40.32c.01.56.14.98.51,1.09.3-.08.46-.28.47-.59.41.18,1,.12,1.35.38,0,.43-.53.45-.34,1.04-.4-.02-.36-.58-.9-.43-.17.36.21.83.09,1.45.14.12.34.15.62.08.25.45-.08,1.14.19,1.59,1.35-.19.34-2.25,1.28-2.76-.45-1.11,1.01-2.16-.3-2.5-.4-.1-.83.15-1.37.09-.81-.09-2.17-1.16-2.16-.05,0,.35.39.38.53.63h0Z"/>
        <path class="cls-7" d="M29.94,40.19c.05.84.52,1.14,1.01,1.42.18.55-.35.55-.35.96.08.49.97.5,1.16.09.19.08.28.28.43.41.64-.58.95.6,1.57.27-.39-.78-1.26-.96-1.46-1.98.04-.22.38-.21.49-.37.03-.7-.51-.68-1.01-.72-.22.1-.1.47-.32.57-.08,0-.15.02-.23.03-.23-.47-.77-1.42-1.31-.69h0Z"/>
        <path class="cls-7" d="M27.4,41.49c.24.49.67.59,1.14.64.21-1.24-.8-.96-1.14-.64h0Z"/>
        <path class="cls-7" d="M33.09,40.89c.23.49.09,1.46.64,1.54.46-.21.22-.97.62-1.23-.21-.34-.92-.69-1.27-.31h0Z"/>
        <path class="cls-7" d="M34.43,41.8c.19.57.27,1.28.99,1.19.41-.63-.52-1.66-.99-1.19h0Z"/>
        <path class="cls-7" d="M28.48,42.74c-.13.02-.25.03-.38.04-.26.42-.04,2.62.89,1.66-.05-.72-.41-1.05-.51-1.71h0Z"/>
        <path class="cls-7" d="M23.86,43.9c.17.66.42.73.39,1.34.74.42.79-.64.94-1.11-.23-.31-.94-.67-1.33-.23h0Z"/>
        <path class="cls-7" d="M29.52,43.77c-.02.61.03.92.04,1.61-.4.31-1.15.33-1.28.84.83,1.1,3.17.63,4.87.96.8.16,1.64.92,2.38.02.65.07,1.42.07,1.63-.5-.55-.9-.3-2.82-1.76-2.55-.05.24-.1.47-.15.71-.15-.04-.29-.09-.47-.1-.15-.44.21-.47.13-.86-.17-.16-.32-.35-.58-.39-.36.1-.26.57-.86.49-.09.18-.19.35-.16.63-.4-.19-.58-.65-1.02-.8-1.03.73-1.89-.63-2.77-.06h0Z"/>
        <path class="cls-7" d="M26.18,44.09c-.31.28-.54.63-.56,1.14.07.03.14.05.17.13.51-.15.98-.33,1.05-.82-.3-.06-.37-.4-.67-.46h0Z"/>
        <path class="cls-7" d="M28.23,45.15c-.21-.66-1.23-1.11-1.27-.39-.03.47,1.07,1.14,1.27.39h0Z"/>
        <path class="cls-7" d="M54.8,46.53c-.06-.38.17-.8.09-1.16-.07-.32-.44-.56-.49-.86-.29-1.87,1.78-.55,2.65-.31.38.1.65-.08.94.2.14.42,0,.99-.06,1.47.3,0,.65.35.84-.02.23-.53-.42-.6-.37-1.18.7-.14,1.4.34,2.14.59.7.24,1.46.56,2.16.74.79.2,2.01.13,2.61.69.57.53.75,1.35,1.04,2.33.36,1.19,1.03,1.91,1.08,3.25-.01.31-.33.38-.38.66.49.51.96,1.04,1.15,1.94-1.5,1.27-3.1-.64-4.69-.67-.51-.18-1.12-.61-1.89-1.08-1.04-.63-2.66-.96-1.58-2.35-.26-.11-.45-.3-.87-.2-.45.34.25.86-.08,1.24-.79-.48-1.8-.67-2.79-.9-.19-.88-1.21-1.11-1.03-2.18.39-.15,1.2-.27.74-.86-.28.1-.27.43-.72.39,0-.6-.41-1.06-.51-1.71h0ZM56.41,45.26c.16.61-.27.75-.23,1.26.27.3.62.49.93.73.08-.58-.3-1.39-.08-1.99-.12-.1-.4-.02-.61,0h0Z"/>
        <path class="cls-7" d="M46.76,56.46c.53.73-.69,1.17-.61,1.99-.62.26-1.51.2-2.13.18-.34-.57-.87-1.31-.79-2.13.11-.21.74-.01.73-.32-.04-.31-.28-.7-.12-.98.38-.11.56.04.92-.03.32-.61.44-1.98-.02-2.76-.24.13-.05.6-.21.79-.06.18-.54.03-.59.22-.1.31.04.81-.44.82-.44-.08-.41-.76-1-.65-.1.02-.09.11-.22.1-.13.45.23,1.28-.12,1.55-.73-.09-1.06-.69-1.45-1.21.23-.57,1-.72,1.31-1.23.11-.46.18-.96.55-1.22.27-.05.38.1.62.08,1.13-.78.62-4.78,3.15-3.83.88-.22.5-1,.88-1.64.33-.56,1.48-.5,1.78-1.13.11-.22-.09-.45.15-.71.98-.33,1.3.87,1.58,1.66.41,1.15.68,1.95.81,2.97-.33.83-1.29.45-1.56-.2.37-.58-.34-1.37-.75-1.75-.45.26-1.18.31-1.28.84.29.3.29.97.67,1.15.19-.13.21-.38.48-.44.63.22,1.47.96.98,1.8.21.18.58.6.75.52-.08-.29.05-.42.16-.56.62.21.85.9,1.04,1.64-.31.81-1.49.1-2.01.55.05.25.17.42.17.75-.52.77-1.72.41-2.26,1.04-.25.3-.23.81-.48,1.13-.37.48-.92.73-1.58.95-.31.31-.24,1.28-.27,1.57.21-.63.32-1.35,1.13-1.52h0ZM47.78,51.43c-.05-.17-.38.01-.54-.01-.06.51.28.52.47.71.21-.08-.14-.62.07-.7h0ZM48.87,51.53c-.27.15-.16.61-.36.81.11.1.28.11.47.1.12-.31.08-.59-.11-.91h0ZM47.46,53.23c-.02-.31.18-.45.14-.78-.64-.42-1.12.98-.14.78h0Z"/>
        <path class="cls-7" d="M73.96,50.17c.88-.43,1.69-1.34,2.88-1.65,1-.26,1.8-.09,1.96-.92.31-.43,1.11-.39,1.97-.85.75-.39,1.2-1.22,1.77-1.28.68-.08,1.71.98,1.28,1.77,1.05.61.95,1.65-.05,2.16.2.36.53.55.99.57,0-.47.27-.97.74-.86,1.3,1.04-.72,2.62.33,3.42.04-.4.62-.71,1.02-.43.15.47-.1.61-.12.94.57.47,2.71,1,1.72,2.18-.45.19-.34-.33-.65-.31-1.06.42-1.84-.29-2.7-.14-.34.06-.49.35-.79.48-.31.14-.67.11-.97.27-1.14.63-2.58,1.49-4.42,1.6-.93,1.2-4.08,2.14-5.55,1.12-.15-.67.26-.89.38-1.35-.67-.41-1.19-1.23-.63-2.07-.84-.76-1.56-1.78-1.4-3.37.39-.47,1.14-.65,2.07-.71-.07-.28.11-.37.16-.56h0ZM81.75,50.47c-.06-.38-.31-.53-.54-.7-.19.44-.42,1.07-1.12.9.31.47.79.74,1.14,1.17-.28-.35-.82-1.72.53-1.37h0ZM83.65,51.01c-.18.52-.69.48-1.23.61.64.96.68,2.72-.96,2.26-.15-.23-.09-.41-.08-.68-.5-.27-1.04-.48-1.35-.99-1.45.12.35,2.71-1.22,2.68-.31,0-.38-.1-.58-.39-.11-.46.35-.45.28-.88-.46-.07-.82.49-1.14.75.09,1.07.91,1.23,1.64,1.49.41-.27.58-.95,1.1-1.05.31-.06.63.22.94.2,1.1-.09,1.6-1.8,3.21-1.38-.25-.6-1.82-1.68-.06-1.83.03-.53-.39-.49-.55-.78h0Z"/>
        <path class="cls-7" d="M22.67,53.33c-.54,1.03.44,1.78.83,2.44-.15.16-.46-.23-.78-.14-.52.53-.2,1.49-.18,2.32.02.99.01,2.44.03,3.53.52.27,2.05.53,2.44-.14-.14-.72-1.14-.35-1.48-.82.28-.27.79-.16,1.18-.45.4.54,1.66.6,1.67-.12.01-.58-.83-.55-.91-1.2-.55.13-.97-.23-1.53.03-.21-.25-.33-.63-.36-1.11.25-.19.31.59.74.45.52-.2.04-1.11.05-1.54.4-.01.66.15,1.02.19.25.42.23.88.16,1.36.37.51.97.75,1.51,1.05,0,.33-.35.37-.3.73.21.95,1.41.66,2.13.51-.05.42-.13.82-.07,1.31.7.94,1.72.03,1.74-.9.69.35-.18.97-.13,1.47.24.37.9.08,1.14-.13,1.93-.27,4.07-.36,5.31-1.17.2-.65-.3-1.11-.28-1.73.02-.64.62-1.23.61-1.99-.01-1.07-.26-1.89-.52-3.09-1.02-.07-1.73-.15-2.84.03-.39-.12-.49-.6-.86-.74-.97.4-1.19-.09-2.29.12-.54-.16-1.14-.89-2-.68-.22.05-.27.35-.49.44-1.32.57-3.19-1.18-3.98.09-.36-.37-1.04-.64-1.55-.12h0Z"/>
        <path class="cls-7" d="M80.61,53.38c-1.01.27,0,1.49.52.64-.02-.36-.37-.4-.52-.64h0Z"/>
        <path class="cls-7" d="M56.57,56.91c-.05.68.77.75,1.12.4.54.48,1.34,1.07,2.11.98.1,1.02,1.3.95,1.72.26.17.05.25.2.48.17-.54.45-1.73,2.28-.03,2.31.11-.6.6-.9.66-1.54.54,0,.92-.15,1.1-.44.31.13.15.85.49.94-.47.11-.95.21-1.08.59.11.3.28.52.53.63.57-.71,1.54,0,2.24-.5.05-.2.07-.44-.14-.52.2-.12.32-.29.48-.44.15.27.25.61.48.79-.31.13-.33.63-.05.85.26-.23.57-.42.76-.7-.05-.59-.75-.56-.53-1.24-1.54-.94-3.81-.97-5.57-1.64-.4.08-.36.5-.78.55-.39-.38.22-.56.2-.87-.17-.66-.76-.78-1.47-.75-.09.14-.17.28-.09.55-.92-.28-1.56-.99-2.65-.38h0Z"/>
        <path class="cls-7" d="M26.06,62.45c.21.14.32.41.53.55.25-.05.62-.01.75-.17-.02-.09,0-.14.06-.16-.22-.76-1.89-2.9-1.95-.92-.4.32-.64,1.29.01,1.38.29.04.68-.17.61-.69h0Z"/>
        <path class="cls-7" d="M50.65,60.76c.41,0,1.11-.65,1.74-.9.1-.04.55-.57.52-.75-.05-.44-1.21-.87-.99.04-.3.64-1.19.8-1.27,1.61h0Z"/>
        <path class="cls-7" d="M41.82,60.73c.01.51.41.52.43,1.02.19-.17.47-.27.55-.53-.1-.43-.62-.94-.98-.5h0Z"/>
        <path class="cls-7" d="M67.44,59.92c.01.51.52.39.76.6-.37.21-.21.84-.23,1.33.51.14.79.57,1.51.43-1.27.43-2.4-.56-3.5-.35-.06.44.6.41.99.57.54.22.95.64,1.75.56.42.54.87,1.04,1.2,1.7-.25.28-.44-.25-.85-.05-.1.2-.24.36-.15.71-.29-.21-.97-.08-1.13.21.03.31.06.62.17.82-.56,0-.81-.37-1.28-.46.11-.41.38-.96-.01-1.38.51.02.78.34,1.27.39.37-.53.04-1.66-.52-1.78-.39.05-.48.17-.83.1-.63-.48-.83-1.5-1.6-1.81-.77.5.2,1.67.49,2.17-.67.55-.11,1.33.03,2.22-.24,0-.36-.12-.56-.16.22-.43-.09-.76-.42-.95.12-.23.29-.41.3-.73-.55-.3-.52-1.03-.66-1.69-1.24.11-2.68,1.41-.98,2.11-.47.19-.76-.61-1.23-.7-.29,0-.24.27-.42.36-1.18-.3-2.03-1.03-3.29-1.22-.45.87.61.99,1.06,1.18,1.12.48,2.43,1.49,3.66,1.72.12.16.18.41.3.58.86,1.08,3.08.96,4.75,1.89.51.28,2.24,2.05,2.99,1.95.51-.07.87-.8.91-1.41.06-.83-.48-1.38-.6-1.85-.17-.65.18-1.35.2-2.17.02-.6-.43-1.6-.61-2.54-.2-1.06-.21-1.92-1.03-2.18-1.04.28-1.66-.74-2.48-.17h0Z"/>
        <path class="cls-7" d="M48.67,62.84c-1.46.31-1.26,1.94-2.39,2.51,0,1.01.52,1.37,1.38,1.29.12-1.21.96-1.85,1.18-2.98.24-.17.37-.03.68-.08.1-.11.06-.44-.06-.53.15-.02.3-.04.45-.05-.07-1.1-1.32-1.35-1.25-.16h0Z"/>
        <path class="cls-7" d="M60.34,61.53c.19.58.24,1.58.85,1.97.61-.33.11-1.43.15-1.94-.32-.02-.63-.08-1-.03h0Z"/>
        <path class="cls-7" d="M52.34,63.32c-.16.55.37,1.36.22,1.89-.05.2-.3-.07-.53.06.03.71-.62.88-.66,1.54-.56.04-.94-.5-1.48-.21.01.53.16.9.44,1.1-.02.28-.23.41-.39.58-.31.1-.38-.1-.62-.08-.27.34-.66.58-1.05.82.22.38.22,1.44.72,1.53.57.09.61-.64.89-.95.61-.68,2.22-1.45,2.65-2.23.27-.49.33-1.2.68-1.39.45-.11.73-.34,1.09-.51.18-.27.25-.88-.06-1.14-.53-.02-.4.46-.69.62-.23-.75-.44-1.53-1.19-1.62h0Z"/>
        <path class="cls-7" d="M89.56,60.68c.27.51.58.48.64.85.05.31-.22.69-.19,1.02.08.71.82,1.31.88,2.2.02.39-.22.86-.16,1.25.12.76,1.19,1.47.58,2.31-.71.27-1.42-.06-2.36.13-.67.14-1.35.57-2.14.71-.69.13-1.46.23-2.2.26-.63.02-1.35-.16-1.92,0-.57.16-.98.79-1.64,1.04-1.45.53-4.56.47-4.98-.56-.22-.53.18-1.28-.02-2.15-.11-.45-.43-.83-.45-1.18-.01-.42.26-.57.27-.95-.19-.46-.59-.64-.55-1.39.7-.29,1.39-.77,2.32-1.12,1.54-.58,3.5-.51,5.1-.99,1.43-.43,3.03-1.82,4.36-1.44.45.13.64.82,1.02.8.27-.65.2-1.58.76-2.01.68-.08.41.71.68,1.22h0ZM84.29,62.84c.2.67-.29,1.44.42,1.56-.14-.61.49-1.54-.42-1.56h0ZM81.21,64.05c-.17.32-.19.76-.41,1.05-.18.02-.35.04-.53.06-.17,1.09,1,1.06,1.23,1.93.6-.59-.04-1.41-.01-2.07.85-.12.93.73,1.3,1.23.11-.6-.15-1.49-.18-2.2-.49.36-.82-.16-1.38.01h0ZM78.75,64.72c-.35.16-.48.49-.42.97.16.18.57.38.79.21-.11-.41-.4-.59-.37-1.18h0ZM84.22,65.53c0,.48-.28.74-.49,1.06.06.33.28.45.39.72.23-.28.36-.63.58-.91-.15-.3-.17-.77-.49-.86h0ZM85.23,65.57c-.04.65-.1,1.29-.24,1.87.19.05.38.36.56.16-.06-.35-.29-.67-.19-.98.62-.07.76.48.96.96.98-.97-.73-1.4-1.08-2.02h0Z"/>
        <path class="cls-7" d="M22.88,68.66c.6-.48,1.4,0,1.74.41-.01-.31.05-.56.39-.58.44-.07.46.41.89.36.32-.12.43-.32.72-.39.54-.14.95.19,1.48.21,1.31.04,2.61-1.31,3.56-.42.04-.34.25-.53.45-.74,1.93.12,4.37-.87,5.42.43-.4,2.09.62,4.34,1.67,5.64.09.28-.05.37,0,.61.16.3.57.26.62.69-.18.61-.7.56-1.22.76-1.41.53-2.71,1.58-4.38,1.9-1.21.23-2.06.53-3.14.68-.18-.31-.25-.66-.12-.98.67-.18,1.29-.4,1.75-.75.01-.39-.14-.57-.38-.65-.19.14-.17.46-.56.45-.38-.07-.4-.6-.57-.93-.27.37-.78.13-1.18.37.2.68.72,1.3.46,1.94-.59-.04-1.05-1.46-1.97-1.07.1.28.38.33.39.72-.19.51-.63.83-.84,1.33-.29-.13-.72-.07-.82-.44.09-.44.57-.56.48-1.13-.3-.03-.84.16-1.19.29.12.17.31.25.3.58-.38.45.06,1.15-.27,1.57-.8-.19-1.57-1-1.62-2.03-.02-.27.14-.58.13-.86-.04-.69-.55-1.31-.71-2.07-.23-1.09-.11-2.26-.07-3.14-.75-.44-.81-1.75-1.43-2.36,0-.05-.01-.1-.02-.15.09-.02.05-.15.05-.24h0ZM24.97,70.79c.14.82.07,2.05,1.04,2.33-.08-.41,0-.69.2-.87,1.01-.14,1.3,1.33.68,1.84.24.33.23.98.6,1.16.19-.42.18-1,.28-1.49,1.51-.16.2,2.3,1.56,2.19-.26-.31-.02-.72.03-1-.19-.4-.73-.35-.73-.99.03-.11.1-.2.2-.25.49-.07.62.31.9.51.21-.54-.17-1.27-.08-1.99-.26-.19-.56-.34-.96-.35.09.37-.16.47-.22.72.06.3.39.26.38.65-.02.1-.08.17-.21.18-.34-.24-.76-.72-.62-1.31-.34-.12-.55-.41-.7-.76-.76.1-.98-.5-1.27-1,.03-.11.1-.2.2-.25.83.07,1,1.19,2.08.68-.42-.45-.64-1.16-1.17-1.47.09.28.17.53-.07.7-.57-.11-.76-.72-1.59-.5-.38.8.47,1.01.65,1.61-.01.1-.12.13-.12.24-.49-.01-.77-.3-1.06-.56h0ZM37.23,73.18c.19.51.63.71.97,1.04-.02-.38-.36-1.1-.97-1.04h0ZM35.68,74.36c-.03.38.28,1.03.74,1.06-.03-.63-.18-1.1-.74-1.06h0Z"/>
        <path class="cls-7" d="M45.88,65.86c-.52.16-.28.92-.62,1.22-.27.08-.31-.13-.55-.09-.31.15-.34.51-.69.62.02,1.22,1.01,1.22,1.79,1.48.13-.4-.14-1.12-.03-1.53.39-.04.58.06.91-.11.04-.61-.51-1.13-.8-1.59h0Z"/>
        <path class="cls-7" d="M48.33,66.41c-.16.38-.24.82-.23,1.33.38.02.9-.31,1.07-.66-.1-.46-.38-.68-.85-.67h0Z"/>
        <path class="cls-7" d="M42.29,69.2c.42.38.37,1.67,1.15,1.32.24-.6-.53-1.55-1.15-1.32h0Z"/>
        <path class="cls-7" d="M46.45,68.71c-.22.24-.55.39-.52.83-.13.19-.27-.35-.63-.16-.11.58-.24,1.62.43,1.71.21-.22.72-.58.42-.97.14-.34.33-.28.65-.38.14-.42-.18-.75-.35-1.03h0Z"/>
        <path class="cls-7" d="M46.72,72.28c.24-.64-.14-1.41-.82-1.05-.16.21.16.5.16.67-.01.35-1.05,1.87.15,1.9.22,0,1.27-.98,1.55-1.18.6-.42,1.13-.82,1.55-1.18-.01-.48-.2-.74-.49-.86-.26,0-.2.25-.34.35-.28-.11-.37-.45-.68-.53-.33.02-.49.16-.65.31-.02.37.13.53.24.74-.46.09-.43.58-.67.85h0Z"/>
        <path class="cls-7" d="M61.27,71.1c.35-.58-.5-1.2-.87-.64-.03.61.48.83.87.64h0Z"/>
        <path class="cls-7" d="M59.77,71.01c-.05.75.65.86.95.47.05-.68-.65-.95-.95-.47h0Z"/>
        <path class="cls-7" d="M61.7,71.04c.19.54-.09.71-.19,1.02.15.76.99.13,1.5.36.03-.11.1-.2.2-.25-.02-.68-.19-1.15-.55-1.39-.5.23-.47.17-.97.27h0Z"/>
        <path class="cls-7" d="M60.99,71.21c-.47.11-.17.82.03.99,1.32-.04.36-.89-.03-.99h0Z"/>
        <path class="cls-7" d="M52.56,74.89c.07,0,.07.09.09.14.67.03,1.34-.48,1.48-1.1.81-.11,1.15-.6,1.82-.83.1-.32,0-.86-.27-.97-.09,0-.13.03-.14.09-.6,1.14-2.53,1.26-2.99,2.66h0Z"/>
        <path class="cls-7" d="M65.37,78.74c-.43-.22-1.12-.55-1.54-.05.36.67,1.27.65,1.88,1,.12.19.25.38.37.57.9.9,3.11.95,4.27,1.72.71.47,1.3,1.48,2.3.65.19-.7.26-2.03-.24-2.66.02-.48.39-1.23.4-1.81,0-.3-.2-.55-.26-.89-.15-.96.08-1.84-.36-2.41-.23-.3-.97-.39-1.6-.58-.61-.18-1.09-.46-1.54-.66-1.6-.71-2.91-.73-3.81-1.7-.53-.13-1.16.03-1.74.21.03.54.4.65.85.67.43.67,1.24.86,2.05,1.06.04.28-.3.27-.16.63.2.49,1.17.59,1.39.07.01.26-.15.39-.07.7.17.25.4.42.68.53.11.4-.21.48-.3.73.26.64,1.29,1.1.99,1.88-.36.08-.39-.26-.65-.31.12-.71-.5-.88-.62-1.31-.16-.61.05-1.37-.65-1.61-.71.38.17.99.31,1.34-.54.25-.49-1-1.31-.69.09.68.27,1.75,1.08,1.95-.12.58.24.79.51,1.09-1.18,0-1.55-1.06-2-1.99-1.27.09-.89,1.42-.24,1.87h0Z"/>
        <path class="cls-7" d="M55.11,74.43c-.1.12-.02.4,0,.61-.36.1-.31-.3-.71-.15-.06.09-.13.17-.2.25.03.46.31.59.62.69.24-.13.32-.39.47-.59.27,0,.36.18.61,0,.04-.2.05-.42,0-.69-.2-.12-.46-.17-.78-.14h0Z"/>
        <path class="cls-7" d="M63.99,74.25c.2.33.27.8.9.71.28-.49-.43-1.28-.9-.71h0Z"/>
        <path class="cls-7" d="M49.56,79.39c.47-.18.85-.43.8-1.02.47-.45.65-1.13,1.2-1.52.62.06.72.77,1.19,1.01.27-.53-.18-.78-.44-1.1-.02-.31.13-.49.22-.72-.07-.38-.35-.48-.68-.53-.57.24-.3.71-.76,1.32-.08.11-.31.12-.5.29-.19.17-.3.53-.46.67-.39.34-1.01.39-1.05.82-.03.29.14.65.48.79h0Z"/>
        <path class="cls-7" d="M63.49,75.2c-.35.38-.59.86-.92,1.26.58.77.97-.6,1.61-.65.04-.24-.33-.6-.69-.61h0Z"/>
        <path class="cls-7" d="M54.06,76.41c-.69.1-.26,1.07.25,1.05.68-.16.23-1.01-.25-1.05h0Z"/>
        <path class="cls-7" d="M61.73,76.59c.19-.02.38-.05.57-.07.51-1.43-1.61-.92-.57.07h0Z"/>
        <path class="cls-7" d="M65.26,75.23c-.05.54-1.1,1.13-.34,1.65.48-.18,1.4-1.55.34-1.65h0Z"/>
        <path class="cls-7" d="M60.86,76.98c0,.57.37.69.78.75.66.29,1.41.84,2.23.66.17-.65-.4-.96-.69-1.3-.3.13,0,.6.09.76-.58-.01-.82-.47-1.3-.61.07-1.11-.75-.58-1.11-.25h0Z"/>
        <path class="cls-7" d="M85.52,75.2c.68-.2.98-.59,1.54-.64.53-.05.98.32,1.73.33.75,0,1.47-.34,2.24-.5.6.69.41,1.7.62,2.61.1.43.37.85.46,1.33.17.83.18,1.88.17,2.74-.01,1.12-.09,2.1.21,3.05-1.44.58-2.24-.81-3.77-.7-.58.04-1.14.35-1.71.43-2.34.35-4.63-.12-6.46-.77-.15.2-.47.27-.72.39-.99-.4-2.39-.27-3.05-1.1.3-1.45-.3-3.19.16-4.47-.2-.39-.39-.78-.4-1.41.83-.33,1.81-1.04,2.88-.96.64.05,1.08.69,1.69.64.4-.21.41-.73.81-.94,1.32-.2,2.5.28,3.6-.04h0ZM82.91,77.12c-.02.48.75,2.04-.18,2.4.1.28.35.37.66.38-.05-1.09.86-1.43,1.53-1.95-.11-.15-.25-.26-.42-.33-.3,0-.29.23-.5.29-.51-.08-.78-.46-1.09-.79h0ZM87.17,77.46c-.16.92.96,1.29,1.47,1.36,0-.75-.58-1.45-1.47-1.36h0ZM78.68,79.62c-.01-.06.16,1.56.4,2.1.13.29.4.5.67.46.09-.97.7-.51,1.48-.48.12,0,.27-.14.37-.12.72.16,1.01.86,1.43,1.06.18-.04.11-.28.35-.27-.15-.18-.47-.15-.58-.39-.03-.23-.05-.45-.08-.68-.55-.35-2.36.16-1.83-1.17-.14-.26-.46-.29-.53-.63-.29.37-.04,1.15-.44,1.43-.77.02-.85-.84-1.23-1.31h0ZM85.85,79.92c.05.59.5.99,1.01.73-.05-.25-.17-.42-.17-.75-.31-.01-.66-.29-.84.02h0Z"/>
        <path class="cls-7" d="M50.5,78.9c-.01.39.14.57.38.65-.26.74.22,1.57.86,1.43.63-.13.29-.74.72-1.01.06-.64-.44-.96-.76-.6.23.47.07.51.06,1.14-.24-.12-.47-.27-.67-.46.13-.51.11-1.26-.6-1.16h0Z"/>
        <path class="cls-7" d="M32.91,84.67c.41.04.65.27,1.04.34.2-.21.23-.55.45-.74.82-.23.92.46,1.65.34.18-.15.09-.52.05-.85.09,0,.13-.03.14-.09.44.05.66.38.92.66-.5.46.15,1.25.48,1.48.7-.37-.2-1.01-.39-1.34.27,0,.53-.41.52-.83.19-.03.25.09.4.11.02.34-.18.5-.04.93.88,1.04,1.53.17,1.57-1.03.37,0,.19.68.48.79.62-.75,1.18.38,1.75-.13.32.32.24,1.15.83,1.13.43-.05.2-.62.44-.82.55-.17.38.56.83.52.6-.5-.25-1.55-.81-1.67-.19-1.32-.85-2.06-1.55-2.73-1.63.76-3.19,1.26-4.85,1.8-.48.16-.82.55-1.29.77-1.07.49-2.43.65-3.82.84-.04.38-.8.19-.94.5.19.69.85.78,1.35,1.07.26-.02.19-.31.16-.56.33.21.61.51,1.13.48.19-.44-.34-.64-.5-.94h0Z"/>
        <path class="cls-7" d="M48.93,79.93c-.17.03,0,.32-.02.46.72.25.71,1.43,1.63,1.42.21-.93-1.15-1.22-1.61-1.88h0Z"/>
        <path class="cls-7" d="M48.2,82.16c.15-.23.22-.38.07-.7.21-.23.34.18.61-.07-.13-2.75-3.4.95-.68.77h0Z"/>
        <path class="cls-7" d="M48.03,82.64c.44,1.12,1.23,1.8,1.72,2.87.69-.05.59-.42,1.18-.45,0-.59-.34-.73-.65-.92-.3.02-.24.31-.32.5-.81-.35-.85-2.55-1.93-2h0Z"/>
        <path class="cls-7" d="M28.86,84.76c.02.09,0,.14-.06.16.37.49.7,1.03,1.1,1.48.25.04.22-.14.28-.26.2.07.29.27.57.24.24-.52-.38-1.27-.79-1.52-.17,0-.23.09-.2.25-.29-.12-.36-.53-.89-.36h0Z"/>
        <path class="cls-7" d="M28.28,85.06c-.12,0-.12.09-.22.1.08.68.41,1.05.71,1.45-.01.17-.4.05-.44.21.32.65.08.82.02,1.46.12.1.4.2.54.01.63.77.79,2.13,1.62,2.65.09.5.17,1,.66,1,.1-.67-.13-1.63-.74-1.68-.02-.28.07-.3-.06-.53.94.42,1.64-1.17.45-1.36-.2.11-.16.43-.23.64-.18,0-.17-.25-.41-.18.13-.39.01-.56-.05-1.07-.3-.11-.71-.08-1.02-.19.04-.32-.07-.5.22-.72-.26-.71-.85-1.01-1.06-1.79h0Z"/>
        <path class="cls-7" d="M51.69,84.43c-.18-.24-.28-.58-.74-.45-.16.4.18.85.56.85.2,0,.18-.18.19-.33.24.15.51-.1.66-.23-.07-.43-.43-.51-.63-.77.43-.26.66.42,1.19.32.03-.07.05-.14.13-.17-.39-.9-1.32-1.16-2.41-.94.02.37-.03.48-.04.93.13.07.45.35.62.08.23.14.38.38.47.71h0Z"/>
        <path class="cls-7" d="M34.89,85.12c.17.47.43.85.98.89.05-.68-.45-1.4-.98-.89h0Z"/>
        <path class="cls-7" d="M40.55,84.99c.2.39.29.91.86.82,0-.07.09-.07.14-.09.33-.87-.74-1.58-1.01-.72h0Z"/>
        <path class="cls-7" d="M33.55,86.17c.01.53.28.78.87.68.35-.59-.44-1.27-.87-.68h0Z"/>
        <path class="cls-7" d="M31.29,86.55c-.15.46.21.97.79.78.42-.5-.34-1.14-.79-.78h0Z"/>
        <path class="cls-7" d="M43.12,85.3c-.02.33.36.73.03.92.28,0,.42.07.85.05.03-.07.05-.14.13-.17-.05-.59-.61-1.22-1.02-.8h0Z"/>
        <path class="cls-7" d="M39.18,85.75c.02.19.04.39.07.58.26.06.46.19.81.14.34-.55-.4-1.25-.88-.72h0Z"/>
        <path class="cls-7" d="M29.97,87.03c.03.56.26.84.83.68.06-.08.02-.24.13-.28-.01-.55-.68-.82-.96-.41h0Z"/>
        <path class="cls-7" d="M38.39,87.03c.15-.19.07-.75-.14-.91-1.01-.06-.97,1.21.14.91h0Z"/>
        <path class="cls-7" d="M36.12,86.52c-.86.34.19.91.44,1.18.47-.26-.01-1.07-.44-1.18h0Z"/>
        <path class="cls-7" d="M44.36,85.69c-.27.37.15.82.42,1.03.83-.1.41-1.21-.42-1.03h0Z"/>
        <path class="cls-7" d="M40.48,86.3c.02.47.24.74.7.77,0-.07.11-.07.19-.1.31-.48-.47-1.17-.89-.68h0Z"/>
        <path class="cls-7" d="M41.97,86.51c.03.09,0,.14-.06.16.05.52.48.61.79.83.4-.43.06-1.51-.72-.99h0Z"/>
        <path class="cls-7" d="M39.41,86.74c-.18.31,0,.95.38,1.04.82-.08.57-1.29-.38-1.04h0Z"/>
        <path class="cls-7" d="M34.08,87.37c.04.51.11.98.91.88.21-.38-.12-1.01-.91-.88h0Z"/>
        <path class="cls-7" d="M32.5,88.1c-.25.55.41,1.11.91.81,0-.6-.26-.93-.91-.81h0Z"/>
        <path class="cls-7" d="M44.46,86.9c.03.51.15.91.37,1.18.26,0,.42-.08.6-.15.2-.67-.39-1.35-.97-1.04h0Z"/>
        <path class="cls-7" d="M38.95,87.57c-.36-.03-.32.15-.53.2,0,.53.36.76.9.83.25-.43-.24-.68-.38-1.04h0Z"/>
        <path class="cls-7" d="M43.64,89.07c1.34-.04.77-2.18-.38-1.95-.06.62-.28,1.7.38,1.95h0Z"/>
        <path class="cls-7" d="M36.3,88.67c.14.21.39.29.79.18.57-.79-1.02-1.43-.79-.18h0Z"/>
        <path class="cls-7" d="M41.19,87.54c-.48.17-1.1.67-.4.96.55-.08.84-.63.4-.96h0Z"/>
        <path class="cls-7" d="M63.15,85.23c.1.45.23,1.88.84,1.9.37,0,.75-.43.49-1.06.31-.01.63.31.86.13-.27-.47-1.39-1.36-2.19-.97h0Z"/>
        <path class="cls-7" d="M35.3,89.91c0-.42.16-.29.4-.51-.1-1.57-1.76.51-.4.51h0Z"/>
        <path class="cls-7" d="M54.95,89.27c-.83-.01-1.81.39-1.77,1.28-.26-.1-.33-.09-.61,0,.42,1.13,1.43,1.5,1.65,2.88.88.68.77,2.62,2.02,2.83.2-.12.2-.39.32-.57,1.18.22,1.17-1.69.1-1.78-.11.19.03.57-.06.77-.12-.13-.27-.24-.42-.33-.19.19-.37.19-.67.16-1.04-.81-.84-1.9-1.18-3.47.14-.25.44-.39.62-.61.14.05.16.26.34.27.71-.23.23-1.03.51-1.52.35.11.37.63.9.51.03-.07.05-.14.13-.17.04-.34-.2-.33-.29-.5.11-.87,1.38-.83,1.91-1.38.2.03.12.42.36.42.48-.66-.17-2.01-1.12-1.71-.78,1.08-2.24,1.62-2.72,2.93h0Z"/>
        <path class="cls-7" d="M41.8,89.27c1.73-.87-1.54-1.57,0,0h0Z"/>
        <path class="cls-7" d="M42.58,88.28c-.03.07-.06.14-.16.17.06.42.27.69.64.77.63-.12.25-1.25-.48-.94h0Z"/>
        <path class="cls-7" d="M37.37,88.9c-.43.41-.01,1.05.37,1.34.48-.15.69-1.63-.37-1.34h0Z"/>
        <path class="cls-7" d="M41.13,88.62c-.17.02-.34.03-.51.05-.27.21-.32.9.28.91.7-.01.48-.73.23-.95h0Z"/>
        <path class="cls-7" d="M32.86,90.09c.01.53.28.77.86.68.38-.56-.46-1.28-.86-.68h0Z"/>
        <path class="cls-7" d="M65.78,86.06c-.53,1.38,1.15,1.2,1.6,1.88-.49.46-1.23.41-1.67.81-.09.43.14.82.43,1.02.59-.07,1.06-.22,1.32-.54-.01-.19-.03-.37-.13-.45.34-.23.64-.5,1.07-.66.79.17,0,1.43.95,1.5.25-.1.48-.22.56-.45.36.38.68.83,1.06,1.18.64-.36.57.49,1.33.23.26-.33.27-1.12.04-1.62-1.14-.5-2.55-.65-3.27-1.68-1.3-.06-2.35-.44-3.07-1.25-.08,0-.15.02-.23.03h0Z"/>
        <path class="cls-7" d="M39.52,89.42c-.15.01-.29.03-.44.04.47.4-.25,1.22.96,1.22.12-.54-.11-.88-.52-1.26h0Z"/>
        <path class="cls-7" d="M36.59,89.86c-.21.02-.43.05-.64.07-.13.4.03,1.06.93.82-.05-.34-.04-.75-.28-.89h0Z"/>
        <path class="cls-7" d="M41.64,89.32c-.59.15-1.1.61-.82,1.08.73-.08.68-.64.82-1.08h0Z"/>
        <path class="cls-7" d="M31.47,90.59c-.14.45.16.91.54,1.01.21-.01.24-.15.39-.2-.04-.59-.26-.97-.93-.81h0Z"/>
        <path class="cls-7" d="M34.23,90.64c.05.47.36.67.85.66.41-.57-.44-1.31-.85-.66h0Z"/>
        <path class="cls-7" d="M37.91,90.52c.25.39.19,1.04.96.98.13-.39-.25-1.02-.96-.98h0Z"/>
        <path class="cls-7" d="M64.42,88.22c.22.04.49.3.7.07-.24-.47-.76-.6-1.38-.6.12,1.08.07,2.13.72,2.83-.25,1.15.77,1.16,1.33,1.53.34,1.28,1.13-.1,1.4-.47,0-.55-.4-.59-.7-.76-.31.08-.44.29-.64.46-.22-.37.19-1.37-.28-1.73-.59-.03-.51.47-.68.77-.45-.5.14-1.62-.48-2.09h0Z"/>
        <path class="cls-7" d="M36.41,91.01c-.15,0-.15.09-.26.1-.23.55.29,1,.71,1.15.56-.33-.19-.98-.44-1.26h0Z"/>
        <path class="cls-7" d="M57.77,89.09c-.23.33.05.95.56.85.08-.19.07-.44.15-.63.27.06.31.42.73.3.19-.43-.26-.69-.42-.95-.3.17-.44.47-1.02.43h0Z"/>
        <path class="cls-7" d="M35.01,91.87c-.2.31-.64.93-.13,1.24,1.02-.04.78-1.11.13-1.24h0Z"/>
        <path class="cls-7" d="M31.31,92.53c.23.26-.11.85.5.95.64-.23.72-1.21-.5-.95h0Z"/>
        <path class="cls-7" d="M58.87,89.95c-.13.33-.03.44.02.84-.15.05-.21-.03-.31-.04-.02-.17-.11-.71-.6-.54-.18.32.1.64.38.65-.12.37,0,.58-.36.81.02.41.21.61.33.88-.15,0-.47.14-.57.38-.25-.24-.5-.73-.9-.51.08.6.51,1.42,1.11,1.63.26-.05.3-.26.32-.5.53,0,.7-.27,1.02-.43-.2-.73.15-1.03.45-1.36-.1-.75-.33-1.32-.6-1.85-.1.01-.2.02-.3.04h0Z"/>
        <path class="cls-7" d="M33.16,93.85c.27.17.57.2.84-.02.32-.86-1.23-1.24-.84.02h0Z"/>
        <path class="cls-7" d="M56.59,90.77c.2.38-.05.38.02.8.65,0,.57-.44,1.02-.45-.15-.37-.77-.71-1.04-.36h0Z"/>
        <path class="cls-7" d="M67.52,89.7c.22.59.12.63.15,1.29.14.08.28.17.55.09.02-.35.03-.71.45-.74-.15-.49-.67-.83-1.15-.63h0Z"/>
        <path class="cls-7" d="M32.32,93.95c.09.46.25.87.83.9.42-.36-.19-.93-.83-.9h0Z"/>
        <path class="cls-7" d="M55.02,91.81c.09.57.44.77.91.8.27-.65-.5-1.13-.91-.8h0Z"/>
        <path class="cls-7" d="M48.5,92.49c-.19.17-.42.31-.72.39.13.84-.57,1.01-.56,1.76-.56-.45-1.24-.96-1.78-.1.03.52.15.91.5,1.01.35-.07.43-.35.71-.47.29.01.5.12.78.14.45-.26.54-.81.94-1.11.47-.04.75.05.97-.27-.05-.75-.56-.92-.85-1.36h0Z"/>
        <path class="cls-7" d="M69.09,90.66c-.16.57.36.97.42,1.56-.47.13-.4.69-.9.8-.09.3-.03.82.26.89.48-.31,1.17-.45,1.09-1.2.77-.05.98.61,1.36,1.07-.49.23-.75.64-1.11.98.24.87,1.78.31,2.05-.17-.21-.87,1.11-3.38.03-3.61-.49-.11-.83.27-1.01.58-.01.28.13.36.21.51-.08.14-.28.19-.34.35-.28-.23-.18-.93-.58-1.01-.21.06-.33.2-.33.42-.48-.26-.43-1.2-1.14-1.17h0Z"/>
        <path class="cls-7" d="M76.98,89.88c.17.91-.45,1.56-.18,2.33.46-.07.67-.34,1.01-.5,0-.25.1-.43.07-.7.3-.06.44.08.77-.01.76-.9-.85-1.42-1.67-1.11h0Z"/>
        <path class="cls-7" d="M84.24,90.25c1.56-.01,2.77.93,4.32.87,1-.04,1.53-.18,2.17.2.64-.12.9.25,1.35.38.46,1.34-.23,2.86-.35,4.19.96.97-.82,1.77-.73,2.93.63,1.07-.02,2.95.18,4.12-.84.25-1.75-.35-2.54-.7-.66-.3-1.55-.79-1.33-1.53.34-.17.51.01.78.14-.09-.27.08-.35.34-.35.41.33.55.98,1.33.84.13-.38.59-.5.66-.92-.96.11-1.04-.89-1.61-1.27.05-.33.2-.58.2-.94-.95-.85.37-2.06.8-1.02.09.22-.19.36-.15.71.04.32.32.46.31.65-.01.23-.26.36-.24.57.4-.08.41.71.74.45-.13-.44-.06-1.2-.42-1.56.1-.51.52-.78.78-1.17.04-.59-.04-1.27.18-1.71-.13-.18-.23-.41-.51-.4-.79.51-1.94-.18-2.42-.33-.02.26-.06.5-.06.78.66.3,1.91-.15,2.29.5-.96,1.31-3.21.59-3.83-.55-.5.41-1.06.77-1.21,1.45-.82.2-1.18-.18-1.53-.59.01.26-.19.36-.41.43-.72-.05-1.38-.9-1.05-1.72,1.22-.51,1.79.5,2.62.76.33-.47-.14-.9-.44-1.1-.14.12-.09.38-.42.36-.5-.29-.64-1.04-.82-1.75.03-.27.42-.27.48-.52-.34-.21-.32-.87-.8-.9.17.94-1.33,1.08-1.7.51-.25-.26.21-.44.22-.72-.21-.02-.23-.29-.49-.25-.26.71-1.33.61-1.75.13-.08-.34.25-.35.15-.71-.08-.31-.46-.22-.46-.64,1.83-.4,3.47.38,5.34.36h0ZM85.99,92.11c-.59.02-.35.69-1.08.59-.07.24.02.61-.05.85.72-.35,1.39-.07,1.39.76.36-.04.43-.3.81-.33-.02-.3-.21-.37-.3-.58-.08.07-.19.12-.37.12-.65-.15-.14-1.02-.4-1.41h0ZM88.54,92.88c-.32.23-.44.62-.4,1.12.25-.19.55-.34,1.03-.35-.1-.39-.24-.73-.63-.77h0Z"/>
        <path class="cls-7" d="M67.74,91.59c-.42.37-.67,1.39.01,1.38.49,0,.38-.8.8-1.02-.12-.32-.38-.44-.81-.37h0Z"/>
        <path class="cls-7" d="M55.28,93.07c-.15.32.15.43.13.9,1.1.04,1.01-1.18-.13-.9h0Z"/>
        <path class="cls-7" d="M45.04,94.97c-.24.29-.44.61-.49,1.06-.21-.2-.22-.65-.61-.62-.18.35-.33.35-.63.54.08.5.34.79.52,1.17.21-.04.31-.17.26-.41.52.19.79-.25.76-.7.23,0,.3.2.62.08.11-.42-.17-.89-.44-1.1h0Z"/>
        <path class="cls-7" d="M49.7,95.54c.44-.46-.23-1.22-.78-.79.02.1,0,.16-.06.18.1.46.39.65.83.6h0Z"/>
        <path class="cls-7" d="M48.57,95.49c-.19.4.17.76.66.78.51-.19,0-.6.21-.87-.12-.16-.77-.01-.87.09h0Z"/>
        <path class="cls-7" d="M47.35,95.7c-.16.5.31.88.82.91.33-.4-.14-1.09-.82-.91h0Z"/>
        <path class="cls-7" d="M42.35,96.29c-.05.09-.08.21-.03.39-.11-.09-.37-.06-.45.05.09.47.08.46.02.84.2.23.76.1.74-.24.14.08.28.17.55.09.26-.49-.16-1.27-.83-1.13h0Z"/>
        <path class="cls-7" d="M76.64,92.84c.2,1.66,1.69.68,1.81-.29-.38-.45-1.51.02-1.81.29h0Z"/>
        <path class="cls-7" d="M80.49,93.61c.42-.12.88-.22,1.09-.51-.2-.65-1.2-1.22-1.6-.58.01.56.17.94.51,1.09h0Z"/>
        <path class="cls-7" d="M50.8,96.8c.73-.24.03-.81-.41-.92-.61.28.12.78.41.92h0Z"/>
        <path class="cls-7" d="M46.05,96.39c.04.53.3.88.93.88.16-.39-.17-1.03-.93-.88h0Z"/>
        <path class="cls-7" d="M78.48,93.46c.04.43-.3.74-.02,1.15.85.19,1.09-.63,1.32-1.15-.29-.85-.82-.34-1.3,0h0Z"/>
        <path class="cls-7" d="M50.7,96.49c-.18-.08-.5-.05-.83,0-.19.37-.07.98.7.88.35-.29.05-.59.14-.87h0Z"/>
        <path class="cls-7" d="M40.99,97.68c-.2.51.3.95.93.84-.01-.56-.46-1.06-.93-.84h0Z"/>
        <path class="cls-7" d="M44.1,97.43c-.03.63.46.64.87.74.32-.58-.32-1.23-.87-.74h0Z"/>
        <path class="cls-7" d="M82.38,94.31c.69-.21.46-1.15.32-1.49-.87.1-1.07,1.18-.32,1.49h0Z"/>
        <path class="cls-7" d="M47.97,96.93c-.19.49.07,1.14.78,1.07.39-.46-.27-.94-.78-1.07h0Z"/>
        <path class="cls-7" d="M76.67,94.37c.04.48-.28,1.37.33,1.5.5.1.87-.63.76-1.32-.25-.21-.75-.36-1.1-.18h0Z"/>
        <path class="cls-7" d="M80.93,94.09c-.24-.1-.44-.25-.86-.13,0,.16-.19.17-.19.33.19.63.64.93.94,1.42.46-.13,1.2-.75,1.07-1.36-.07-.32-.61-.86-.95-.27h0Z"/>
        <path class="cls-7" d="M43.84,98.36c-.25.03-.5.05-.75.08-.05.44-.11.75.43.88.68-.13.5-.54.32-.96h0Z"/>
        <path class="cls-7" d="M50.92,97.96c-.16-.06-.16-.32-.41-.26,0,.07-.09.07-.14.09-.01.45.17.65.4.8.25-.06.3-.27.41-.43.3-.06.27.3.57.24.26-.73-.65-1.14-.82-.44h0Z"/>
        <path class="cls-7" d="M39.29,98.95c-.05.6.55.99.98.85-.07-.53-.17-1.02-.98-.85h0Z"/>
        <path class="cls-7" d="M46.44,99.35c2.11-.5-.92-1.86,0,0h0Z"/>
        <path class="cls-7" d="M45.43,98.56c-.2.02-.39.04-.59.06-.2.19-.11.76.14.91.2-.02.39-.04.59-.06.31-.28-.09-.59-.14-.91h0Z"/>
        <path class="cls-7" d="M47.31,98.62c.03.54.29.88.98.84.03-.56-.43-1.1-.98-.84h0Z"/>
        <path class="cls-7" d="M49.21,98.47c0,.35.17,1.11.97.97.07-.41-.25-1.04-.97-.97h0Z"/>
        <path class="cls-7" d="M37.34,99.96c.12.47.31.85.84.8.06-.07.02-.23.13-.26-.07-.46-.53-.85-.97-.54h0Z"/>
        <path class="cls-7" d="M78.15,95.19c.18.55.36,1.11,1.04,1.03.03-.07.05-.14.13-.17-.09-.63-.62-1.11-1.18-.86h0Z"/>
        <path class="cls-7" d="M41.28,99.59c.12.6.51.76.96.8.1-.55-.52-1.15-.96-.8h0Z"/>
        <path class="cls-7" d="M43.36,99.86c-.17.19-.09.78.12.93.31-.02.61-.05.75-.19,0-.54-.28-.8-.87-.75h0Z"/>
        <path class="cls-7" d="M51.65,98.95c-.24,0-.33.11-.27.34-.23.07-.2-.21-.47-.1-.15.24-.21.58.01.77.33.03.37-.17.42-.36.13.12.15.39.49.25.14-.27-.05-.71-.18-.9h0Z"/>
        <path class="cls-7" d="M36.43,100.75c-.13.17,0,.44.07.61-.25.02-.31-.18-.62-.08-.2.45.14,1.2.75,1.14.14-.12.17-.53,0-.69.13-.19.41.06.51-.21-.1-.43-.27-.76-.7-.76h0Z"/>
        <path class="cls-7" d="M40.17,100.39c-.1,0-.15.03-.17.1.33.47.2,1.68,1.04,1.8-.05-.56-.6-1.29-.87-1.9h0Z"/>
        <path class="cls-7" d="M79.77,95.92c-.04.52-.46.73-.63,1.15-1.25.31-1.3-.9-2.33-.88-.36.25-.52.64-.81.94,1.73,1.84,6.11,2.09,8.4,3.53.89.56,1.29,1.31,2.04.37.12-.16.39-.4.39-.58,0-.59-1-1.34-1.52-.51-.13-.3-.25-.62-.48-.79-.66.12-.82.29-1.3,0-.07-.41-.19-.74-.49-.86-.36,0-.42.22-.57.38-.21-.03-.3-.2-.42-.33-.02-.4.27-.57.36-.89.7.26,1.19,1.1,2.03.91.31.83,1.38.48,1.08-.59-.96-.29-2.31-1.3-3.31-.68-.03-.46-.2-.74-.69-.61-.08.21-.03.53-.06.78-.37.07-.48-.2-.79-.21.04-.29.26-.43.3-.73-.1-.5-.72-.65-1.2-.4h0Z"/>
        <path class="cls-7" d="M48.14,99.82c.24.37.38.87.96.85.15-.46-.53-1.08-.96-.85h0Z"/>
        <path class="cls-7" d="M46.49,100.12c-.29,0-.29.11-.52.14-.25.16-.07.49-.05.76.32-.04.4.08.73.03.24-.19.14-.78-.17-.92h0Z"/>
        <path class="cls-7" d="M42.38,100.59c-.46.18-.31,1.17.59.94.35-.39-.26-.75-.59-.94h0Z"/>
        <path class="cls-7" d="M38.48,101.21c-.09.06-.19.11-.36.12.03.5.33.75.88.79.3-.39-.28-.69-.52-.91h0Z"/>
        <path class="cls-7" d="M46.84,100.44c.1.44.31.78.83.84.41-.43-.17-1.15-.83-.84h0Z"/>
        <path class="cls-7" d="M44.58,101.03c-.2.02-.39.04-.59.06.06.47.04,1.01.88.85.3-.41-.23-.51-.29-.91h0Z"/>
        <path class="cls-7" d="M86.24,96.15c-.2.33-.55.53-.74.86-.04.8,1.14.8,1.59.43.28.36,1.08.7,1.41.22-.05-.45-.13-.88-.43-1.02-.3-.03-.27.2-.34.35-.55-.2-.59-1.05-1.48-.82h0Z"/>
        <path class="cls-7" d="M49.62,100.62c.34.32-.07.52.27.77,1.2.03.64-1.44-.27-.77h0Z"/>
        <path class="cls-7" d="M49.51,100.84c-.18-.12-.6.2-.94,0,.07,1.49.92.92.94,0h0Z"/>
        <path class="cls-7" d="M37.33,102.49c-.08.1-.05.28-.02.46-.51-.42-1.12.64-.28.88.19-.13.29-.32.23-.64.23,0,.3.2.62.08.1-.36-.02-.96-.55-.78h0Z"/>
        <path class="cls-7" d="M42.45,102.34c.23.27.1.83.58.89.84-.12.17-1.1-.58-.89h0Z"/>
        <path class="cls-7" d="M41.31,102.64c-.64.16-.21.88.2.98.9-.2.14-.75-.2-.98h0Z"/>
        <path class="cls-7" d="M38.72,103.21c.08.43.34.67.78.71.57-.44-.38-1.32-.78-.71h0Z"/>
        <path class="cls-7" d="M47.44,102.14c-.38.14.04.65-.02.94.23-.02.47-.04.7-.06.44-.42-.39-.65-.68-.88h0Z"/>
        <path class="cls-7" d="M45.88,102.8c.06.35.15.66.49.62.15-.21,0-.66.45-.62-.26-.34-.79-.49-.94,0h0Z"/>
        <path class="cls-7" d="M88.4,100.12c.81-.84-1.02-.91-1.06-1.79-.36-.23-1.17-.36-1.36.16.05.63.35.95.68,1.22.89-.37,1.23.08,1.74.41h0Z"/>
        <path class="cls-7" d="M37.43,30.17c-.02-.09,0-.14.06-.16-.12-.34-.23-.69-.69-.61-.1.15-.04.63.09.76-.16.56-.96.62-.92,1.34,1.19.38.39-1.38,1.46-1.32h0Z"/>
        <path class="cls-7" d="M52.66,82.86c-.15.24.64.23.85.05.2-1.36,2.26-2.37,2.87-3.64.25-.53.83-.91.85-1.25.06-.91-1.04-1.58-1.63-2.11-.73.7.47,1.09.56,1.47.08.33-.45.53-.27.95-.38-.15-.69-.41-1.27-.31-.19.51.17.98.38,1.26-.2.28-.67.34-.93.57-.1-.38.13-1.44-.07-1.91-1.02.91-.7,2.88-1.7,3.81-.06.5.51,1.07.36,1.11h0Z"/>
      </g>
      <path class="cls-3" d="M55.89,107.79c28.61,0,51.89-23.28,51.89-51.89S84.51,4,55.89,4,4,27.28,4,55.89s23.28,51.89,51.89,51.89h0Z"/>
      <path class="cls-4" d="M55.89,109.79c29.72,0,53.89-24.18,53.89-53.89S85.61,2,55.89,2,2,26.18,2,55.89s24.18,53.89,53.89,53.89h0Z"/>
      <path class="cls-2" d="M55.89,104.45c26.78,0,48.56-21.78,48.56-48.56S82.67,7.33,55.89,7.33,7.33,29.12,7.33,55.89s21.78,48.56,48.56,48.56h0Z"/>
      <path d="M127,80.18h18.03l6.62-8.29V25.06l-6.62-8.38h-18.03l-6.62,8.38v46.84l6.62,8.29h0ZM138.41,66.09h-4.86V30.77h4.86v35.32h0ZM168.97,80.18v-19.99h11.41l6.9-8.38v-26.92l-6.62-8.21h-24.93v63.51h13.24ZM173.9,46.1h-4.93v-15.33h4.93v15.33h0ZM204.11,80.18v-19.99h11.41l6.9-8.38v-26.92l-6.62-8.21h-24.93v63.51h13.24ZM209.04,46.1h-4.93v-15.33h4.93v15.33h0ZM232.63,80.18h18.03l6.62-8.29V25.06l-6.62-8.38h-18.03l-6.62,8.38v46.84l6.62,8.29h0ZM244.04,66.09h-4.86V30.77h4.86v35.32h0ZM274.6,80.18v-25.54h5.21v25.54h13.17v-25.81l-5.35-6.61,5.35-6.98v-15.72l-6.67-8.39h-24.94v63.51h13.24ZM279.81,41.07h-5.21v-11.1h5.21v11.1h0ZM299.6,32.18v48h13.17v-48h7.89v-15.5h-28.87v15.5h7.82ZM328.83,80.18h18.17l6.62-8.47V16.68h-13.17v49.41h-5.07V16.68h-13.17v55.04l6.62,8.47h0ZM369.6,80.18v-26.95l-.63-7.13-.35-4.14-.35-3.17.77,3.61.77,3.52,1.55,6.87,8.45,27.39h14.86V16.68h-11.69v27.04l.63,6.78.28,3.17.28,3.17-.99-4.05-.42-2.03-1.48-6.61-8.45-27.48h-15.14v63.51h11.9ZM411.99,80.18V16.68h-13.24v63.51h13.24ZM421.36,32.18v48h13.17v-48h7.89v-15.5h-28.87v15.5h7.82ZM451.57,58.4v21.79h13.1v-21.79l11.2-41.72h-14.23l-2.54,16.47-.07.53-.42,4.76-.28,2.64-.21,2.73v-2.11l-.28-3.26-.57-5.28-2.56-16.47h-14.34l11.2,41.72h0ZM503.39,80.18h18.03l6.62-8.29V25.06l-6.62-8.38h-18.03l-6.62,8.38v46.84l6.62,8.29h0ZM514.8,66.09h-4.86V30.77h4.86v35.32h0ZM538.75,80.18h18.17l6.62-8.47V16.68h-13.17v49.41h-5.07V16.68h-13.17v55.04l6.62,8.47h0ZM572.9,32.18v48h13.17v-48h7.89v-15.5h-28.87v15.5h7.82ZM620.15,80.18l6.9-8.47V24.97l-6.55-8.29h-25v63.51h24.65ZM613.81,66.09h-5V30.59h5v35.5h0ZM637.75,80.18h18.03l6.62-8.29V25.06l-6.62-8.38h-18.03l-6.62,8.38v46.84l6.62,8.29h0ZM649.16,66.09h-4.86V30.77h4.86v35.32h0ZM673.11,80.18h18.03l6.62-8.29V25.06l-6.62-8.38h-18.03l-6.62,8.38v46.84l6.62,8.29h0ZM684.51,66.09h-4.86V30.77h4.86v35.32h0ZM715.08,80.18v-25.54h5.21v25.54h13.17v-25.81l-5.35-6.61,5.35-6.98v-15.72l-6.67-8.39h-24.94v63.51h13.24ZM720.29,41.07h-5.21v-11.1h5.21v11.1h0ZM744.46,80.18h18.07l6.63-8.38v-22.85l-18.24-12.71v-6h4.93v7.58l13.31-2.55v-10.57l-6.55-8.02h-18.45l-6.55,8.47v20.38l18.24,12.71v8.03h-4.93v-10.13l-13.31,2.55v12.86l6.85,8.63h0Z"/>
      <path class="cls-5" d="M189.98,113.53h5.53v-6.27h11.88v6.27h5.53v-17.28h-5.53v6.18h-11.88v-6.18h-5.53v17.28h0ZM215.25,104.19c.02,2.02.04,3.32.07,3.87.03.56.1,1.18.22,1.86.31,1.79,1.39,2.9,3.24,3.34.84.19,1.82.33,2.95.41,1.13.07,2.74.11,4.82.11,2.78,0,4.77-.07,5.99-.2,1.21-.14,2.15-.4,2.82-.78,1.17-.68,1.87-1.74,2.08-3.19.12-.85.21-2.66.27-5.42v-7.93h-5.27v7.93c0,.5-.02,1.14-.06,1.91-.04.76-.1,1.3-.18,1.61-.08.31-.22.58-.41.8-.29.31-.79.52-1.5.63-.71.11-1.97.16-3.79.16-2.24,0-3.74-.11-4.47-.32-.74-.21-1.17-.65-1.31-1.33-.1-.48-.16-1.63-.19-3.46v-7.93h-5.26v7.93h0ZM240.05,113.53h5.35l-.11-12.88h.57l9.09,12.88h9.15v-17.28h-5.35l.13,12.88h-.54l-9.05-12.88h-9.23v17.28h0ZM265.3,100.66h7.7v12.87h5.53v-12.87h7.68v-4.4h-20.91v4.4h0ZM382.29,113.53h5.27v-5.97h12.36v-3.97h-12.36v-3.27h13v-4.06h-18.26v17.28h0ZM401.76,113.53h5.53v-17.28h-5.53v17.28h0ZM409.1,108.62c0,1.24.12,2.16.37,2.77.25.61.7,1.1,1.35,1.47.62.35,1.56.59,2.8.72,1.24.14,3.16.2,5.76.2,3.11,0,5.23-.05,6.37-.15,1.06-.1,1.89-.3,2.48-.58.59-.29,1.04-.72,1.37-1.3.44-.79.66-2,.66-3.63,0-1.24-.13-2.19-.39-2.85-.26-.66-.71-1.18-1.34-1.56-.56-.32-1.31-.54-2.25-.65-.94-.11-2.81-.21-5.6-.3-3.32-.1-5.18-.21-5.58-.32-.49-.13-.73-.51-.73-1.11s.24-1.02.73-1.16c.49-.14,1.85-.21,4.09-.21,1.86,0,3.07.02,3.64.06.57.04.97.12,1.2.26.19.11.31.25.37.43.06.18.1.51.12.99h5.1c0-.4.01-.67.01-.81,0-1.57-.3-2.68-.89-3.35-.59-.66-1.68-1.1-3.27-1.32-1.03-.14-2.81-.21-5.35-.21-3.59,0-5.98.09-7.15.26-1.17.17-2.04.57-2.61,1.2-.74.8-1.11,2.18-1.11,4.13,0,1.74.33,2.98.98,3.72.38.45.91.77,1.59.97.68.2,1.65.32,2.92.36.65.02,2.05.08,4.2.18,2.1.1,3.48.15,4.13.15.84.02,1.4.11,1.68.29.27.17.41.52.41,1.03,0,.71-.19,1.14-.58,1.3-.26.11-.62.17-1.06.2-.45.02-1.78.04-4.01.04-2.13-.02-3.39-.04-3.79-.07-.4-.03-.73-.12-.98-.29-.36-.24-.53-.79-.52-1.64h-5.1v.81h0ZM432.07,113.53h5.53v-6.27h11.88v6.27h5.53v-17.28h-5.53v6.18h-11.88v-6.18h-5.53v17.28h0ZM552.31,113.53h5.19l-.13-12.93h.92l6.52,12.93h4.37l6.52-12.93h.86l-.13,12.93h5.19v-17.28h-9.49l-5.14,11.21-5.14-11.21h-9.54v17.28h0ZM584.04,113.53h19.24v-4.15h-14.05v-2.77h13.24v-3.8h-13.24v-2.49h13.95v-4.06h-19.14v17.28h0ZM604.92,113.53h5.35l-.11-12.88h.57l9.09,12.88h9.15v-17.28h-5.35l.13,12.88h-.55l-9.05-12.88h-9.23v17.28h0ZM630.17,100.66h7.7v12.87h5.53v-12.87h7.68v-4.4h-20.91v4.4h0ZM656.41,96.28c-2.02.27-3.25,1.23-3.71,2.87-.31,1.12-.47,3-.47,5.63,0,2.77.16,4.72.47,5.85.46,1.64,1.69,2.6,3.71,2.87,1.4.18,3.98.28,7.75.28s6.24-.09,7.64-.28c2.02-.27,3.25-1.23,3.71-2.87.31-1.13.47-3.05.47-5.75s-.16-4.6-.47-5.73c-.45-1.64-1.69-2.6-3.71-2.87-1.4-.19-3.97-.28-7.7-.28s-6.3.09-7.69.28h0ZM668.75,100.63c.64.09,1.1.32,1.38.69.22.3.37.73.46,1.32.08.58.13,1.49.13,2.73,0,1.05-.05,1.8-.16,2.26-.11.46-.32.81-.62,1.04-.34.26-.86.43-1.56.51-.7.08-2.11.11-4.23.11-2.26,0-3.78-.05-4.57-.15-1.06-.13-1.7-.63-1.91-1.51-.11-.47-.16-1.24-.16-2.29,0-1.75.1-2.91.3-3.5.2-.59.63-.96,1.28-1.13.57-.14,2.24-.22,5.04-.22,2.45,0,3.99.05,4.63.13h0ZM683.31,113.53v-4.39h7.42c1.09,0,1.8.03,2.14.08s.61.18.8.39c.19.22.33.53.4.94.07.41.11,1.1.11,2.06v.92h5.19v-1.61c0-1.49-.04-2.47-.11-2.94-.08-.47-.25-.87-.53-1.2-.48-.55-1.27-.86-2.38-.95.94-.14,1.64-.4,2.1-.78.43-.35.72-.83.88-1.42.16-.59.23-1.51.23-2.77,0-1.49-.12-2.59-.37-3.28-.24-.7-.7-1.24-1.35-1.64-.55-.34-1.12-.53-1.71-.59-.59-.05-2.38-.09-5.37-.1h-12.72v17.28h5.26ZM683.31,100.57h7.39c1.22,0,1.95.02,2.21.04.26.02.48.07.66.15.26.13.45.33.55.61.1.28.16.7.16,1.26s-.05,1-.14,1.29c-.09.28-.25.5-.48.64-.18.11-.39.17-.64.2-.25.02-1.02.05-2.31.07h-7.4v-4.25h0Z"/>
      <path class="cls-6" d="M327.61,97.67c-1.69,1.63-2.53,3.66-2.53,6.09s.84,4.36,2.53,6.03c1.65,1.67,3.66,2.5,6.03,2.5s4.38-.83,6.03-2.5c1.69-1.67,2.53-3.69,2.53-6.06s-.84-4.39-2.53-6.06c-1.67-1.67-3.64-2.5-5.91-2.5-2.41,0-4.46.83-6.15,2.5h0Z"/>
      <path class="cls-6" d="M497.63,97.67c-1.69,1.63-2.53,3.66-2.53,6.09s.84,4.36,2.53,6.03c1.65,1.67,3.66,2.5,6.03,2.5s4.38-.83,6.03-2.5c1.69-1.67,2.53-3.69,2.53-6.06s-.84-4.39-2.53-6.06c-1.67-1.67-3.64-2.5-5.91-2.5-2.41,0-4.46.83-6.15,2.5h0Z"/>
    </g>
  </g>
</svg>