<?xml version="1.0" encoding="UTF-8"?>
<svg id="Layer_2" data-name="Layer 2" xmlns="http://www.w3.org/2000/svg" viewBox="0 0 773.41 112.79">
  <defs>
    <style>
      .cls-1 {
        fill: none;
        stroke: #ccc;
        stroke-width: 5px;
      }

      .cls-2 {
        fill: #fff;
      }
    </style>
  </defs>
  <g id="White_Logo" data-name="White Logo">
    <g>
      <g>
        <g>
          <path class="cls-2" d="M30.78,75.75c-.25-.3-.02-.7.03-.97-.18-.39-.7-.34-.71-.95.03-.11.09-.19.19-.24.47-.07.6.3.87.49.2-.52-.17-1.22-.08-1.92-.25-.18-.54-.32-.93-.33.09.36-.15.45-.21.69.06.29.38.25.37.62-.02.09-.08.16-.2.17-.33-.24-.73-.7-.59-1.26-.33-.12-.53-.4-.68-.73-.74.1-.95-.48-1.23-.97.03-.11.09-.19.19-.25.8.07.96,1.15,2,.65-.41-.43-.62-1.12-1.13-1.42.09.27.16.51-.07.67-.55-.11-.73-.69-1.54-.48-.36.77.45.97.63,1.56-.01.1-.11.13-.12.24-.47-.01-.74-.29-1.03-.54.13.79.07,1.98,1.01,2.25-.08-.39,0-.67.2-.84.97-.13,1.25,1.28.65,1.77.23.32.23.95.58,1.12.18-.41.18-.97.27-1.44,1.46-.15.19,2.21,1.51,2.12Z"/>
          <path class="cls-2" d="M37.6,75.24c-.03-.61-.18-1.06-.71-1.03-.03.37.27.99.71,1.03Z"/>
          <path class="cls-2" d="M80.83,52.48c-.27-.34-.79-1.66.51-1.32-.06-.37-.3-.51-.53-.68-.19.43-.4,1.03-1.08.87.3.46.76.71,1.1,1.13Z"/>
          <path class="cls-2" d="M84.2,66.53c-.15-.29-.17-.74-.47-.83,0,.46-.27.72-.47,1.02.06.32.27.44.38.7.22-.27.35-.61.56-.88Z"/>
          <path class="cls-2" d="M81.1,67.19c.58-.57-.04-1.36-.01-2,.82-.12.9.7,1.25,1.19.1-.58-.15-1.44-.18-2.13-.47.34-.79-.15-1.33,0-.16.31-.19.74-.4,1.01-.17.02-.34.04-.51.06-.16,1.05.97,1.03,1.18,1.86Z"/>
          <path class="cls-2" d="M39.32,74.07c-.02-.37-.35-1.07-.93-1,.18.5.61.69.93,1Z"/>
          <path class="cls-2" d="M79.77,55.35c.3-.06.61.21.91.19,1.06-.09,1.54-1.74,3.1-1.33-.24-.58-1.76-1.62-.06-1.77.03-.51-.38-.47-.53-.75-.18.5-.66.46-1.19.59.62.93.65,2.63-.93,2.18-.15-.22-.08-.39-.08-.66-.48-.26-1.01-.46-1.3-.96-1.4.12.33,2.61-1.17,2.58-.3,0-.37-.09-.56-.38-.11-.44.34-.44.27-.85-.44-.07-.79.47-1.1.72.09,1.04.88,1.18,1.58,1.44.39-.26.56-.91,1.06-1.02ZM80.25,53.97c.14.23.48.26.5.61-.5.83-1.48-.36-.5-.61Z"/>
          <path class="cls-2" d="M85.01,67.69c-.06-.34-.28-.65-.19-.94.6-.06.74.47.92.93.94-.94-.7-1.35-1.05-1.95-.04.63-.1,1.25-.23,1.81.18.05.37.35.54.16Z"/>
          <path class="cls-2" d="M48.25,53.83c-.02-.3.17-.44.13-.76-.62-.4-1.08.94-.13.76Z"/>
          <path class="cls-2" d="M48.49,52.76c.21-.08-.14-.59.07-.67-.05-.16-.36.01-.52-.01-.06.49.27.5.45.69Z"/>
          <path class="cls-2" d="M78.81,66.05c-.11-.4-.39-.57-.36-1.14-.34.15-.47.47-.41.94.16.17.55.37.76.21Z"/>
          <path class="cls-2" d="M49.61,52.18c-.26.15-.16.58-.35.78.1.09.27.11.46.09.11-.3.08-.57-.1-.88Z"/>
          <path class="cls-2" d="M56.23,35.55c-.49-.36-.63-1.16-1.59-.92.21.34.87,1.23,1.59.92Z"/>
          <path class="cls-2" d="M27.62,39.16c-.23-.02-.15-.03-.37.04.02.17.04.34.06.51.24-.08.31-.29.3-.55Z"/>
          <path class="cls-2" d="M56.58,37.21c-.14-.8-1.16-.85-1.28-1.4-.1.02-.21.04-.23-.05.08.53.96,1.48.49,2.24.3.35.44.9,1.13.76-.82-.24-.76-1.16-.11-1.54Z"/>
          <path class="cls-2" d="M57.49,46.14c-.12-.1-.38-.02-.59,0,.15.59-.26.73-.23,1.21.26.28.6.48.9.71.08-.56-.29-1.34-.08-1.92Z"/>
          <path class="cls-2" d="M48.34,37.08c.15-.21.14-.83.02-1.04-.36.07-.29.47-.52.65.08.23.25.36.49.39Z"/>
          <path class="cls-2" d="M84.2,64.6c-.13-.58.47-1.48-.4-1.51.19.65-.28,1.39.4,1.51Z"/>
          <path class="cls-2" d="M85.31,79.58c.05.57.48.96.97.7-.05-.25-.17-.41-.16-.72-.3-.01-.64-.28-.81.02Z"/>
          <path class="cls-2" d="M75.19,37.37c-.3.06-.3-.06-.51.06.41.32.73.75,1.16,1.05-.2-.39-.39-.8-.65-1.11Z"/>
          <path class="cls-2" d="M77.4,39.78c.15-.22.23-.48.2-.84-.55.27-.76-.37-1.17-.53-.28,0,.02.46-.16.54.43.21.8.5,1.14.83Z"/>
          <path class="cls-2" d="M86.58,77.21c-.15.89.93,1.25,1.42,1.31,0-.72-.56-1.4-1.42-1.31Z"/>
          <path class="cls-2" d="M82.35,81.56c-.03-.22-.05-.44-.08-.66-.53-.33-2.28.15-1.76-1.12-.13-.25-.44-.28-.52-.61-.28.35-.04,1.11-.43,1.38-.75.02-.82-.81-1.19-1.27-.01-.06.15,1.5.39,2.03.13.28.39.48.64.44.09-.94.67-.49,1.43-.47.11,0,.26-.14.36-.12.69.15.98.83,1.38,1.02.17-.04.11-.27.34-.26-.15-.18-.46-.15-.56-.38Z"/>
          <path class="cls-2" d="M71.08,38.97c.02.12-.03.2-.12.24.16.33.31.67.49.98-.13-.24.17-1.25-.37-1.22Z"/>
          <path class="cls-2" d="M83.52,77.64c-.49-.07-.76-.44-1.05-.76-.02.46.72,1.97-.17,2.32.1.27.33.36.64.37-.05-1.05.83-1.38,1.48-1.88-.11-.14-.25-.25-.41-.32-.29,0-.28.22-.49.28Z"/>
          <path class="cls-2" d="M71.23,40.88c.02-.28-.35-.78-.57-1.04-.38.42.37.8.57,1.04Z"/>
          <path class="cls-2" d="M85.69,93.46c.34-.04.42-.29.78-.31-.02-.29-.2-.36-.29-.56-.08.07-.18.12-.36.12-.62-.15-.14-.98-.38-1.36-.57.02-.34.66-1.04.57-.07.23.02.59-.05.82.7-.34,1.34-.07,1.35.73Z"/>
          <path class="cls-2" d="M74.15,38.01c.34.39.81.59,1.15.97,0-.42-.69-1.14-1.15-.97Z"/>
          <path class="cls-2" d="M56.39,3.73C26.68,3.73,2.5,27.36,2.5,56.39s24.18,52.66,53.89,52.66c11.23,0,21.66-3.38,30.3-9.14,0-.09,0-.18.03-.28.17-.08.3-.07.42-.03.49-.33.97-.66,1.45-1.01-.12-.18-.25-.35-.42-.47.05-.32.19-.56.19-.91-.92-.82.36-1.99.77-.98.09.21-.18.35-.14.68.04.31.3.44.3.63,0,.22-.25.35-.23.55.06-.01.11,0,.15.02.15-.11.3-.23.45-.34-.04-.29-.11-.57-.29-.75.1-.5.5-.76.76-1.13.04-.57-.04-1.22.17-1.65-.13-.18-.22-.39-.49-.39-.76.49-1.87-.17-2.33-.32-.02.25-.06.48-.06.75.63.29,1.84-.15,2.21.48-.93,1.26-3.09.57-3.69-.53-.48.39-1.02.74-1.17,1.4-.79.19-1.14-.18-1.47-.57.01.25-.18.34-.4.42-.69-.05-1.33-.87-1.01-1.66,1.17-.49,1.73.48,2.53.74.31-.46-.14-.87-.42-1.06-.14.11-.09.37-.4.34-.49-.28-.62-1-.79-1.68.03-.27.4-.26.46-.5-.33-.2-.31-.84-.77-.87.16.91-1.28,1.04-1.65.49-.24-.25.21-.42.21-.69-.2-.02-.22-.28-.47-.24-.25.68-1.28.59-1.69.13-.08-.33.24-.34.14-.68-.08-.29-.45-.22-.44-.61,1.77-.39,3.35.36,5.15.35,1.51-.01,2.67.9,4.17.84.97-.04,1.48-.17,2.1.2.62-.11.87.24,1.3.36.45,1.29-.22,2.76-.34,4.04.76.76-.24,1.41-.59,2.23,12.13-9.66,19.89-24.37,19.89-40.82,0-29.04-24.18-52.66-53.89-52.66ZM75.03,33.54c.56-.25.75-.9,1.07-.94.6-.07.92.72,1.08,1.58.56.02,1.18.22,1.19.67,0,.42-.46.25-.51.73,1.07,0,.93,1.59.32,2.04-.26,0-.16-.46-.23-.71-.92-.02-.86-.97-1.09-1.72-.44-.21-.84-.88-1.47-.57.07.26.25.7.11.95-.11.23-.53-.03-.58.14.23.21.35.56.67.66.23-.28.38-.63.47-1.02.37-.08.51.14.7.29.03.51-.11.89-.54,1.03.03.26.03.58.22.64-.03-.24-.2-.38.09-.46.83.23,1.04,1.26,2.01,1.32.1-.21-.1-.65.21-.69.56.07.71.93.69,1.47.48.5,1.67,1.21,1.08,2.24-1.15-.14-1.29-1.56-2.1-2.12-.17.47,0,1.19-.34,1.52.19.35.92,0,1.28.14.21.29.14.84-.03,1.04-.29.09-.39-.07-.67,0-1.19.68-2.36,2.02-4.08,2.41-.54.12-1.14.06-1.67.27-.83.32-1.35,1.47-2.09,1.73-.68.24-1.17.06-1.7.05-.88-.92-1.29-2.2-1.43-3.9-.14.09-.08.34-.33.34-.77-.74-1.78-1.6-2.16-2.56.45-.4.86.35,1.07.24-.09-.23.17-.17.18-.32-.24-.15-.48-.28-.59-.6.1-.21.22-.4.62-.37.86-.56,1.76-1.2,3.03-1.92.98-.55,2.02-2.01,2.94-2.05.77-.04.92.94,1.63,1.21-.2-.86-1.26-1.02-1.19-1.93.28-.16.76-.15,1.16-.21.1-.36.55-.45.96-.63ZM65.08,74.79c-.61.09-.67-.36-.87-.69.46-.55,1.14.22.87.69ZM65.43,75.05c1.02.1.13,1.42-.33,1.59-.74-.5.28-1.08.33-1.59ZM64.39,75.62c-.62.05-.99,1.37-1.56.63.33-.38.55-.85.89-1.22.35,0,.71.36.66.59ZM63.54,66.53c-.12-.16-.17-.4-.29-.56-1.18-.22-2.45-1.19-3.53-1.66-.43-.19-1.46-.3-1.02-1.14,1.22.19,2.04.89,3.18,1.18.17-.09.13-.34.4-.34.46.09.73.86,1.19.67-1.65-.67-.25-1.93.94-2.04.14.63.11,1.34.64,1.63,0,.31-.18.48-.29.7.32.18.62.5.4.91.19.04.31.17.54.16-.14-.86-.68-1.62-.03-2.14-.28-.48-1.22-1.61-.47-2.09.74.3.93,1.28,1.54,1.74.34.07.43-.05.8-.1.54.12.86,1.21.5,1.72-.48-.04-.73-.36-1.23-.37.38.4.11.93,0,1.33.46.09.7.45,1.24.45-.11-.19-.14-.49-.17-.79.15-.28.81-.41,1.09-.2-.09-.34.05-.49.14-.68.4-.19.58.32.82.05-.32-.63-.75-1.12-1.16-1.64-.78.08-1.17-.33-1.69-.54-.38-.15-1.01-.13-.95-.55,1.06-.2,2.14.75,3.37.34-.7.13-.97-.28-1.46-.42.02-.47-.14-1.08.22-1.29-.24-.2-.72-.09-.74-.58.79-.55,1.39.43,2.39.16.79.26.79,1.08.99,2.1.17.91.6,1.87.59,2.45-.02.8-.36,1.47-.2,2.1.12.45.64.98.58,1.78-.04.59-.39,1.3-.88,1.36-.73.09-2.4-1.61-2.89-1.88-1.61-.9-3.76-.79-4.59-1.83ZM61.58,71.07c-.38.19-.87-.03-.84-.61.35-.55,1.18.06.84.61ZM52.92,81.35c.96-.9.65-2.8,1.64-3.68.19.45-.02,1.47.07,1.84.25-.22.71-.28.9-.55-.2-.27-.55-.73-.37-1.22.56-.09.85.15,1.22.3-.17-.41.34-.6.26-.92-.09-.37-1.24-.74-.54-1.42.58.51,1.63,1.16,1.57,2.04-.02.33-.57.69-.82,1.21-.58,1.22-2.58,2.2-2.77,3.51-.2.18-.96.18-.82-.05.14-.04-.41-.58-.35-1.07ZM51.19,78.59c.68-.1.7.62.58,1.12.19.18.41.32.64.44.01-.62.17-.65-.06-1.1.31-.35.8-.04.74.58-.42.26-.09.85-.7.97-.62.13-1.08-.67-.83-1.38-.23-.07-.38-.25-.37-.62ZM51.25,96.41c-.74.1-.85-.49-.67-.85.15-.02.29-.03.43-.04-.17-.18-.24-.39.08-.54.42.11,1.1.65.39.89-.03-.01-.06-.03-.1-.06.04.2.11.4-.13.6ZM49.96,95.35c-.47-.02-.82-.37-.64-.75.06-.05.28-.12.49-.14-.09-.1-.16-.22-.2-.38.05-.03.08-.08.05-.18.53-.42,1.17.32.75.76-.11.01-.21,0-.3-.01-.02.25.26.55-.16.71ZM49.05,98.43c-.66.04-.91-.29-.94-.81.53-.25.98.27.94.81ZM48.15,94.8c.66-.17,1.11.49.79.88-.49-.03-.94-.4-.79-.88ZM48.75,95.99c.5.12,1.14.59.76,1.03-.69.07-.94-.56-.76-1.03ZM50.46,84.97c-.47-1.03-1.24-1.68-1.66-2.77,1.04-.53,1.07,1.59,1.86,1.93.08-.18.03-.47.31-.48.3.19.63.32.62.89-.56.03-.46.39-1.13.43ZM45.74,95.09c.03.44-.23.86-.73.68.05.24-.05.36-.25.4-.18-.36-.42-.64-.5-1.13.28-.17.43-.18.61-.52.38-.03.39.41.59.6.04-.43.24-.74.47-1.02.26.2.53.65.42,1.06-.31.12-.38-.08-.6-.08ZM45.85,97.19c-.4-.1-.87-.11-.84-.72.54-.47,1.15.15.84.72ZM37.34,90.38c.11-.02.11-.11.26-.1.25.27.97.89.43,1.21-.4-.15-.91-.58-.68-1.11ZM37.14,89.23c.21-.02.41-.04.62-.07.24.14.23.53.27.86-.86.23-1.03-.41-.9-.79ZM37.49,88.03c-.21-1.2,1.32-.59.77.18-.39.11-.63.03-.77-.18ZM38.52,88.24c1.02-.28.82,1.15.36,1.3-.37-.28-.78-.9-.36-1.3ZM39.37,85.56c.2.15.28.69.13.88-1.07.29-1.11-.94-.13-.88ZM39.42,99.44c-.11.03-.07.18-.13.25-.51.04-.7-.32-.81-.77.42-.3.87.08.93.52ZM39.04,89.81c.69-.04,1.05.57.92.95-.75.05-.68-.57-.92-.95ZM39.54,87.16c.2-.05.16-.23.51-.2.13.34.6.58.36,1-.52-.07-.86-.29-.87-.8ZM40.26,85.2c.46-.51,1.17.16.85.7-.33.05-.53-.08-.78-.13-.02-.19-.04-.38-.07-.56ZM40.6,88.75c.39.37.61.69.5,1.21-1.17,0-.47-.79-.93-1.18.14-.01.28-.02.42-.04ZM41.32,98.77c-.41.13-.99-.24-.94-.82.77-.16.88.31.94.82ZM40.85,87.16c-.38-.09-.55-.7-.37-1,.92-.24,1.16.92.37,1ZM41.23,83.92c-.27-.1-.1-.76-.46-.76-.03,1.16-.66,2-1.51.99-.13-.41.06-.57.04-.89-.14-.02-.2-.14-.38-.1.01.41-.24.81-.5.8.18.31,1.05.93.38,1.29-.32-.22-.95-.98-.47-1.43-.25-.27-.47-.58-.89-.64,0,.06-.05.09-.14.09.04.32.12.67-.05.82-.71.12-.8-.55-1.59-.33-.21.19-.24.52-.43.72-.37-.06-.61-.29-1-.33.15.29.66.48.48.91-.51.03-.77-.26-1.09-.46.03.24.09.51-.16.54-.49-.27-1.12-.37-1.31-1.03.13-.29.87-.11.91-.48,1.34-.18,2.65-.33,3.68-.81.46-.21.78-.59,1.25-.74,1.61-.52,3.11-1,4.68-1.74.68.65,1.31,1.36,1.5,2.64.54.11,1.37,1.12.78,1.61-.43.05-.27-.66-.8-.5-.24.19-.01.74-.42.79-.56.01-.48-.79-.8-1.09-.55.49-1.09-.6-1.69.13ZM37.06,85.46c-.53-.04-.78-.4-.94-.86.51-.5.99.2.94.86ZM35,90.04c-.56.09-.82-.14-.83-.65.39-.58,1.2.11.83.65ZM33.82,87.47c.63-.12.87.2.88.78-.49.29-1.12-.26-.88-.78ZM33.73,90.67c-.15.05-.18.18-.38.19-.37-.1-.66-.55-.52-.98.65-.15.86.22.9.79ZM32.66,85.98c.44-.35,1.18.26.77.75-.56.19-.91-.31-.77-.75ZM30.3,84.25c.5-.16.57.22.86.34-.03-.16.03-.24.19-.25.4.24.99.96.77,1.46-.27.03-.35-.17-.55-.23-.05.11-.02.29-.27.25-.39-.44-.7-.96-1.06-1.43.06-.02.08-.07.06-.16ZM32.3,86.83c-.11.04-.07.19-.13.27-.55.15-.77-.12-.8-.66.28-.4.92-.14.93.39ZM39.91,33.48c-.11.11-.22.22-.49.21-.28-.24-.63-.38-.63-.96.51-.21,1.06.14,1.19.67.16-.37.62-.84.16-1.13.97-.46.77,1.06.14,1.17.16.19.43.23.64.37.24-.86,1.16-.24.97.7-.93.06-.64,1.19-1.37,1.57-.72-.46.28-.98.27-1.51-.39-.23-.71-.56-.87-1.08ZM39.06,43.14c-.91.49.07,2.48-1.24,2.67-.26-.43.06-1.1-.18-1.53-.27.07-.47.03-.6-.08.11-.6-.25-1.05-.09-1.4.51-.15.48.4.86.42-.19-.57.32-.58.33-1-.34-.25-.91-.19-1.3-.36,0,.3-.16.49-.45.57-.36-.11-.48-.51-.5-1.05-.14-.23-.51-.26-.52-.61-.01-1.07,1.3-.04,2.08.05.52.06.93-.18,1.32-.08,1.26.32-.14,1.34.29,2.41ZM28,42.38c-.29.08-.42.28-.7.38-.24-.09-.39-.64-.26-.93.29-.12.3.12.53.09-.08-.46.47-.06.49-.21-.23-.1.02-.37.09-.46-.19.01-.17-.23-.2-.42.33-.16.59-.38,1.06-.42.33.76.02,1.34-.19,2.17-.38.22-.5-.13-.84-.2ZM28.37,45.44c-.07.47-.53.64-1.02.79-.03-.08-.09-.1-.16-.13.02-.49.24-.83.54-1.1.29.06.36.39.64.44ZM31.63,43.58c-.52.07-.81-.14-.95-.55-.06-.31.32-.28.3-.55-.11-1.06-1.24-.34-1.66-.91.13-.46.92-2.11,1.52-.92-.39.16-.69.38-.8.76,1.04.06,1.97,1.1,1.59,2.18ZM35.16,41.53c-1.58.27-1.36-2.04,0-1.85.26.33-.04.69-.11.98.25.22.35.63.1.88ZM35.61,42.21c-.38.25-.16.98-.6,1.18-.54-.07-.4-1.01-.62-1.48.33-.36,1.02-.03,1.22.3ZM34.11,42.02c-.11.15-.44.14-.48.35.2.98,1.04,1.15,1.41,1.91-.59.32-.9-.83-1.51-.26-.15-.12-.24-.31-.42-.39-.19.39-1.04.38-1.12-.09,0-.4.51-.39.33-.93-.47-.27-.93-.56-.98-1.37.52-.71,1.04.21,1.26.66.07,0,.15-.02.22-.03.21-.1.09-.46.3-.55.48.04,1,.02.97.7ZM30,43.12c-.45-.05-.86-.15-1.1-.62.32-.31,1.3-.58,1.1.62ZM29.7,46.03c-.19.73-1.26.08-1.23-.37.04-.7,1.02-.27,1.23.37ZM29.57,43.74c.12-.01.24-.03.37-.04.1.63.44.95.49,1.65-.9.93-1.11-1.19-.86-1.6ZM30.98,46.24c0-.66-.05-.96-.04-1.55.85-.55,1.67.75,2.67.05.42.14.6.59.98.77-.03-.27.06-.44.15-.61.58.08.48-.37.83-.47.25.04.4.23.56.38.08.37-.27.4-.12.83.17,0,.31.05.46.09.05-.23.1-.45.14-.68,1.41-.25,1.17,1.6,1.7,2.47-.2.55-.94.55-1.57.48-.72.87-1.52.13-2.3-.02-1.64-.32-3.9.14-4.7-.92.13-.49.86-.52,1.24-.81ZM35.68,42.8c.44-.46,1.34.54.95,1.15-.69.09-.77-.59-.95-1.15ZM38.15,35.47c-.78-.66-2.08-.66-2.76-1.45-.73.6-2.96-.41-2.87-1.07.08-.53.77-.28,1.04.02-.01-.21.09-.33.33-.34.9.23,1.55.77,2.36,1.13,0-.31.16-.49.53-.51.24.73.53,1.64,1.35.8.44.2.53.83,1.07.91-.06-.29-.03-.51.23-.55.34.27.77.86.68,1.4-.41.18-.32-.26-.55-.3-.47.28-.82-.43-1.41-.05ZM31.42,31.82c.08.5.55.67.29,1.15.26.17.56.3.61.74-.66.16-1.35-.29-1.66-.84.25-.35.11-1.01.76-1.05ZM30.77,30.12c.36-.1.52.07.76.13.22.44.14,1.29-.36,1.3-.52.01-.65-.91-.39-1.44ZM32.07,31.67c.13-.25.7-.26.9-.11.01.39-.04.74-.43.81-.24-.12-.48-.25-.46-.7ZM34.34,25.25c-.02.34-.48.48-.7.31-.05-.57.21-.89.28-1.37.6.02.74.44,1.34.06.49.17,1,1.09.48,1.57-.18.23-.4-.21-.68-.14.19.49.84.4.8,1.16-.1.05-.16.14-.19.25-.48.06-.69-.03-1.1.13-.37-.37-.69-1.5.11-1.57-.17-.06-.17-.34-.34-.4ZM34.19,22.75c.31-.11.27.22.54.16.39-1,1.39-.03,1.61.48-.26.56-1,.05-1.6.26-.16.32-.75.29-1.13.43-.03-.08-.09-.1-.16-.13-.08-.44.13-.65.59-.66-.06-.27.1-.36.16-.54ZM37.89,23.94c-.2.34-.73.32-1.02.12-.06-.77-.53-1.64-.82-2.57.44-.55,1.28-.05,1.27.74-.13.21-.39.31-.37.64.28.41.97.28.94,1.07ZM38.29,19.22c-.42.34-.81-.16-.95-.59.3-.46.85,0,1.01.4-.06.03-.08.08-.05.18ZM38.49,21.5c-.44-.16-.64-.64-.93-1,.33-1.14,1.9.47.93,1ZM40.43,17.86c.75-.29.69.71.83,1.38-.65.17-1.11-.23-1.04-.69.18-.11.45.09.44-.05.2-.3-.3-.24-.22-.64ZM46.16,18.07c.87.09.62.74.71,1.62-.42-.04-.68-.58-.57-1.04-.26-.57-.68-.78-.86-1.6.12-.23.47-.2.66-.08,0,.35-.03.69.06,1.1ZM52.03,20.12c.38.02.55.3.67.66-.28.42-1.03.47-1.06,1.09.45.31-.13.65-.04.89.09.27.8.26.71.95-.08.03-.1.09-.13.16-.79.16-.96-.46-1.16-1.05.38-.47.4-1.23.51-1.91.1-.17.44-.14.56-.29,0-.23-.21-.33-.06-.51ZM52.05,17.67c1.05-.23,1.16.94.4,1.07-.03-.05-.11-.08-.24-.05-.37-.26.02-.63-.16-1.02ZM58.55,20.16c-.77.07-1.17-.65-1.06-1.43-.29-.25-.7-.35-.83-.79.65-.78,1.22.76.97,1.29.38.18,1.13.29.92.93ZM56.9,22.43c.91-.08,1.23.52,1.4,1.17.2-.15.09-.55.53-.51.27.53-.59,1.08-.25,1.66.6-.31.27-1.68,1.23-1.48-.09.81-.51,1.34-.17,2.32-.48.62-1.18.05-1.26-.59-.28.27.12.38.1.8-.44.08-.92.59-1.38.24-.16-1.03,1.28-.8,1.03-1.9-.53-.31-.4-1.46-1.2-1.41.04.37-.22.49-.36.71.48.2,1.01.35,1.22.89-.07.19-.2.33-.48.35-.36-.53-.96-.74-1.2-1.41.27-.27.46-.61.79-.83ZM61,24.54c.21,0,.39-.71.85-.32,0,.14.1.15.11.28-.47.18-.32.85-1.01.86-.09-.72-1.18-.54-1.04-1.28.65-.12.71.48,1.09.46ZM60.43,21.57c.38-.86,1.14.29.99.85-.5-.06-.82-.37-.99-.85ZM63.51,28.24c.49-.29.79.24,1.16.38.34-.02.28-.35.54-.43.19.09.36.21.43.47-.06.02-.08.07-.06.15-.34.11-.66.23-.91.4-.16-.07-.31-.17-.47-.24-.21.21-.29.52-.59.66-.36.07-.44-.23-.83-.12,0,.07-.05.09-.06.15.12.31.25.52.1.8-.12.01-.24.03-.37.04-.14-.41-.45-.6-.5-1.13.32-.12.7-.53,1.29-.38-.05-.37.33-.4.28-.77ZM63.44,27.65c-.05-.42.21-.58.34-.86.42,0,.85-.02.87.49-.24.45-.69.62-1.22.37ZM65.61,20.95c.6-.3,1.02.88.27,1.01.04.17.02.28-.03.37-.46.14-.49-.28-.53-.68.25-.22.51-.25.29-.7ZM66.73,22.23c.58-.54,1.08.63.96,1.22-.3.1-.31-.16-.47-.24,0,.31-.11.53-.37.64-.55-.14-.77-1.17,0-1.26,0-.18-.15-.14-.12-.36ZM68.59,22.92c.5.06.65.83-.02.9.26.34.3.87-.03,1.23-.61.04-.91-.3-.93-1,.15-.18.37-.3.54-.46-.1-.26.12-.58.44-.68ZM70.22,27.37c-1.01.55-1.36-1.16-1.57-1.96.16-.23.5-.32.92-.33,0,.48.84.95.3,1.3-.27.09-.1-.38-.4-.25,0,.11-.11.14-.12.24.12.55.61.63.86,1.01ZM69.35,28.73c.42-.67,1.14.11.97.7-.34.15-.43.5-.98.49-.22-.41.35-.64,0-1.19ZM68.29,55.38c-1.45,1.22-2.99-.62-4.52-.65-.5-.18-1.08-.59-1.83-1.04-1-.61-2.56-.93-1.53-2.26-.25-.11-.43-.29-.84-.2-.44.33.25.83-.08,1.19-.76-.46-1.74-.65-2.7-.87-.18-.85-1.17-1.07-.99-2.1.37-.14,1.16-.26.72-.83-.27.1-.26.41-.7.38,0-.58-.4-1.02-.49-1.65-.06-.37.17-.77.09-1.12-.07-.31-.42-.54-.47-.83-.28-1.81,1.72-.53,2.56-.3.37.1.63-.08.91.19.13.41,0,.95-.05,1.41.29,0,.63.33.81-.02.22-.51-.41-.58-.36-1.14.68-.14,1.35.32,2.07.57.68.23,1.41.54,2.09.72.76.2,1.94.13,2.52.66.55.51.72,1.31,1.01,2.25.35,1.15.99,1.84,1.04,3.14-.01.3-.32.37-.37.64.48.49.93,1,1.11,1.87ZM54.76,74.98c.07-.08.13-.16.19-.25.38-.15.34.24.68.14-.02-.21-.1-.47,0-.59.31-.03.56.01.76.13.05.26.04.48,0,.67-.24.17-.33,0-.59,0-.14.2-.22.44-.45.57-.3-.1-.57-.23-.6-.67ZM54.86,77.2c-.49.03-.9-.91-.24-1.01.46.04.9.86.24,1.01ZM54.69,73.8c-.14.59-.78,1.08-1.43,1.06-.02-.05-.02-.14-.09-.14.44-1.35,2.3-1.46,2.88-2.56,0-.06.05-.09.14-.09.26.11.35.62.26.93-.65.22-.97.69-1.76.8ZM46.66,69.13c-.75-.25-1.7-.25-1.73-1.43.34-.11.38-.46.67-.6.23-.04.27.17.53.09.33-.29.1-1.03.6-1.18.28.45.81.95.78,1.54-.32.16-.5.06-.88.1-.11.4.15,1.09.03,1.48ZM42.38,86.39c-.07.02-.19.02-.18.09-.45-.03-.67-.29-.68-.74.41-.47,1.16.19.86.65ZM41.59,84.47c.25-.82,1.29-.14.97.7-.05.02-.14.02-.14.09-.55.09-.65-.41-.83-.79ZM42.2,86.94c.42.32.14.85-.39.93-.67-.28-.08-.76.39-.93ZM42.8,88.61c-1.49-1.52,1.67-.84,0,0h0ZM42.89,86.09c.06-.02.09-.07.06-.16.76-.5,1.09.55.7.96-.3-.21-.71-.3-.76-.8ZM43.54,87.65c.26-.1.46-.03.6.11-.06-.4.02-.89.06-1.23,1.12-.22,1.66,1.84.37,1.88-.12-.04-.2-.12-.26-.21,0,.17-.1.32-.3.36-.36-.08-.56-.34-.62-.75.09-.03.12-.1.15-.16ZM44.07,84.77c.39-.4.93.2.98.77-.08.03-.1.09-.13.16-.42.02-.55-.05-.82-.05.32-.18-.05-.56-.03-.89ZM45.26,85.15c.8-.17,1.21.9.4,1-.26-.21-.67-.64-.4-1ZM44.38,70.51c-.76.34-.71-.91-1.11-1.28.6-.22,1.34.69,1.11,1.28ZM43.23,62.05c-.01-.49-.4-.5-.41-.99.35-.42.85.06.95.48-.08.25-.35.34-.53.51ZM44.18,56.98c.11-.2.71-.01.7-.31-.04-.3-.27-.67-.11-.95.37-.1.54.04.89-.03.3-.59.43-1.91-.02-2.66-.24.12-.05.58-.21.77-.06.18-.53.03-.57.22-.1.3.04.78-.42.79-.43-.07-.39-.73-.96-.63-.09.02-.09.11-.21.1-.12.43.22,1.23-.12,1.5-.7-.09-1.02-.67-1.4-1.17.22-.55.97-.7,1.27-1.19.11-.45.17-.92.53-1.17.26-.05.37.09.6.08,1.09-.76.6-4.61,3.04-3.69.85-.21.49-.96.85-1.58.32-.54,1.42-.48,1.72-1.09.11-.22-.09-.43.14-.68.95-.31,1.25.83,1.52,1.6.4,1.11.66,1.88.78,2.87-.32.8-1.24.44-1.5-.19.36-.56-.32-1.32-.72-1.69-.44.25-1.13.3-1.24.81.28.29.28.93.65,1.11.18-.12.2-.37.47-.43.6.22,1.42.92.95,1.74.2.17.56.58.73.51-.08-.28.05-.41.16-.54.59.2.82.86,1,1.58-.3.78-1.43.1-1.94.53.05.24.17.41.16.72-.5.74-1.66.39-2.18,1-.24.29-.22.78-.46,1.09-.36.46-.89.71-1.52.92-.3.3-.23,1.23-.26,1.51.2-.61.31-1.3,1.09-1.46.51.71-.66,1.13-.59,1.92-.6.25-1.46.2-2.05.17-.33-.55-.84-1.26-.76-2.06ZM38.57,31.57c-1.03-.05-.25,1.65-1.4,1.28-.04-.69.73-.75.88-1.29-.13-.12-.18-.58-.09-.73.44-.08.55.26.66.59-.06.02-.08.07-.06.16ZM35.64,29.25c-.24-.39.14-.81.6-.95.45.3.18,1.02-.6.95ZM36.41,26.93c.77-.27,1.03.59.62.89-.49,0-.94-.49-.62-.89ZM36.1,31.34c-.07-.59.16-.93.36-1.3.19-.02.41-.08.52.01-.14.55-.21,1.16-.88,1.29ZM36.79,32.46c-.26,0-.21.16-.52.12-.03-.05-.1-.08-.22-.05-.25-.32,0-.76.28-.99.32.17.66.53.46.92ZM36.77,28.89c-.01-.25.18-.34.39-.42.13.54.8.38,1.18.6.07.27.03.47-.08.6-.45.07-.73-.08-1.06-.17-.03-.18-.05-.35.02-.45-.25.07-.33-.08-.46-.17ZM38.59,27.93c-.28-.05-.51-.16-.64-.39,0,.01,0,.03-.01.04-.55.06-.74-.29-.88-.7.23-.34.66-.12.84.2.36-.31.92.04,1.02.45-.09.15-.19.29-.32.41ZM39.69,30.46c-.12.1-.16.28-.42.24-.29-.11-.4-.5-.53-.86.35-.04.93-.15.95.61ZM40.37,26.69c.41-.21.92.11,1.03.64-.34.44-1.02.02-1.03-.64ZM40.52,29.02c-.56.09-.79-.23-.86-.74.47-.41,1.15.21.86.74ZM40.97,25.3c-.03-.06-.08-.08-.17-.06-.48-.45.52-1.28.76-.62-.15.26-.29.52-.59.67ZM40.65,24.1c-.19-.31-.72-.36-.68-.84.23-.02.45-.04.68-.06.13.2.5.79,0,.91ZM40.21,21.82c-.3.07-.51.04-.65-.07-.03-.59.31-1.41.86-.84.07.4-.1.63-.21.91ZM40.36,26.77c-1.01.52-1.1-1.02-.78-1.32.45.23.59.8.78,1.32ZM40.41,32.04c-.58.09-.76-.3-.9-.71.38-.48,1.09.25.9.71ZM40.61,29.99c-.01-.1-.02-.19-.03-.29.07,0,.15-.02.22-.03.48.37.21,1.14-.24,1.14-.52,0-.68-.86.05-.82ZM40.83,28.73c.5-.37,1.14.17.84.65-.15.01-.23.07-.31.13-.25-.18-.56-.29-.53-.78ZM41.99,30.43c.47.3.12.92-.44.93-.02-.17-.26-.08-.23-.33.12-.28.43-.42.67-.6ZM44.26,22.08c.79-.19,1.47,1.54.34,1.59-.02-.05-.07-.08-.15-.06-.41-.4,0-.92-.18-1.53ZM51.4,24.79c-.74-.29-1.27-.85-1.54-1.74.1-.14.28-.22.57-.22.28.18.31.55.18.87.24.35,1.21.44.8,1.09ZM55.69,25.98c-.5.2-.48.82-1.07.94-.15-.34.07-.6-.13-1.1.31-.36,1.24-.97,1.2.15ZM55.55,24.22c.42-.39,1.19,0,1.19.67-.08.03-.1.09-.13.16-.67.13-.9-.31-1.06-.84ZM54.42,25.72c-.56.15-.77-.24-.86-.8.32-.03.7-.16.88.01.05.31.08.61-.03.78ZM53.22,24.03c-.01-.31.11-.47.15-.73.45-.08.73.13.81.7-.23.38-.56,0-.96.04ZM53.4,26.5c-.56.13-.84-.08-.83-.63.36-.57,1.2.02.83.63ZM53.25,24.16c.05.77-.5,1-.89.7-.02-.22-.04-.45-.06-.67.36-.23.64-.03.96-.03ZM53.16,27.17c.17-.24.21-.58.75-.53.33.4.51.97,1.15.97.28-.11.05-.62.44-.65.4-.03.65.13.79.42,0,.24-.28.27-.31.48.38.17.7.39,1.29.29-.08-.33-.21-.62-.04-.87-.21.18-.49.26-.67.03-.25-.74.82-1.1.92-.43-.03.14-.12.27-.24.38.64-.19,1.3.1,1.32.59.02.48-1.18,1.06-.68,1.78-.46.44-1.2.16-1.43-.2-.05.16-.26.19-.49.21-.86-.2-1.31-.91-2.52-.66-.22.03-.3-.12-.46-.17.01.28-.12.44-.22.62-.63.15-1.06.42-1.65.49-.92.11-1.61-.32-2.2-.41-1.22-.18-1.57.56-2.27.86-.27.12-.6.06-.87.18-.63.28-.81.83-1.26,1.26-.66.71-1.98.94-2.06-.5.32-.23.69-.43,1.04-.64.25-.03.49.38.62.22.26-.53-.33-.62-.41-.99.4-.34,1.21-.51,1.87-.44.03-.4.03-.82.41-.94.41.28.97.61,1.58.18-.13-.22-.32-.37-.31-.78.94-.5,1.17-2.02,2.69-1.65.46-.61,1.46-.56,1.72.17.66.03.77.76,1.49.71ZM61.1,27.86c-.4-.05-.48-.51-.56-.97.1-.25.5-.27.44-.65.53-.05.87.13.9.71-.13.19-.17.44-.54.43.06.27,0,.44-.24.47ZM60.79,25.89c-.16.19-.59.26-.87.18-.19-.38,0-.71.02-1.11.42-.17.81.28.91.78-.06.02-.08.07-.06.15ZM60.04,27.02c.43.92,1.67,1.24,1.69,2.39-.51.14-.5-.38-.8-.5-.76-.16-2.5-1.46-.89-1.89ZM58.16,39.32c.1.19.25.63-.07.67-1.84-.63-4.22-1.32-5.27-3.23.15-.36.89-.08,1.01-.19-.11-.48.12-.97-.28-1.15-.24.12,0,.62-.45.57-.43.04-.5-.62-.41-.99-.31-.31-.78-.41-.8-1.09.1-.14.28-.22.57-.22.23-.41.35-.97.76-1.13,1.07-.42,1.9.74,2.76,1.38.94.7,1.9.92,2.11,2.19.74.07.97.92,1.43,1.46.28.33.78.54,1.07.91.72.91,1.52,2.43.62,2.74-.49.17-.97-.22-1.38-.36-.62-.21-1.32-.12-1.3-.96.09-.13.37-.11.58-.14-.26-.23-.51-.48-.95-.48ZM53.52,59.5c.02.17-.41.69-.51.73-.6.24-1.28.87-1.67.87.07-.78.94-.94,1.22-1.55-.21-.88.91-.46.96-.04ZM60.52,32.37c.5-.44,1.43.67,1.11,1.28-.44-.33-1.02-.49-1.11-1.28ZM60.83,31.89c-.13-.31-.33-.54-.47-.83-.19.32-.74.47-1.13.43-.23-.8-1.28-.56-1.43-1.46.17-.29.63-.34.57-.81.22-.03.44-.05.66-.08-.07-.23,0-.35.01-.52.62-.28,1.09.17,1.04.62-.08.71-1.23.29-1.45.91.51.05.79.4,1.25.52.3-.47,1.34-.36,1.43.2.4.01.58-.22.88-.1.02.17.04.34.06.51-.67.05-.68.61-1.41.61ZM58.83,27.46c-.06-.57-.48-.68-.59-1.19.49-1.04,1.95,1.05.59,1.19ZM45.6,42.73c-1.4.44-1.36,2.02-2.83,2.41-.52-.53.18-1.04.43-1.38-.07-.76.61-1.45.62-2.3,0-.29-.19-.58-.18-.87.03-.68.58-2.07,1.16-2.06.22.33.07.94,0,1.26.34.24.82.3.98.77.08-.66.64-.95,1.27-1.19.09-.28-.23-.77.11-.98-.25-.16-.7-.07-.73-.51,0-.26.42-.19.55-.36-.08-.23-.18-.45-.49-.39.18.5-.48.72-.76.46-.05-1.83,1.64-2.29,1.99-3.79.72-.13,1.14.12,1.53.41.17.55-.29.61-.16,1.13.61.95.28,2.63.9,3.82-.32.35-.79.22-1.37.31-.15.24-.2.55-.35.78-1.22.34-1.31,1.53-2.12,2.1-.56-.3-.21-1.24-.5-1.72-.24.16-.64.2-.76.46.07.75.74.74.71,1.62ZM45.02,38.43c.47-.5,1.41.1,1.51.86-.11.19-.42.22-.65.15-.05.27-.2.46-.61.44-.1-.51-.04-.87-.25-1.45ZM43.99,27.22c.36-.19.81.17.89.58-.07.08-.14.17-.21.25-.48.06-.83-.42-.67-.83ZM43.92,26.84c-.27-.09-.43-.31-.44-.72.32-.37.88-.12.93.41-.13.13-.18.33-.49.32ZM47.19,26.77c.16.27.42.63.19.94-.72.25-1.45.25-2.16.55-.1-.15-.22-.28-.22-.57.34-.23.64-.81,1.18-.66-.06-.8.55-.2,1.01-.27ZM46.77,25.57c.71-.24,1.01.42.81.81-.69.16-.99-.37-.81-.81ZM48.03,25.17c.17-.57.84-.48.91.21.28-.52,1.11-.87,1.45-.4-.12.24-.58.2-.93.26.04.34-.11.53-.45.57-.03-.08-.09-.1-.16-.13,0-.01,0-.02,0-.04-.45.11-.68-.11-.82-.48ZM52.19,26.23c-.54.05-.83-.22-.87-.84.61-.18,1.13.33.87.84ZM49.23,21.5c.36-.3.81.02.93.41-.15.7-.94.3-.93-.41ZM48.58,24.15c-.42-2.1,2.14.19,0,0h0ZM48.49,22.36c-.59.13-.91-.42-.73-.85.56-.1.68.3.88.6-.12.03-.08.18-.15.25ZM47.17,20.46c.3-.46.94-.26.93.43-.29.44-.9.19-.93-.43ZM47.68,24.35c-.22.17-.53.39-.89.26-.04-.34.03-.61.13-.85.49-.1.7.15.76.59ZM46.88,23.13c-.49.08-.72-.2-.8-.72.27-.34.9-.09.93.52-.09.03-.11.12-.14.2ZM46.35,26.39c-.1.05-.19.11-.25.2-.51.05-.77-.47-.66-.87.53-.05.89.1.91.67ZM44.89,24.22c.52.02.92.19.95.84-.63.17-.97-.57-.95-.84ZM44.39,24.88c-.3.1-.35.37-.77.38-.18-.29-.15-.62-.11-.88.12-.14.47-.11.72-.15.15.11.12.42.16.65ZM44.29,28.48c.08.35.04.59-.08.76-.47.11-.52-.38-.79-.55.13-.32.6-.45.87-.21ZM43.67,29.05c.08.56-.33,1.11-.86.89-.03-.55.39-.74.86-.89ZM42.57,28.35c-.2-.33.08-.75.42-.93.71.12.45,1.26-.42.93ZM42.86,30.46c-.16.1-.21.28-.55.25.13-.46-.16-.41-.37-.69.29-.42,1-.19.92.44ZM47.12,65.52c1.09-.55.9-2.12,2.31-2.42-.07-1.15,1.14-.91,1.2.15-.15.02-.29.03-.44.05.12.09.15.4.06.51-.31.05-.42-.08-.66.08-.21,1.09-1.03,1.71-1.14,2.88-.83.08-1.33-.28-1.33-1.25ZM49.09,66.54c.45-.01.72.2.82.64-.17.34-.67.66-1.04.64-.01-.5.06-.92.22-1.29ZM50.04,68.28c.24-.02.3.17.6.08.15-.17.36-.29.38-.56-.27-.19-.41-.55-.42-1.06.53-.28.89.23,1.43.2.04-.63.67-.8.64-1.48.22-.13.46.13.51-.06.14-.51-.37-1.29-.22-1.83.72.09.93.84,1.15,1.57.28-.15.16-.62.67-.6.3.25.23.84.06,1.1-.35.17-.62.39-1.05.49-.34.18-.4.87-.66,1.34-.42.75-1.97,1.5-2.56,2.16-.26.29-.31,1.01-.85.92-.48-.08-.48-1.11-.69-1.47.38-.23.76-.46,1.02-.79ZM50.84,77.52c.15-.13.26-.48.44-.65.18-.16.41-.18.49-.28.44-.59.19-1.04.74-1.27.31.05.59.15.65.52-.09.22-.23.39-.21.69.25.31.68.55.42,1.06-.46-.23-.56-.92-1.15-.97-.53.38-.71,1.03-1.16,1.47.05.57-.32.81-.77.98-.32-.13-.49-.48-.46-.76.05-.41.64-.46,1.02-.79ZM63.21,35.09c-.36-.58-1.45-.23-1.48-1.23.16-.27.62.1.64-.22-.18-.64-.76-.77-.91-1.45.05-.41.78-.45,1.01-.19,0,.54.23.78.61.82.27-.05.22-.35.63-.3.23.19.26.88.66.59-.05-.27-.28-1.1-.03-1.48.28-.19.47.1.82.05.16-.07-.03-.42.25-.4.1-.01.19-.02.29-.03.29.12.03.45.22.64.63.17.85-.33.5-.8.26-.23.42-.55.56-.88.58-.2.6.31,1,.33,2.16.27.17,1.65-.85,2.18-.69.36-1.69.83-2.22,1.3-.44.39-.85,1.25-1.72,1.09ZM63.86,29.9c.93-.15,1.28,1.63.06,1.1,0,.28.03.6-.38.56-.07-.4-.24-.71-.27-1.01.26,0,.4.04.58-.14-.13-.21-.07-.32.01-.52ZM63.38,31.97c-.73.11-.93-.51-.79-1.03.7-.13,1.08.68.79,1.03ZM67.56,26.8c-1.5.07-.19-1.91.43-.72-.37,1.11,1.1.9,1.19,1.93-1.1.9-1.21-.6-1.63-1.21ZM66.69,30.01c-.22.18-.43.37-.68.53-.18-.06-.24-.26-.41-.32.03.38.06.75-.35.78-.21-.49-.47-.91-.75-1.32.19-.23.37.02.53.09.06-.1.04-.28.1-.38.76-.44,1.36-.25,1.56.63ZM62.61,26.86c-.03-.08-.09-.1-.16-.13.07-.52.04-.54-.19-.94.36-.31,1.11.1,1.13.76-.29.08-.44.27-.78.31ZM63.13,27.54c.02.05.02.14.09.14,0,.58-.67.96-1.15.95-.17-.29-.39-.51-.41-.99.49-.17.9-.08,1.47-.1ZM59.33,21.1c-.14-.51.2-.64.25-.99.44-.06.66.18.67.66-.39.06-.62.41-.92.33ZM59.59,19.43c-.54.1-.65-.33-.77-.76.42-.33.89.08.94.55-.1.03-.14.12-.17.21ZM55.68,22.13c0,.31-.33.36-.21.77.11.26.38.3.38.7-.21.28-.55-.08-.66.08.27.36-.03.62.05,1.03-.34.14-.76-.17-.95-.48.03-.2.27-.23.4-.34-.08-.41,0-.73-.29-1.15.19-.31.43.29.53.09-.02-.17-.04-.34-.06-.51.28-.2.6-.53.27-.85.66-.02,1.1.23,1.22.89-.36.1-.47-.13-.69-.21ZM55.17,17.82c-.05-.32.09-.52.17-.76.21.31.76.25.73.81-.27.22-.71.06-.9-.05ZM54.77,15.72c.46.12.84.33.99.85-.37.4-1.11-.36-.99-.85ZM54.42,19.17c.06-.37-.31-.68-.14-.88,1.12-.25,1.18,1.13.14.88ZM54.45,17.63c-.21,0-.17.16-.42.12-.3-.12-.36-.5-.46-.85.43-.1.66.01.88.13.02.21.11.48,0,.6ZM53.52,16.69c-.48-.46-.39-1.3.34-1.52.58.48,0,1.2-.34,1.52ZM53.59,22.67c.39-.15.19-.78.47-1.02-.19-.29-.58-.33-.68-.73.51-.19,1.04.29,1.27.74-.21,1.02-1.64,1.76-2.17.48,0-.31.41-.41.13-.76.51-.12.8.05.81.57-.06.18-.53.03-.57.22.21.21.42.42.73.51ZM51.9,17.19c-.54.11-.71-.36-.9-.79.35-.25,1.12.15.9.79ZM51.01,18.39c-.08.11-.31.11-.5.13.03.38-.08.65-.35.78-.17.04-.11-.2-.24-.19-.01-.48.23-.53.02-1.04.24-.21.53-.17.3-.63.52-.3.74.37.78.94ZM50.19,15.76c-.72-.61.56-1.46.69-.45-.08.28-.27.46-.69.45ZM49.98,17.18c-.05.2-.45.13-.56.29.1.28.11.42,0,.67-.12.01-.24.03-.37.04-.38-.46-.35-1.49.42-1.46-.46-.51-.89-1.06-1.24-1.7,1-.15,1.25,1.38,1.74,2.16ZM48.2,17.17c-.22.08-.27-.04-.45-.02.04.17.02.28-.03.37-.12.01-.24.03-.37.04-.27-.22-.22-.73-.04-.96.29-.09.43.02.67,0,.06-.63.76.22.22.57ZM47.1,16.04c-.46-.13-.39-.83.06-.97.24-.04.32.08.51.1.02.42-.06.77-.57.87ZM47.64,18.4c-.09.04-.24.03-.23.16-.47.09-.49-.43-.69-.71.36-.38,1-.14.92.55ZM45.57,21.75c-.46-.07-.68-.34-.84-.67.24-.02.12-.24.46-.21.38.05.6.6.38.88ZM44.67,19.82c-1.11.05-.51-.87-.75-1.26.33-.22.86-.06.92.21-.25.4.15.73-.17,1.05ZM44.04,17.73c.08-.58-.41-.43-.4-.91.48-.02.79.17.95.55-.06.22-.31.28-.55.36ZM43.88,22.47c-.21-.22-.61-.29-.69-.63.3-.74,1.4.3.69.63ZM42.58,19.76c.44.05.12-.26.42-.42.08.41.56.33.5.9-.38.18-.92.05-.92-.49ZM43.21,18.74c-.98.06-.6-.53-.86-.95,1.02-.3,1.01.59.86.95ZM43.08,23.94c-.05.02-.14.02-.14.09-.5.11-.7-.18-.75-.67.35-.47,1.19-.07.88.58ZM42.77,25.45c0,.4-.09.73-.57.8-.28-.02-.31-.32-.33-.63.19-.15.71-.6.9-.17ZM42,23.05c-.79.24-1.09-.45-.78-.83.59-.08.89.44.78.83ZM40.84,20.11c0-.13-.12-.36.11-.31.38-.07.33.75.18.87-.78.16-.77-.7-1.42-.72.01.25-.18.34-.4.42-.22.03-.3-.12-.46-.17-.26-.86.71-1.93.95-.71.37.17.76.33,1.04.62ZM39.71,25.15c-.37.31-.99.12-.93-.61.41-.37.88.04.93.61ZM34.99,30.1c1.77-.97.51,2.01,0,0h0ZM34.32,32.52c-.06-.57.05-1.16.66-1.41.5.5-.04,1.26-.66,1.41ZM41.65,88.02c.17-.02.33-.03.5-.05.24.21.44.91-.23.92-.58,0-.52-.67-.27-.87ZM42.64,88.65c-.13.43-.08.97-.79,1.05-.27-.46.22-.9.79-1.05ZM42.01,96.72c.45-.21.88.27.9.81-.61.11-1.09-.32-.9-.81ZM43.22,99.33c-.44-.04-.81-.2-.93-.77.43-.34,1.03.24.93.77ZM42.88,96.61c.06-.36.07-.36-.02-.81.08-.11.33-.14.44-.05-.04-.17-.02-.28.03-.37.65-.14,1.04.61.8,1.09-.26.08-.4,0-.53-.08.02.33-.52.45-.71.23ZM44.04,97.45c.24-.03.48-.05.72-.08.17.4.35.8-.31.92-.52-.12-.46-.43-.41-.85ZM45.72,87.46c-.21-.27-.33-.65-.36-1.14.56-.31,1.13.35.93,1-.17.06-.32.14-.58.14ZM46.17,69.41c.35-.19.48.33.61.15-.03-.42.28-.57.5-.8.16.27.48.59.34,1-.3.1-.49.05-.62.37.28.38-.2.72-.41.94-.65-.09-.52-1.09-.42-1.65ZM46.9,71.84c0-.17-.3-.45-.15-.65.65-.35,1.02.4.79,1.02.23-.26.2-.73.64-.82-.1-.2-.25-.35-.23-.71.16-.14.32-.28.63-.3.29.08.38.41.65.52.14-.09.08-.34.33-.34.28.12.46.37.47.83-.4.35-.91.73-1.49,1.14-.27.19-1.28,1.14-1.49,1.14-1.15-.03-.16-1.5-.14-1.83ZM49.62,81c-.25.24-.38-.15-.58.07.14.31.08.45-.07.67-2.62.17.53-3.39.65-.74ZM51.22,81.4c-.89,0-.88-1.13-1.57-1.37.03-.13-.14-.42.02-.45.43.64,1.75.92,1.55,1.82ZM57.04,57.38c1.06-.59,1.68.09,2.56.36-.08-.26,0-.39.09-.53.69-.03,1.26.09,1.42.72.01.3-.57.47-.2.84.41-.05.37-.46.75-.53,1.69.65,3.88.67,5.37,1.59-.21.66.46.63.51,1.2-.18.28-.48.46-.73.68-.26-.21-.25-.69.05-.82-.22-.17-.32-.5-.46-.76-.16.14-.28.31-.47.43.2.07.18.31.13.5-.68.48-1.61-.2-2.17.48-.25-.1-.41-.32-.52-.61.13-.36.59-.46,1.04-.57-.33-.09-.18-.78-.48-.91-.18.28-.54.41-1.06.42-.06.62-.54.9-.64,1.48-1.64-.03-.49-1.79.03-2.23-.22.03-.3-.12-.46-.17-.4.67-1.56.74-1.66-.25-.74.09-1.52-.48-2.04-.94-.34.34-1.13.27-1.08-.39ZM61.5,63.74c-.59-.38-.63-1.35-.82-1.9.36-.04.65,0,.97.03-.04.49.44,1.55-.15,1.87ZM71.68,24.01c.61,1.27,1.81,1.79,2.44,3.04-.75.51-1.93,1.41-2.3-.02.1-.34.41-.51.49-.87-.19-.21-.27-.56-.52-.68-.22.09-.52.33-.79.17-.11-.57.32-1.23.69-1.64ZM70.86,26.48c.1-.01.19-.02.29-.03.41.8,1.06,1.29,1.5,2.04-.46.38-1.23.82-1.98.75-.2-.52-.91-1.44-.14-1.76.3-.15.42.36.54.16.2-.52-.38-.7-.21-1.16ZM70.38,23.65c.09.2.21.35.22.66-.4.52-1.13.03-.89-.66.34,0,.33.19.67,0ZM69.78,22.38c.11.45-.59.92-.99.41-.09-.72.85-.96.99-.41ZM59.99,14.8c1.3-.86,2.13.9,2.98,1.42.18,0,.14-.15.36-.12,1.58,1.1,3.12,2.26,4.7,3.37.02.39.32.59.19.94-.15.19-.6.15-.78.31.45.07.56.58.91.78.01-.28.13-.47.3-.63.58-.06.78.35.98.77-.39.11-.81.36-1.43.47-.88-.84-1.74-1.72-2.92-2.17-.04-.92-.43-.98-.96-1.22-.54-.24-.81-.92-1.32-1.1-.15.25-.67.39-.94.19-.24-.31.01-.48.06-.75-.65-.38-2.14.31-2.18-.85-.04-.32.33-.31.3-.63-.19-.12-.21-.47-.24-.79ZM63.45,20.25c-1.54.25-.25-2.67.23-1.21.09.26-.23.7-.23,1.21ZM59.58,14.41c.27.33.36.91.29,1.22-.59.16-.65-.51-.69-.81-.6.12-.57.89-1.07.94-.36.04-1.38-1.02-1.35-1.4.07-.8,2.29-.6,2.82.04ZM36.43,17.89c.43-.17.91-.3,1.03-.71-.36,0-.6-.14-.59-.6.34-.56.98-.4,1.48-.62.34-.15.5-.48.81-.69.37-.25,1.03-.51,1.62-.71.85-.29,1.5-.65,2.35-.8.25-.25.56-.44.81-.69.7.02,1.26-.22,1.95-.38,1.78-.41,3.74-.02,5.35-.49,1.14-.33,2.38,0,3.18.59.16.47.4.84.85.94.41-.26.92-.02,1.2.15.21.58-.17.7-.24,1.07,1.06,1.5,2.85,2.1,3.97,3.53.88,1.11,1.75,1.96,2.59,3.1.06-.4.37-.59.73-.75.47.08.42.88.13,1.1.32,0,.35.34.57.45.38-.25.71.05.92.26-.08.47.15.86,0,1.19-1.67.94-1.08-2.45-2.35-1.05-.29-.14-.4-.51-.41-.99-1.67-2.24-3.52-4.25-5.59-5.93-.47-.38-.98-.68-1.26-1.26-.7-.21-1.03-.88-1.75-1.05-.08-.28-.03-.26-.13-.43-.29.03-.44-.11-.68-.14.1.2.11.3.06.51-.59.33-1-.16-1.5-.19.25.36.96.13,1.04.69-.02.29-.33.36-.53.51.08.29.42.24.44.61-.16.12-.14.38-.23.55.23.17.45.76.03.89-.05,0-.1.01-.15.02-.29-.11-.27-.61-.4-.91,0-.2.25-.2.33-.34-.15-.17-.12-.57-.31-.7-1.01.64-1.81-.35-1.56-1.3-.23.02-.44.05-.49.21.04.48.43.52.49.98-.7.99-1.35-.51-2.26-.32-.2-.06-.21-.35-.42-.39.06.4-.1.62-.19.91-.56.27-1.27.13-1.58-.18-.12-.24-.09-.66-.51-.53-.07.52.54.79.45,1.28-.46.16-.35-.4-.65-.44-.24.73.84.71.61,1.41-.55-.23-.97-.62-1.12-1.35-.37.02-.53-.22-.78-.35-.41.71.57.9.56,1.64-.16.21-.44.32-.85.32-.38-.07-.33-.7-.88-.56.06.38-.07.71-.27.85-.73.49-1.18-.34-1.6-.4.08.33-.1.46-.14.68-.5.36-1.17-.1-1.61.19.04.46.37.54.35,1.07-.19.2-.39.29-.71.23-.17-.31-.23-.78-.55-.9-.28.68-1.42.69-1.77,1.32.14.45.02.5.04.96.69-.12,1.02.22,1.07.91-.19.3-.56.44-.93.26-.17-.32-.18-.45-.1-.8-.55-.14-.94-.84-.85-1.53.53-.11.85-.39.94-.85ZM31.1,23.49c.99-.35,1.44-1.11,2.09-1.73-.11-.9.7-1.29,1.4-1.35-.1-.24-.26-.4-.24-.79.6-1.02,1.24-.14,1.35.73-.23.26-.3.64-.56.88.14.27.58.16.53.68-.08.05-.16.1-.2.17-.69.15-.78-.46-1.13-.76-.2.26-.38.54-.65.74.05.37.12.76-.03.97-.4.14-.38-.25-.69-.21.05.33-.43.23-.3.63.39.23.59.71.87,1.08-.19.84-1.45.84-1.76.13-.26.15-.67.1-.89-.04-.18-.58.27-.67.24-1.14ZM29.84,26.6c-.15-.32-.49-.39-.54-.82.51-.39,1.36-.06,1.92,0,.05.27.13.27.06.51.43.02.87.47,1.22.3-.03-.3-.51-.03-.49-.39.12-.71,1.37-.42,1.82-.29.19.66-.51.66-.15,1.28-.38.28-.48.77-.43,1.38.18-.18.33-.31.58-.14.17.51-.45.68-.17,1.06.52-.26.58-.87,1.29-.97.26.73-.81.94-.84,1.66-.87.05-.71.9-1.27,1.19-.21-.47.28-.92.27-1.44-.32-.21-.62-.45-.9-.71-.2.13-.23.39-.54.43-.31-.25-.72-.38-.71-1.03.13-.23.48-.29.61-.52-.19-.15-.03-.36-.07-.58-.22.08-.16-.18-.38-.1-.11.5-.74.32-1.02.12-.23.44.29,1.11-.08,1.79-.39.09-.92.19-1.32.16.31-.75.52-1.58,1.08-2.13-.24-.31.01-.48.06-.75ZM29.25,31.12c-.38.21,0,.97-.68.97-.6-.48.3-1.85.68-.97ZM25.68,37.17c.8-.2.9.48,1.35.73.36-.1.56.01.76.13.28-.29.56-.58,1.19-.59.46.73,1.43,1.34,2.34.98.79.32,1.32,1.21,2.47.82.8.43-.17,1.23-.31,1.74-.78-.02-.76-1.05-1.47-1.16.05.3.1.61-.06.75-.51.11-.77-.08-1-.33-.1-.36.18-.42,0-.67-.31.17-.61.36-.98.49-.54-.13-.76-.66-1.28-.81.14.7-.88.92-1.24.81.07.23,0,.35-.01.52-.85.8-2.33.21-1.35-.8-.23-.76-.92-1.9-.39-2.62ZM25.87,41.89c-.17-.04-.25-.43-.14-.58.46.07.98.04,1.17.45-.29.19-.16.71-.57.81.29.23.21.66-.05.82.12.44.61.41.63.96-.08.03-.1.09-.13.16-1.07.18-1.69-1.04-.87-1.68-.26-.24-.41-.76-.04-.96ZM26.76,45.04c-.15.46-.19,1.47-.91,1.07.03-.58-.21-.65-.38-1.29.38-.43,1.06-.08,1.29.22ZM24.2,58.38c-.02-.81-.33-1.74.18-2.24.32-.09.61.29.76.13-.37-.63-1.32-1.36-.8-2.35.49-.49,1.14-.24,1.5.12.76-1.22,2.57.46,3.84-.09.2-.09.26-.37.47-.43.83-.2,1.41.51,1.93.66,1.06-.2,1.27.28,2.21-.11.35.14.45.6.83.72,1.07-.18,1.76-.1,2.74-.03.25,1.16.49,1.94.5,2.98,0,.73-.57,1.3-.59,1.92-.01.6.46,1.04.27,1.67-1.2.78-3.26.87-5.13,1.13-.23.21-.86.48-1.1.13-.05-.48.79-1.09.13-1.42-.02.89-1,1.77-1.68.87-.05-.48.02-.86.07-1.27-.7.14-1.85.42-2.06-.5-.05-.35.29-.39.29-.7-.52-.29-1.09-.52-1.45-1.01.07-.47.09-.91-.16-1.31-.35-.04-.6-.19-.98-.18-.01.42.46,1.3-.05,1.49-.42.13-.48-.62-.72-.43.04.46.14.83.35,1.07.54-.25.95.1,1.48-.03.08.62.89.6.88,1.16-.01.7-1.23.64-1.62.12-.38.28-.86.17-1.13.43.33.45,1.29.1,1.43.79-.38.64-1.86.39-2.35.13-.02-1.05-.02-2.45-.03-3.4ZM28.83,63.09c-.12.15-.48.11-.72.16-.2-.14-.31-.4-.51-.53.07.5-.31.7-.59.66-.63-.09-.39-1.03,0-1.33.06-1.91,1.67.16,1.88.89-.05.02-.08.07-.06.15ZM28.74,77.92c.08-.42.55-.54.46-1.09-.29-.03-.81.16-1.15.28.11.16.3.24.29.56-.36.44.06,1.11-.27,1.51-.78-.18-1.51-.96-1.57-1.96-.01-.26.14-.56.12-.83-.04-.66-.53-1.27-.68-1.99-.22-1.06-.11-2.18-.06-3.03-.72-.43-.79-1.69-1.38-2.28,0-.05-.01-.1-.02-.15.08-.02.05-.14.05-.23.58-.46,1.35,0,1.68.39-.01-.3.05-.54.38-.56.43-.06.44.39.86.34.31-.12.42-.31.7-.38.53-.13.91.18,1.43.2,1.26.04,2.52-1.27,3.43-.41.04-.32.24-.52.43-.72,1.86.12,4.22-.84,5.23.42-.38,2.02.6,4.19,1.61,5.44.09.27-.05.36,0,.59.15.28.55.26.6.67-.17.59-.67.54-1.17.73-1.36.51-2.61,1.52-4.23,1.83-1.17.22-1.99.51-3.03.66-.17-.3-.24-.63-.11-.95.65-.17,1.25-.39,1.69-.72.01-.38-.14-.55-.37-.62-.19.14-.17.44-.54.43-.37-.07-.39-.57-.55-.9-.26.36-.76.13-1.14.36.19.65.69,1.25.44,1.87-.57-.03-1.01-1.41-1.9-1.03.09.27.37.32.38.7-.19.49-.61.8-.81,1.28-.28-.13-.7-.07-.79-.43ZM31.82,89.55c.59.05.81.97.71,1.62-.46,0-.55-.48-.63-.96-.8-.5-.95-1.81-1.56-2.56-.14.18-.4.09-.52-.01.06-.61.29-.77-.02-1.41.03-.15.41-.03.42-.2-.29-.39-.6-.75-.68-1.4.09-.01.09-.11.21-.1.2.75.77,1.04,1.02,1.73-.28.2-.18.38-.21.69.3.1.69.07.98.18.06.49.17.65.05,1.03.23-.06.22.17.39.18.07-.21.03-.51.22-.62,1.14.18.47,1.72-.44,1.31.13.22.05.24.06.51ZM33.16,92.66c-.59-.09-.27-.67-.48-.91,1.18-.25,1.1.69.48.91ZM34.45,93.98c-.56-.03-.71-.42-.8-.87.62-.03,1.21.52.8.87ZM35.26,93c-.26.21-.55.18-.81.02-.38-1.22,1.11-.85.81-.02ZM34.83,85.61c.41-.57,1.18.09.84.66-.57.1-.83-.14-.84-.66ZM36.22,87.61c-.78.1-.85-.36-.88-.85.77-.13,1.08.48.88.85ZM35.49,89.92c.39-.63,1.22.09.82.64-.47,0-.77-.19-.82-.64ZM36.12,92.31c-.49-.3-.07-.9.12-1.2.63.13.86,1.16-.12,1.2ZM36.52,89.22c-1.31,0,.29-2,.39-.49-.23.21-.38.08-.39.49ZM37.31,85.94c.42.11.88.89.43,1.14-.24-.26-1.25-.81-.43-1.14ZM37.08,100.19c.3-.1.36.1.6.08-.07-.16-.2-.42-.07-.58.42,0,.59.32.68.73-.1.27-.36.02-.49.21.17.15.14.55,0,.67-.59.06-.92-.66-.72-1.1ZM39.01,102.11c-.31.12-.38-.08-.6-.08.06.31-.04.5-.22.62-.82-.23-.22-1.25.27-.85-.03-.18-.05-.35.02-.45.52-.17.63.4.53.75ZM39.23,100.24c.17-.01.26-.07.35-.12.23.21.79.51.5.88-.53-.04-.83-.28-.85-.76ZM40.57,102.74c-.43-.04-.67-.27-.75-.68.38-.59,1.31.25.75.68ZM41.06,99.42c.01-.06.06-.09.16-.09.26.59.79,1.29.84,1.83-.81-.12-.68-1.29-1-1.74ZM42.52,102.45c-.4-.1-.82-.79-.2-.95.33.22,1.07.76.2.95ZM43.35,99.53c.33.18.91.53.57.91-.87.22-1.02-.74-.57-.91ZM43.99,102.08c-.47-.06-.34-.6-.56-.86.73-.2,1.37.74.56.86ZM44.29,98.82c.57-.06.83.2.84.72-.13.13-.42.16-.72.18-.2-.14-.28-.72-.12-.9ZM45.76,100.83c-.82.15-.8-.37-.85-.83.19-.02.38-.04.57-.05.06.39.57.48.28.88ZM46.43,98.44c-.19.02-.38.04-.57.05-.24-.14-.32-.7-.13-.87.19-.02.38-.04.57-.06.05.3.43.6.13.88ZM46.31,93.69c.52-.83,1.17-.34,1.71.09-.01-.72.67-.89.54-1.69.29-.08.51-.22.7-.38.28.42.78.58.82,1.31-.21.31-.48.22-.93.26-.39.29-.47.82-.91,1.07-.28-.01-.48-.12-.76-.13-.28.11-.35.39-.69.45-.34-.1-.46-.48-.49-.98ZM47.27,98.33c-.89-1.79,2.04-.48,0,0h0ZM46.89,95.47c.74-.15,1.06.48.9.85-.62,0-.86-.33-.9-.85ZM46.82,99.21c.22-.02.22-.14.5-.13.29.14.39.71.16.89-.32.05-.4-.07-.7-.03-.03-.26-.2-.58.04-.73ZM47.2,102.25c-.33.04-.41-.26-.47-.59.15-.48.66-.33.91,0-.43-.04-.29.4-.44.6ZM47.65,99.39c.64-.3,1.2.4.8.81-.51-.06-.7-.39-.8-.81ZM48.89,101.87c-.23.02-.45.04-.67.06.06-.28-.34-.77.02-.91.28.22,1.08.45.65.85ZM48.92,98.79c.41-.22,1.07.38.92.82-.55.02-.69-.46-.92-.82ZM49.33,99.77c.33.18.73-.12.91,0-.02.9-.84,1.45-.91,0ZM49.95,97.48c.7-.06,1.01.54.94.94-.78.13-.94-.6-.94-.94ZM50.6,100.3c-.33-.24.06-.44-.26-.74.87-.65,1.42.77.26.74ZM51.05,96.83c.05-.02.14-.02.14-.09.25-.06.25.19.4.25.17-.68,1.04-.28.79.42-.29.05-.26-.29-.55-.23-.1.16-.16.36-.39.42-.22-.14-.4-.33-.39-.77ZM52.47,98.81c-.33.14-.34-.12-.47-.24-.05.18-.09.37-.4.34-.22-.18-.16-.51-.01-.74.26-.11.23.16.46.09-.06-.22.02-.33.26-.33.13.18.32.61.18.87ZM52.35,84.01c-.01.14.01.32-.18.32-.37,0-.69-.43-.54-.82.45-.13.54.21.72.43-.08-.32-.23-.55-.45-.69-.17.26-.48,0-.6-.08,0-.43.06-.54.04-.89,1.05-.21,1.95.04,2.33.91-.08.03-.1.09-.13.16-.51.1-.73-.56-1.15-.31.2.26.54.33.61.74-.14.12-.41.37-.64.22ZM57.03,94.79c-.12.17-.11.44-.3.55-1.21-.2-1.1-2.08-1.95-2.73-.21-1.33-1.19-1.69-1.59-2.77.27-.08.35-.09.59,0-.04-.86.91-1.25,1.71-1.24.46-1.27,1.88-1.79,2.63-2.83.92-.29,1.55,1.01,1.08,1.65-.22,0-.15-.37-.34-.4-.51.53-1.73.49-1.84,1.33.09.17.32.16.28.48-.08.03-.1.09-.13.16-.52.12-.54-.38-.87-.49-.27.47.19,1.24-.49,1.47-.17,0-.19-.21-.33-.26-.17.22-.46.35-.6.59.32,1.51.13,2.57,1.14,3.35.29.03.47.03.65-.15.15.09.29.19.41.32.09-.19-.05-.57.06-.75,1.04.08,1.04,1.93-.09,1.71ZM59.6,88.93c-.4.12-.44-.23-.7-.29-.08.18-.07.43-.15.61-.5.09-.76-.5-.54-.82.56.04.7-.25.99-.41.15.25.59.5.4.92ZM57.06,90.05c.26-.35.86-.01,1,.34-.44,0-.36.43-.99.43-.06-.41.18-.41-.02-.77ZM55.8,92.27c1.1-.27,1.19.91.13.87.02-.46-.28-.56-.13-.87ZM55.55,91.05c.4-.32,1.14.15.88.77-.45-.03-.79-.22-.88-.77ZM59.7,92.32c-.31.15-.47.42-.99.41-.02.23-.06.44-.31.48-.58-.2-1-1-1.08-1.58.39-.22.64.26.87.49.1-.23.4-.36.55-.36-.12-.27-.3-.46-.32-.85.35-.23.23-.43.35-.78-.27,0-.55-.32-.37-.62.48-.16.56.36.58.52.1.01.15.09.3.04-.05-.38-.14-.5-.02-.81.1-.01.19-.02.29-.03.26.51.49,1.06.58,1.78-.29.32-.63.61-.44,1.31ZM60.13,70.98c.29-.46.96-.21.92.46-.29.38-.97.27-.92-.46ZM61.32,71.17c.19.05.53.29.64.52.09-.17.15-.35.04-.68.48-.1.45-.03.93-.26.35.23.51.69.53,1.34-.1.05-.16.13-.19.24-.48-.21-1.27.35-1.43-.31-.1.05-.24.09-.48.1-.2-.17-.49-.85-.03-.96ZM61.19,76.74c.21-.19.58-.45.82-.39-.96-.94,1.05-1.42.57-.05-.18.02-.35.04-.53.06.14.06.23.23.2.62.46.14.69.58,1.26.59-.1-.15-.38-.6-.09-.73.28.33.83.63.67,1.25-.79.17-1.51-.35-2.15-.63-.4-.06-.75-.17-.75-.73ZM65.5,85.63c-.22.18-.53-.13-.83-.12.25.61-.11,1.03-.47,1.02-.58-.01-.72-1.4-.81-1.83.77-.37,1.85.48,2.11.93ZM65.95,91.28c-.54-.36-1.53-.37-1.29-1.48-.62-.67-.58-1.69-.69-2.73.59,0,1.09.13,1.33.58-.21.22-.47-.03-.67-.07.6.46.03,1.54.46,2.02.16-.29.08-.78.65-.74.45.35.06,1.32.27,1.67.19-.16.32-.37.61-.44.29.16.68.2.68.73-.27.36-1.03,1.69-1.35.46ZM68.47,87.5c-.42.16-.7.42-1.04.64.09.08.11.25.13.43-.25.31-.71.46-1.27.52-.28-.19-.5-.57-.41-.99.42-.39,1.13-.34,1.61-.78-.44-.66-2.06-.48-1.55-1.82.07,0,.15-.02.22-.03.69.78,1.7,1.15,2.96,1.2.69,1,2.06,1.14,3.16,1.63.22.48.21,1.24-.04,1.56-.73.26-.67-.56-1.28-.22-.37-.34-.67-.77-1.02-1.14-.08.22-.3.34-.54.43-.91-.07-.15-1.28-.91-1.45ZM68.72,89.62c-.41.03-.41.38-.43.72-.26.08-.4,0-.53-.09-.03-.64.06-.67-.15-1.24.46-.2.97.14,1.11.61ZM67.83,92.17c-.66,0-.41-.97,0-1.33.41-.08.67.05.78.35-.41.21-.3.97-.77.98ZM72.17,93.73c-.26.46-1.75,1-1.98.16.35-.32.6-.72,1.07-.94-.36-.44-.56-1.08-1.31-1.03.08.73-.58.86-1.05,1.16-.27-.07-.34-.57-.25-.86.48-.11.42-.64.87-.77-.05-.57-.55-.96-.4-1.51.68-.03.63.88,1.1,1.13,0-.22.11-.35.32-.41.39.07.29.75.56.97.06-.15.25-.2.33-.34-.08-.15-.22-.23-.21-.49.17-.3.5-.66.97-.56,1.04.23-.24,2.64-.03,3.49ZM72.58,82.2c-.97.8-1.54-.17-2.22-.63-1.12-.74-3.25-.79-4.12-1.66-.12-.18-.24-.36-.36-.55-.59-.34-1.47-.32-1.82-.97.41-.48,1.07-.16,1.49.05-.63-.43-.99-1.72.23-1.8.44.9.79,1.91,1.93,1.92-.27-.29-.61-.49-.5-1.05-.78-.19-.95-1.22-1.04-1.88.79-.3.74.9,1.26.67-.14-.35-.99-.93-.3-1.3.68.23.47.97.63,1.56.11.41.71.58.59,1.26.25.05.28.38.63.3.29-.75-.71-1.2-.96-1.81.09-.24.39-.31.29-.7-.27-.11-.49-.28-.65-.52-.07-.3.08-.42.07-.67-.21.5-1.15.41-1.34-.06-.14-.35.19-.34.15-.61-.77-.19-1.55-.38-1.97-1.03-.43-.01-.79-.12-.82-.64.56-.17,1.17-.32,1.68-.2.86.94,2.13.95,3.68,1.64.44.19.89.46,1.48.64.61.18,1.32.27,1.55.56.43.55.2,1.4.35,2.33.05.33.25.57.25.86,0,.56-.37,1.28-.39,1.75.48.61.41,1.89.23,2.57ZM73.27,58.64c-.14-.64.25-.86.36-1.3-.65-.4-1.15-1.19-.61-2-.81-.73-1.5-1.72-1.35-3.25.38-.45,1.1-.63,1.99-.68-.06-.27.1-.36.16-.54.85-.42,1.63-1.29,2.77-1.59.96-.25,1.74-.09,1.89-.89.3-.42,1.07-.38,1.9-.82.72-.38,1.16-1.18,1.7-1.24.65-.07,1.65.94,1.24,1.7,1.01.59.92,1.59-.05,2.08.19.35.51.53.95.55,0-.45.26-.94.72-.83,1.26,1-.69,2.53.32,3.3.04-.39.6-.68.99-.41.15.45-.09.59-.12.9.55.46,2.62.96,1.66,2.1-.43.19-.33-.31-.63-.3-1.02.41-1.77-.28-2.61-.14-.33.06-.48.33-.76.46-.3.14-.65.1-.93.26-1.1.6-2.49,1.43-4.26,1.54-.9,1.16-3.94,2.06-5.35,1.08ZM75.14,64.42c.67-.28,1.34-.75,2.24-1.08,1.49-.56,3.38-.49,4.92-.95,1.38-.42,2.92-1.75,4.21-1.39.43.12.62.79.98.77.27-.63.2-1.52.73-1.94.66-.07.4.68.66,1.18.26.49.56.47.62.82.05.3-.22.66-.18.98.08.69.79,1.26.84,2.12.02.38-.21.83-.15,1.2.11.74,1.15,1.42.56,2.23-.69.26-1.37-.06-2.28.12-.65.13-1.3.55-2.07.69-.67.13-1.41.22-2.12.25-.61.02-1.3-.16-1.85,0-.55.15-.94.77-1.58,1-1.4.51-4.4.45-4.81-.54-.21-.51.18-1.23-.02-2.07-.1-.44-.42-.8-.43-1.13-.01-.4.25-.55.26-.92-.18-.44-.57-.62-.53-1.34ZM87.76,99.07c-.49-.32-.82-.75-1.68-.39-.32-.26-.61-.57-.66-1.18.19-.5.97-.37,1.32-.16.03.85,1.8.92,1.02,1.73ZM85.68,95.24c.86-.22.9.6,1.43.79.07-.15.04-.36.33-.34.29.14.36.55.41.99-.32.46-1.09.14-1.36-.21-.43.36-1.57.36-1.53-.41.19-.32.53-.51.72-.83ZM84.98,96.81c.29,1.03-.75,1.37-1.04.57-.81.18-1.28-.63-1.96-.88-.08.31-.36.46-.34.85.11.13.21.3.41.32.15-.15.2-.37.55-.36.28.12.4.44.47.83.47.28.62.11,1.26,0,.22.16.33.47.46.76.5-.8,1.46-.08,1.47.49,0,.18-.26.41-.38.56-.73.91-1.11.18-1.97-.36-2.22-1.4-6.44-1.63-8.11-3.41.28-.29.44-.67.78-.91.99-.02,1.04,1.15,2.25.84.16-.4.57-.61.61-1.11.46-.25,1.06-.1,1.16.38-.03.28-.25.42-.29.7.3.01.41.27.77.21.03-.24-.02-.54.06-.75.47-.12.63.15.66.59.96-.59,2.26.38,3.19.66ZM76.74,89.19c.79-.3,2.34.2,1.61,1.07-.32.1-.45-.05-.74.01.02.26-.06.44-.07.67-.33.16-.53.42-.98.49-.25-.74.34-1.36.18-2.24ZM78.16,91.76c-.12.93-1.55,1.88-1.74.28.29-.26,1.38-.72,1.74-.28ZM76.44,93.52c.33-.17.82-.03,1.06.17.11.67-.25,1.37-.74,1.27-.59-.12-.28-.98-.32-1.44ZM77.87,94.32c.54-.25,1.05.22,1.14.83-.08.03-.1.09-.13.16-.66.08-.83-.46-1.01-.99ZM82.27,92.02c.14.34.36,1.24-.31,1.44-.72-.3-.53-1.34.31-1.44ZM81.18,92.29c-.2.28-.64.38-1.05.5-.33-.14-.48-.51-.5-1.05.39-.62,1.35-.07,1.55.56ZM79.73,93.13c.4-.12.59.03.83.12.34-.57.85-.04.92.26.13.59-.58,1.18-1.03,1.31-.29-.48-.72-.77-.9-1.37,0-.15.18-.17.18-.32ZM79.45,92.65c-.22.5-.45,1.3-1.28,1.11-.27-.4.06-.7.02-1.11.47-.33.98-.83,1.26,0ZM88.08,82.96c-.56.04-1.1.34-1.65.42-2.26.34-4.47-.11-6.24-.74-.14.2-.45.26-.7.38-.95-.39-2.31-.27-2.94-1.06.29-1.4-.29-3.07.16-4.31-.19-.38-.38-.75-.38-1.36.8-.32,1.74-1,2.78-.92.61.05,1.04.67,1.63.62.39-.2.39-.71.78-.91,1.28-.19,2.41.27,3.48-.04.65-.19.95-.57,1.48-.62.51-.05.95.31,1.67.32.72,0,1.42-.33,2.17-.48.58.67.39,1.64.6,2.52.09.42.36.82.45,1.28.16.8.18,1.82.17,2.65-.01,1.08-.08,2.02.2,2.94-1.39.56-2.17-.79-3.64-.68Z"/>
          <path class="cls-2" d="M87.51,93.17c.24-.18.53-.33,1-.34-.1-.38-.24-.71-.61-.74-.31.22-.42.59-.39,1.08Z"/>
          <path class="cls-2" d="M70.61,38.73c.04-.24-.14-.21-.19-.35-.16.6-1.17.54-1.43,1.06.32.15.84.05,1.2.15-.05-.44.23-.61.42-.86Z"/>
          <path class="cls-2" d="M69.51,40.05c.2.25.35.56.48.91.21-.03.09-.33.33-.34,0-.24-.16-.24-.13-.5-.3.07-.35-.18-.67-.07Z"/>
        </g>
        <path class="cls-1" d="M56.39,110.29c29.72,0,53.89-24.18,53.89-53.89S86.11,2.5,56.39,2.5,2.5,26.68,2.5,56.39s24.18,53.89,53.89,53.89h0Z"/>
      </g>
      <path id="Opportunity_Outdoors" data-name="Opportunity Outdoors" class="cls-2" d="M131.25,76.68h18.03l6.62-8.29V21.56l-6.62-8.38h-18.03l-6.62,8.38v46.84l6.62,8.29h0ZM142.66,62.59h-4.86V27.27h4.86v35.32h0ZM173.22,76.68v-19.99h11.41l6.9-8.38v-26.92l-6.62-8.21h-24.93v63.51h13.24ZM178.15,42.6h-4.93v-15.33h4.93v15.33h0ZM208.36,76.68v-19.99h11.41l6.9-8.38v-26.92l-6.62-8.21h-24.93v63.51h13.24ZM213.29,42.6h-4.93v-15.33h4.93v15.33h0ZM236.88,76.68h18.03l6.62-8.29V21.56l-6.62-8.38h-18.03l-6.62,8.38v46.84l6.62,8.29h0ZM248.29,62.59h-4.86V27.27h4.86v35.32h0ZM278.85,76.68v-25.54h5.21v25.54h13.17v-25.81l-5.35-6.61,5.35-6.98v-15.72l-6.67-8.39h-24.94v63.51h13.24ZM284.06,37.57h-5.21v-11.1h5.21v11.1h0ZM303.85,28.68v48h13.17V28.68h7.89v-15.5h-28.87v15.5h7.82ZM333.08,76.68h18.17l6.62-8.47V13.18h-13.17v49.41h-5.07V13.18h-13.17v55.04l6.62,8.47h0ZM373.85,76.68v-26.95l-.63-7.13-.35-4.14-.35-3.17.77,3.61.77,3.52,1.55,6.87,8.45,27.39h14.86V13.18h-11.69v27.04l.63,6.78.28,3.17.28,3.17-.99-4.05-.42-2.03-1.48-6.61-8.45-27.48h-15.14v63.51h11.9ZM416.24,76.68V13.18h-13.24v63.51h13.24ZM425.61,28.68v48h13.17V28.68h7.89v-15.5h-28.87v15.5h7.82ZM455.82,54.9v21.79h13.1v-21.79l11.2-41.72h-14.23l-2.54,16.47-.07.53-.42,4.76-.28,2.64-.21,2.73v-2.11l-.28-3.26-.57-5.28-2.56-16.47h-14.34l11.2,41.72h0ZM507.64,76.68h18.03l6.62-8.29V21.56l-6.62-8.38h-18.03l-6.62,8.38v46.84l6.62,8.29h0ZM519.05,62.59h-4.86V27.27h4.86v35.32h0ZM543,76.68h18.17l6.62-8.47V13.18h-13.17v49.41h-5.07V13.18h-13.17v55.04l6.62,8.47h0ZM577.15,28.68v48h13.17V28.68h7.89v-15.5h-28.87v15.5h7.82ZM624.4,76.68l6.9-8.47V21.47l-6.55-8.29h-25v63.51h24.65ZM618.06,62.59h-5V27.09h5v35.5h0ZM642,76.68h18.03l6.62-8.29V21.56l-6.62-8.38h-18.03l-6.62,8.38v46.84l6.62,8.29h0ZM653.41,62.59h-4.86V27.27h4.86v35.32h0ZM677.36,76.68h18.03l6.62-8.29V21.56l-6.62-8.38h-18.03l-6.62,8.38v46.84l6.62,8.29h0ZM688.76,62.59h-4.86V27.27h4.86v35.32h0ZM719.33,76.68v-25.54h5.21v25.54h13.17v-25.81l-5.35-6.61,5.35-6.98v-15.72l-6.67-8.39h-24.94v63.51h13.24ZM724.54,37.57h-5.21v-11.1h5.21v11.1h0ZM748.71,76.68h18.07l6.63-8.38v-22.85l-18.24-12.71v-6h4.93v7.58l13.31-2.55v-10.57l-6.55-8.02h-18.45l-6.55,8.47v20.38l18.24,12.71v8.03h-4.93v-10.13l-13.31,2.55v12.86l6.85,8.63h0Z"/>
      <g>
        <path class="cls-2" d="M134.89,92.39h-1.66c-.06-.36-.18-.67-.36-.94-.17-.27-.39-.5-.64-.69-.25-.19-.53-.33-.84-.43s-.64-.14-.99-.14c-.63,0-1.19.16-1.69.47-.5.32-.89.78-1.17,1.39-.29.61-.43,1.36-.43,2.24s.14,1.64.43,2.25c.29.61.68,1.07,1.17,1.39s1.06.47,1.68.47c.34,0,.67-.05.98-.14.31-.09.59-.23.84-.42.25-.18.47-.41.64-.68.18-.27.3-.58.36-.92h1.66c-.09.54-.26,1.03-.51,1.48s-.58.84-.97,1.16-.85.58-1.36.75-1.06.27-1.66.27c-.94,0-1.79-.22-2.52-.67s-1.32-1.09-1.74-1.93c-.42-.84-.64-1.84-.64-3s.21-2.17.64-3c.43-.84,1.01-1.48,1.75-1.93.74-.45,1.58-.67,2.52-.67.58,0,1.12.08,1.62.25.5.17.95.41,1.36.72.4.32.73.71,1,1.16s.44.98.53,1.56Z"/>
        <path class="cls-2" d="M155.34,94.3c0,1.16-.21,2.17-.64,3-.43.84-1.01,1.48-1.75,1.93s-1.58.67-2.52.67-1.79-.22-2.53-.67c-.74-.45-1.32-1.09-1.75-1.93-.43-.84-.64-1.84-.64-3s.21-2.17.64-3c.43-.84,1.01-1.48,1.75-1.93.74-.45,1.58-.67,2.53-.67s1.78.22,2.52.67,1.32,1.09,1.75,1.93c.43.84.64,1.84.64,3ZM153.71,94.3c0-.89-.14-1.64-.43-2.25-.29-.61-.68-1.07-1.17-1.38-.5-.31-1.06-.47-1.68-.47s-1.19.16-1.68.47-.88.78-1.17,1.38c-.29.61-.43,1.36-.43,2.25s.14,1.64.43,2.25c.29.61.68,1.07,1.17,1.38s1.05.47,1.68.47,1.19-.16,1.68-.47c.5-.31.89-.78,1.17-1.38.29-.61.43-1.36.43-2.25Z"/>
        <path class="cls-2" d="M175.19,88.84v10.91h-1.51l-5.54-8h-.1v8h-1.65v-10.91h1.52l5.55,8.01h.1v-8.01h1.63Z"/>
        <path class="cls-2" d="M192.54,91.71c-.06-.5-.29-.9-.7-1.17-.41-.28-.93-.42-1.56-.42-.45,0-.83.07-1.16.21-.33.14-.58.33-.76.58-.18.24-.27.52-.27.83,0,.26.06.48.18.67s.28.34.48.47c.2.13.42.23.65.31.23.08.45.15.67.21l1.07.28c.35.08.7.2,1.07.35.37.15.7.34,1.02.58.31.24.57.53.76.88.19.35.29.77.29,1.26,0,.62-.16,1.17-.48,1.65s-.78.86-1.38,1.13c-.6.28-1.33.42-2.18.42s-1.52-.13-2.12-.39c-.6-.26-1.06-.63-1.4-1.11-.34-.48-.52-1.04-.56-1.7h1.65c.03.39.16.72.39.98.23.26.51.46.87.58.35.13.74.19,1.16.19.47,0,.88-.07,1.24-.22.36-.15.65-.35.86-.62.21-.26.31-.57.31-.93,0-.32-.09-.59-.27-.79-.18-.21-.43-.38-.74-.51s-.66-.25-1.05-.36l-1.29-.35c-.87-.24-1.56-.59-2.07-1.05-.51-.46-.76-1.07-.76-1.83,0-.63.17-1.18.51-1.65s.8-.83,1.39-1.09c.58-.26,1.24-.39,1.97-.39s1.39.13,1.96.39c.57.26,1.01.62,1.34,1.07.33.45.5.97.51,1.56h-1.59Z"/>
        <path class="cls-2" d="M205.24,99.75v-10.91h6.84v1.42h-5.19v3.32h4.84v1.41h-4.84v3.34h5.26v1.42h-6.9Z"/>
        <path class="cls-2" d="M223.29,99.75v-10.91h3.89c.85,0,1.55.15,2.11.44.56.29.98.69,1.25,1.21.28.51.42,1.11.42,1.78s-.14,1.25-.42,1.76c-.28.51-.7.9-1.26,1.18-.56.28-1.26.42-2.11.42h-2.95v-1.42h2.8c.53,0,.97-.08,1.3-.23.34-.15.58-.37.74-.67.16-.29.23-.64.23-1.05s-.08-.77-.24-1.07c-.16-.3-.41-.53-.74-.7-.34-.16-.77-.24-1.32-.24h-2.07v9.5h-1.65ZM228.67,94.83l2.7,4.92h-1.88l-2.64-4.92h1.82Z"/>
        <path class="cls-2" d="M242.64,88.84l3.04,8.88h.12l3.04-8.88h1.78l-3.93,10.91h-1.9l-3.93-10.91h1.78Z"/>
        <path class="cls-2" d="M261,99.75h-1.75l3.93-10.91h1.9l3.93,10.91h-1.75l-3.08-8.93h-.09l-3.09,8.93ZM261.29,95.48h5.67v1.39h-5.67v-1.39Z"/>
        <path class="cls-2" d="M277.74,90.26v-1.42h8.44v1.42h-3.4v9.49h-1.64v-9.49h-3.4Z"/>
        <path class="cls-2" d="M298.69,88.84v10.91h-1.65v-10.91h1.65Z"/>
        <path class="cls-2" d="M319.56,94.3c0,1.16-.21,2.17-.64,3-.43.84-1.01,1.48-1.75,1.93s-1.58.67-2.52.67-1.79-.22-2.53-.67c-.74-.45-1.32-1.09-1.75-1.93-.43-.84-.64-1.84-.64-3s.21-2.17.64-3c.43-.84,1.01-1.48,1.75-1.93.74-.45,1.58-.67,2.53-.67s1.78.22,2.52.67,1.32,1.09,1.75,1.93c.43.84.64,1.84.64,3ZM317.93,94.3c0-.89-.14-1.64-.43-2.25-.29-.61-.68-1.07-1.17-1.38-.5-.31-1.06-.47-1.68-.47s-1.19.16-1.68.47-.88.78-1.17,1.38c-.29.61-.43,1.36-.43,2.25s.14,1.64.43,2.25c.29.61.68,1.07,1.17,1.38s1.05.47,1.68.47,1.19-.16,1.68-.47c.5-.31.89-.78,1.17-1.38.29-.61.43-1.36.43-2.25Z"/>
        <path class="cls-2" d="M339.41,88.84v10.91h-1.51l-5.54-8h-.1v8h-1.65v-10.91h1.52l5.55,8.01h.1v-8.01h1.63Z"/>
        <path class="cls-2" d="M363.24,90.26v-1.42h8.44v1.42h-3.4v9.49h-1.64v-9.49h-3.4Z"/>
        <path class="cls-2" d="M382.54,99.75v-10.91h1.65v4.74h5.44v-4.74h1.65v10.91h-1.65v-4.76h-5.44v4.76h-1.65Z"/>
        <path class="cls-2" d="M402.68,99.75v-10.91h3.89c.84,0,1.55.15,2.11.44.56.29.98.69,1.25,1.21.28.51.42,1.11.42,1.78s-.14,1.25-.42,1.76c-.28.51-.7.9-1.26,1.18s-1.26.42-2.11.42h-2.95v-1.42h2.8c.53,0,.97-.08,1.3-.23.33-.15.58-.37.74-.67.16-.29.23-.64.23-1.05s-.08-.77-.24-1.07-.4-.53-.74-.7c-.34-.16-.78-.24-1.32-.24h-2.07v9.5h-1.65ZM408.06,94.83l2.7,4.92h-1.88l-2.64-4.92h1.82Z"/>
        <path class="cls-2" d="M430.83,94.3c0,1.16-.21,2.17-.64,3-.43.84-1.01,1.48-1.75,1.93-.74.45-1.58.67-2.52.67s-1.79-.22-2.53-.67c-.74-.45-1.32-1.09-1.75-1.93-.43-.84-.64-1.84-.64-3s.21-2.17.64-3c.43-.84,1.01-1.48,1.75-1.93.74-.45,1.58-.67,2.53-.67s1.78.22,2.52.67c.74.45,1.32,1.09,1.75,1.93.43.84.64,1.84.64,3ZM429.2,94.3c0-.89-.14-1.64-.43-2.25-.29-.61-.68-1.07-1.17-1.38-.5-.31-1.06-.47-1.68-.47s-1.19.16-1.68.47c-.49.31-.88.78-1.17,1.38-.29.61-.43,1.36-.43,2.25s.14,1.64.43,2.25c.29.61.68,1.07,1.17,1.38.49.31,1.05.47,1.68.47s1.18-.16,1.68-.47c.5-.31.89-.78,1.17-1.38.29-.61.43-1.36.43-2.25Z"/>
        <path class="cls-2" d="M448.89,88.84h1.65v7.17c0,.76-.18,1.44-.54,2.03s-.86,1.05-1.51,1.38c-.65.34-1.41.5-2.29.5s-1.63-.17-2.28-.5c-.65-.34-1.15-.8-1.51-1.38s-.54-1.26-.54-2.03v-7.17h1.65v7.04c0,.49.11.93.33,1.32.22.38.53.68.93.9.4.22.88.33,1.43.33s1.03-.11,1.44-.33c.4-.22.71-.52.93-.9.21-.38.32-.82.32-1.32v-7.04Z"/>
        <path class="cls-2" d="M469.32,92.29c-.1-.32-.24-.61-.41-.87-.17-.26-.38-.48-.62-.66-.24-.18-.51-.32-.81-.42s-.64-.14-1-.14c-.61,0-1.17.16-1.66.47-.49.32-.88.78-1.17,1.39s-.43,1.35-.43,2.23.14,1.63.43,2.24c.29.61.68,1.07,1.18,1.39.5.32,1.07.47,1.71.47.59,0,1.11-.12,1.55-.36.44-.24.79-.58,1.03-1.03.24-.44.37-.96.37-1.56l.43.08h-3.12v-1.36h4.29v1.24c0,.92-.19,1.71-.58,2.38-.39.67-.92,1.19-1.61,1.56-.68.37-1.47.55-2.35.55-.99,0-1.85-.23-2.6-.68-.74-.46-1.32-1.1-1.74-1.94-.42-.84-.62-1.83-.62-2.98,0-.87.12-1.65.36-2.34s.58-1.28,1.02-1.77c.44-.49.96-.86,1.55-1.11s1.25-.39,1.95-.39c.59,0,1.14.09,1.65.26s.96.42,1.36.74.73.7.99,1.14c.26.44.44.92.53,1.46h-1.69Z"/>
        <path class="cls-2" d="M482.17,99.75v-10.91h1.65v4.74h5.44v-4.74h1.65v10.91h-1.65v-4.76h-5.44v4.76h-1.65Z"/>
        <path class="cls-2" d="M515.28,88.84h2l3.47,8.48h.13l3.47-8.48h2v10.91h-1.57v-7.89h-.1l-3.22,7.88h-1.3l-3.22-7.88h-.1v7.9h-1.57v-10.91Z"/>
        <path class="cls-2" d="M537.74,99.75v-10.91h6.84v1.42h-5.19v3.32h4.84v1.41h-4.84v3.34h5.26v1.42h-6.9Z"/>
        <path class="cls-2" d="M564.59,88.84v10.91h-1.51l-5.55-8h-.1v8h-1.65v-10.91h1.52l5.55,8.01h.1v-8.01h1.63Z"/>
        <path class="cls-2" d="M575.45,90.26v-1.42h8.44v1.42h-3.4v9.49h-1.64v-9.49h-3.4Z"/>
        <path class="cls-2" d="M603.77,94.3c0,1.16-.21,2.17-.64,3-.43.84-1.01,1.48-1.75,1.93-.74.45-1.58.67-2.52.67s-1.79-.22-2.53-.67c-.74-.45-1.32-1.09-1.75-1.93-.43-.84-.64-1.84-.64-3s.21-2.17.64-3c.43-.84,1.01-1.48,1.75-1.93.74-.45,1.58-.67,2.53-.67s1.78.22,2.52.67c.74.45,1.32,1.09,1.75,1.93.43.84.64,1.84.64,3ZM602.14,94.3c0-.89-.14-1.64-.43-2.25-.29-.61-.68-1.07-1.17-1.38-.5-.31-1.06-.47-1.68-.47s-1.19.16-1.68.47c-.49.31-.88.78-1.17,1.38-.29.61-.43,1.36-.43,2.25s.14,1.64.43,2.25c.29.61.68,1.07,1.17,1.38.49.31,1.05.47,1.68.47s1.18-.16,1.68-.47c.5-.31.89-.78,1.17-1.38.29-.61.43-1.36.43-2.25Z"/>
        <path class="cls-2" d="M614.81,99.75v-10.91h3.89c.84,0,1.55.15,2.11.44.56.29.98.69,1.25,1.21.28.51.42,1.11.42,1.78s-.14,1.25-.42,1.76c-.28.51-.7.9-1.26,1.18s-1.26.42-2.11.42h-2.95v-1.42h2.8c.53,0,.97-.08,1.3-.23.33-.15.58-.37.74-.67.16-.29.23-.64.23-1.05s-.08-.77-.24-1.07-.4-.53-.74-.7c-.34-.16-.78-.24-1.32-.24h-2.07v9.5h-1.65ZM620.2,94.83l2.7,4.92h-1.88l-2.64-4.92h1.82Z"/>
        <path class="cls-2" d="M639.44,91.71c-.06-.5-.29-.9-.7-1.17-.41-.28-.93-.42-1.56-.42-.45,0-.83.07-1.16.21-.33.14-.58.33-.76.58-.18.24-.27.52-.27.83,0,.26.06.48.18.67.12.19.28.34.48.47.2.13.42.23.65.31.23.08.45.15.67.21l1.06.28c.35.08.71.2,1.07.35.37.15.71.34,1.02.58.31.24.57.53.76.88s.29.77.29,1.26c0,.62-.16,1.17-.48,1.65s-.78.86-1.38,1.13c-.6.28-1.33.42-2.18.42s-1.52-.13-2.12-.39c-.6-.26-1.06-.63-1.4-1.11-.34-.48-.52-1.04-.56-1.7h1.65c.03.39.16.72.39.98s.51.46.87.58.74.19,1.16.19c.46,0,.88-.07,1.24-.22.36-.15.65-.35.86-.62.21-.26.31-.57.31-.93,0-.32-.09-.59-.27-.79s-.43-.38-.74-.51-.66-.25-1.05-.36l-1.29-.35c-.87-.24-1.57-.59-2.08-1.05s-.76-1.07-.76-1.83c0-.63.17-1.18.51-1.65s.8-.83,1.38-1.09c.58-.26,1.24-.39,1.97-.39s1.39.13,1.96.39c.57.26,1.01.62,1.34,1.07.33.45.5.97.51,1.56h-1.59Z"/>
        <path class="cls-2" d="M652.14,99.75v-10.91h1.65v4.74h5.44v-4.74h1.65v10.91h-1.65v-4.76h-5.44v4.76h-1.65Z"/>
        <path class="cls-2" d="M673.92,88.84v10.91h-1.65v-10.91h1.65Z"/>
        <path class="cls-2" d="M685.32,99.75v-10.91h3.89c.85,0,1.55.15,2.11.46.56.31.97.73,1.25,1.26s.42,1.14.42,1.8-.14,1.27-.42,1.81c-.28.54-.7.96-1.26,1.27-.56.31-1.26.47-2.11.47h-2.67v-1.4h2.53c.54,0,.97-.09,1.3-.28s.58-.44.74-.76c.16-.32.23-.69.23-1.1s-.08-.78-.23-1.1-.4-.57-.74-.75c-.34-.18-.78-.27-1.32-.27h-2.07v9.5h-1.65Z"/>
      </g>
    </g>
  </g>
</svg>