<?xml version="1.0" encoding="UTF-8"?>
<svg id="Layer_2" data-name="Layer 2" xmlns="http://www.w3.org/2000/svg" viewBox="0 0 648.77 86.76">
  <g id="Full_Color_Centered" data-name="Full Color Centered">
    <path id="Opportunity_Outdoors" data-name="Opportunity Outdoors" d="M6.62,63.51h18.03l6.62-8.29V8.38L24.65,0H6.62L0,8.38v46.84l6.62,8.29h0ZM18.03,49.41h-4.86V14.09h4.86v35.32h0ZM48.59,63.51v-19.99h11.41l6.9-8.38V8.21L60.28,0h-24.93v63.51h13.24ZM53.52,29.42h-4.93v-15.33h4.93v15.33h0ZM83.73,63.51v-19.99h11.41l6.9-8.38V8.21l-6.62-8.21h-24.93v63.51h13.24ZM88.66,29.42h-4.93v-15.33h4.93v15.33h0ZM112.25,63.51h18.03l6.62-8.29V8.38l-6.62-8.38h-18.03l-6.62,8.38v46.84l6.62,8.29h0ZM123.66,49.41h-4.86V14.09h4.86v35.32h0ZM154.22,63.51v-25.54h5.21v25.54h13.17v-25.81l-5.35-6.61,5.35-6.98v-15.72l-6.67-8.39h-24.94v63.51h13.24ZM159.43,24.4h-5.21v-11.1h5.21v11.1h0ZM179.22,15.5v48h13.17V15.5h7.89V0h-28.87v15.5h7.82ZM208.44,63.51h18.17l6.62-8.47V0h-13.17v49.41h-5.07V0h-13.17v55.04l6.62,8.47h0ZM249.21,63.51v-26.95l-.63-7.13-.35-4.14-.35-3.17.77,3.61.77,3.52,1.55,6.87,8.45,27.39h14.86V0h-11.69v27.04l.63,6.78.28,3.17.28,3.17-.99-4.05-.42-2.03-1.48-6.61L252.45,0h-15.14v63.51h11.9ZM291.61,63.51V0h-13.24v63.51h13.24ZM300.97,15.5v48h13.17V15.5h7.89V0h-28.87v15.5h7.82ZM331.18,41.72v21.79h13.1v-21.79L355.48,0h-14.23l-2.54,16.47-.07.53-.42,4.76-.28,2.64-.21,2.73v-2.11l-.28-3.26-.57-5.28-2.56-16.47h-14.34l11.2,41.72h0ZM383.01,63.51h18.03l6.62-8.29V8.38l-6.62-8.38h-18.03l-6.62,8.38v46.84l6.62,8.29h0ZM394.42,49.41h-4.86V14.09h4.86v35.32h0ZM418.36,63.51h18.17l6.62-8.47V0h-13.17v49.41h-5.07V0h-13.17v55.04l6.62,8.47h0ZM452.51,15.5v48h13.17V15.5h7.89V0h-28.87v15.5h7.82ZM499.77,63.51l6.9-8.47V8.29l-6.55-8.29h-25v63.51h24.65ZM493.43,49.41h-5V13.92h5v35.5h0ZM517.37,63.51h18.03l6.62-8.29V8.38l-6.62-8.38h-18.03l-6.62,8.38v46.84l6.62,8.29h0ZM528.78,49.41h-4.86V14.09h4.86v35.32h0ZM552.72,63.51h18.03l6.62-8.29V8.38l-6.62-8.38h-18.03l-6.62,8.38v46.84l6.62,8.29h0ZM564.13,49.41h-4.86V14.09h4.86v35.32h0ZM594.69,63.51v-25.54h5.21v25.54h13.17v-25.81l-5.35-6.61,5.35-6.98v-15.72l-6.67-8.39h-24.94v63.51h13.24ZM599.9,24.4h-5.21v-11.1h5.21v11.1h0ZM624.07,63.51h18.07l6.63-8.38v-22.85l-18.24-12.71v-6h4.93v7.58l13.31-2.55v-10.57l-6.55-8.02h-18.45l-6.55,8.47v20.38l18.24,12.71v8.03h-4.93v-10.13l-13.31,2.55v12.86l6.85,8.63h0Z"/>
    <g>
      <path d="M50.11,79.21h-1.66c-.06-.36-.18-.67-.36-.94-.17-.27-.39-.5-.64-.69-.25-.19-.53-.33-.84-.43s-.64-.14-.99-.14c-.63,0-1.19.16-1.69.47-.5.32-.89.78-1.17,1.39-.29.61-.43,1.36-.43,2.24s.14,1.64.43,2.25c.29.61.68,1.07,1.17,1.39s1.06.47,1.68.47c.34,0,.67-.05.98-.14.31-.09.59-.23.84-.42.25-.18.47-.41.64-.68.18-.27.3-.58.36-.92h1.66c-.09.54-.26,1.03-.51,1.48s-.58.84-.97,1.16-.85.58-1.36.75-1.06.27-1.66.27c-.94,0-1.79-.22-2.52-.67s-1.32-1.09-1.74-1.93c-.42-.84-.64-1.84-.64-3s.21-2.17.64-3c.43-.84,1.01-1.48,1.75-1.93.74-.45,1.58-.67,2.52-.67.58,0,1.12.08,1.62.25.5.17.95.41,1.36.72.4.32.73.71,1,1.16s.44.98.53,1.56Z"/>
      <path d="M70.56,81.12c0,1.16-.21,2.17-.64,3-.43.84-1.01,1.48-1.75,1.93s-1.58.67-2.52.67-1.79-.22-2.53-.67c-.74-.45-1.32-1.09-1.75-1.93-.43-.84-.64-1.84-.64-3s.21-2.17.64-3c.43-.84,1.01-1.48,1.75-1.93.74-.45,1.58-.67,2.53-.67s1.78.22,2.52.67,1.32,1.09,1.75,1.93c.43.84.64,1.84.64,3ZM68.93,81.12c0-.89-.14-1.64-.43-2.25-.29-.61-.68-1.07-1.17-1.38-.5-.31-1.06-.47-1.68-.47s-1.19.16-1.68.47-.88.78-1.17,1.38c-.29.61-.43,1.36-.43,2.25s.14,1.64.43,2.25c.29.61.68,1.07,1.17,1.38s1.05.47,1.68.47,1.19-.16,1.68-.47c.5-.31.89-.78,1.17-1.38.29-.61.43-1.36.43-2.25Z"/>
      <path d="M90.41,75.67v10.91h-1.51l-5.54-8h-.1v8h-1.65v-10.91h1.52l5.55,8.01h.1v-8.01h1.63Z"/>
      <path d="M107.76,78.53c-.06-.5-.29-.9-.7-1.17-.41-.28-.93-.42-1.56-.42-.45,0-.83.07-1.16.21-.33.14-.58.33-.76.58-.18.24-.27.52-.27.83,0,.26.06.48.18.67s.28.34.48.47c.2.13.42.23.65.31.23.08.45.15.67.21l1.07.28c.35.08.7.2,1.07.35.37.15.7.34,1.02.58.31.24.57.53.76.88.19.35.29.77.29,1.26,0,.62-.16,1.17-.48,1.65s-.78.86-1.38,1.13c-.6.28-1.33.42-2.18.42s-1.52-.13-2.12-.39c-.6-.26-1.06-.63-1.4-1.11-.34-.48-.52-1.04-.56-1.7h1.65c.03.39.16.72.39.98.23.26.51.46.87.58.35.13.74.19,1.16.19.47,0,.88-.07,1.24-.22.36-.15.65-.35.86-.62.21-.26.31-.57.31-.93,0-.32-.09-.59-.27-.79-.18-.21-.43-.38-.74-.51s-.66-.25-1.05-.36l-1.29-.35c-.87-.24-1.56-.59-2.07-1.05-.51-.46-.76-1.07-.76-1.83,0-.63.17-1.18.51-1.65s.8-.83,1.39-1.09c.58-.26,1.24-.39,1.97-.39s1.39.13,1.96.39c.57.26,1.01.62,1.34,1.07.33.45.5.97.51,1.56h-1.59Z"/>
      <path d="M120.46,86.57v-10.91h6.84v1.42h-5.19v3.32h4.84v1.41h-4.84v3.34h5.26v1.42h-6.9Z"/>
      <path d="M138.5,86.57v-10.91h3.89c.85,0,1.55.15,2.11.44.56.29.98.69,1.25,1.21.28.51.42,1.11.42,1.78s-.14,1.25-.42,1.76c-.28.51-.7.9-1.26,1.18-.56.28-1.26.42-2.11.42h-2.95v-1.42h2.8c.53,0,.97-.08,1.3-.23.34-.15.58-.37.74-.67.16-.29.23-.64.23-1.05s-.08-.77-.24-1.07c-.16-.3-.41-.53-.74-.7-.34-.16-.77-.24-1.32-.24h-2.07v9.5h-1.65ZM143.89,81.65l2.7,4.92h-1.88l-2.64-4.92h1.82Z"/>
      <path d="M157.86,75.67l3.04,8.88h.12l3.04-8.88h1.78l-3.93,10.91h-1.9l-3.93-10.91h1.78Z"/>
      <path d="M176.22,86.57h-1.75l3.93-10.91h1.9l3.93,10.91h-1.75l-3.08-8.93h-.09l-3.09,8.93ZM176.51,82.3h5.67v1.39h-5.67v-1.39Z"/>
      <path d="M192.96,77.08v-1.42h8.44v1.42h-3.4v9.49h-1.64v-9.49h-3.4Z"/>
      <path d="M213.9,75.67v10.91h-1.65v-10.91h1.65Z"/>
      <path d="M234.78,81.12c0,1.16-.21,2.17-.64,3-.43.84-1.01,1.48-1.75,1.93s-1.58.67-2.52.67-1.79-.22-2.53-.67c-.74-.45-1.32-1.09-1.75-1.93-.43-.84-.64-1.84-.64-3s.21-2.17.64-3c.43-.84,1.01-1.48,1.75-1.93.74-.45,1.58-.67,2.53-.67s1.78.22,2.52.67,1.32,1.09,1.75,1.93c.43.84.64,1.84.64,3ZM233.15,81.12c0-.89-.14-1.64-.43-2.25-.29-.61-.68-1.07-1.17-1.38-.5-.31-1.06-.47-1.68-.47s-1.19.16-1.68.47-.88.78-1.17,1.38c-.29.61-.43,1.36-.43,2.25s.14,1.64.43,2.25c.29.61.68,1.07,1.17,1.38s1.05.47,1.68.47,1.19-.16,1.68-.47c.5-.31.89-.78,1.17-1.38.29-.61.43-1.36.43-2.25Z"/>
      <path d="M254.63,75.67v10.91h-1.51l-5.54-8h-.1v8h-1.65v-10.91h1.52l5.55,8.01h.1v-8.01h1.63Z"/>
      <path d="M278.46,77.08v-1.42h8.44v1.42h-3.4v9.49h-1.64v-9.49h-3.4Z"/>
      <path d="M297.76,86.57v-10.91h1.65v4.74h5.44v-4.74h1.65v10.91h-1.65v-4.76h-5.44v4.76h-1.65Z"/>
      <path d="M317.89,86.57v-10.91h3.89c.84,0,1.55.15,2.11.44.56.29.98.69,1.25,1.21.28.51.42,1.11.42,1.78s-.14,1.25-.42,1.76c-.28.51-.7.9-1.26,1.18s-1.26.42-2.11.42h-2.95v-1.42h2.8c.53,0,.97-.08,1.3-.23.33-.15.58-.37.74-.67.16-.29.23-.64.23-1.05s-.08-.77-.24-1.07-.4-.53-.74-.7c-.34-.16-.78-.24-1.32-.24h-2.07v9.5h-1.65ZM323.28,81.65l2.7,4.92h-1.88l-2.64-4.92h1.82Z"/>
      <path d="M346.04,81.12c0,1.16-.21,2.17-.64,3-.43.84-1.01,1.48-1.75,1.93-.74.45-1.58.67-2.52.67s-1.79-.22-2.53-.67c-.74-.45-1.32-1.09-1.75-1.93-.43-.84-.64-1.84-.64-3s.21-2.17.64-3c.43-.84,1.01-1.48,1.75-1.93.74-.45,1.58-.67,2.53-.67s1.78.22,2.52.67c.74.45,1.32,1.09,1.75,1.93.43.84.64,1.84.64,3ZM344.41,81.12c0-.89-.14-1.64-.43-2.25-.29-.61-.68-1.07-1.17-1.38-.5-.31-1.06-.47-1.68-.47s-1.19.16-1.68.47c-.49.31-.88.78-1.17,1.38-.29.61-.43,1.36-.43,2.25s.14,1.64.43,2.25c.29.61.68,1.07,1.17,1.38.49.31,1.05.47,1.68.47s1.18-.16,1.68-.47c.5-.31.89-.78,1.17-1.38.29-.61.43-1.36.43-2.25Z"/>
      <path d="M364.1,75.67h1.65v7.17c0,.76-.18,1.44-.54,2.03s-.86,1.05-1.51,1.38c-.65.34-1.41.5-2.29.5s-1.63-.17-2.28-.5c-.65-.34-1.15-.8-1.51-1.38s-.54-1.26-.54-2.03v-7.17h1.65v7.04c0,.49.11.93.33,1.32.22.38.53.68.93.9.4.22.88.33,1.43.33s1.03-.11,1.44-.33c.4-.22.71-.52.93-.9.21-.38.32-.82.32-1.32v-7.04Z"/>
      <path d="M384.53,79.11c-.1-.32-.24-.61-.41-.87-.17-.26-.38-.48-.62-.66-.24-.18-.51-.32-.81-.42s-.64-.14-1-.14c-.61,0-1.17.16-1.66.47-.49.32-.88.78-1.17,1.39s-.43,1.35-.43,2.23.14,1.63.43,2.24c.29.61.68,1.07,1.18,1.39.5.32,1.07.47,1.71.47.59,0,1.11-.12,1.55-.36.44-.24.79-.58,1.03-1.03.24-.44.37-.96.37-1.56l.43.08h-3.12v-1.36h4.29v1.24c0,.92-.19,1.71-.58,2.38-.39.67-.92,1.19-1.61,1.56-.68.37-1.47.55-2.35.55-.99,0-1.85-.23-2.6-.68-.74-.46-1.32-1.1-1.74-1.94-.42-.84-.62-1.83-.62-2.98,0-.87.12-1.65.36-2.34s.58-1.28,1.02-1.77c.44-.49.96-.86,1.55-1.11s1.25-.39,1.95-.39c.59,0,1.14.09,1.65.26s.96.42,1.36.74.73.7.99,1.14c.26.44.44.92.53,1.46h-1.69Z"/>
      <path d="M397.39,86.57v-10.91h1.65v4.74h5.44v-4.74h1.65v10.91h-1.65v-4.76h-5.44v4.76h-1.65Z"/>
      <path d="M430.49,75.67h2l3.47,8.48h.13l3.47-8.48h2v10.91h-1.57v-7.89h-.1l-3.22,7.88h-1.3l-3.22-7.88h-.1v7.9h-1.57v-10.91Z"/>
      <path d="M452.96,86.57v-10.91h6.84v1.42h-5.19v3.32h4.84v1.41h-4.84v3.34h5.26v1.42h-6.9Z"/>
      <path d="M479.81,75.67v10.91h-1.51l-5.55-8h-.1v8h-1.65v-10.91h1.52l5.55,8.01h.1v-8.01h1.63Z"/>
      <path d="M490.67,77.08v-1.42h8.44v1.42h-3.4v9.49h-1.64v-9.49h-3.4Z"/>
      <path d="M518.99,81.12c0,1.16-.21,2.17-.64,3-.43.84-1.01,1.48-1.75,1.93-.74.45-1.58.67-2.52.67s-1.79-.22-2.53-.67c-.74-.45-1.32-1.09-1.75-1.93-.43-.84-.64-1.84-.64-3s.21-2.17.64-3c.43-.84,1.01-1.48,1.75-1.93.74-.45,1.58-.67,2.53-.67s1.78.22,2.52.67c.74.45,1.32,1.09,1.75,1.93.43.84.64,1.84.64,3ZM517.36,81.12c0-.89-.14-1.64-.43-2.25-.29-.61-.68-1.07-1.17-1.38-.5-.31-1.06-.47-1.68-.47s-1.19.16-1.68.47c-.49.31-.88.78-1.17,1.38-.29.61-.43,1.36-.43,2.25s.14,1.64.43,2.25c.29.61.68,1.07,1.17,1.38.49.31,1.05.47,1.68.47s1.18-.16,1.68-.47c.5-.31.89-.78,1.17-1.38.29-.61.43-1.36.43-2.25Z"/>
      <path d="M530.03,86.57v-10.91h3.89c.84,0,1.55.15,2.11.44.56.29.98.69,1.25,1.21.28.51.42,1.11.42,1.78s-.14,1.25-.42,1.76c-.28.51-.7.9-1.26,1.18s-1.26.42-2.11.42h-2.95v-1.42h2.8c.53,0,.97-.08,1.3-.23.33-.15.58-.37.74-.67.16-.29.23-.64.23-1.05s-.08-.77-.24-1.07-.4-.53-.74-.7c-.34-.16-.78-.24-1.32-.24h-2.07v9.5h-1.65ZM535.42,81.65l2.7,4.92h-1.88l-2.64-4.92h1.82Z"/>
      <path d="M554.66,78.53c-.06-.5-.29-.9-.7-1.17-.41-.28-.93-.42-1.56-.42-.45,0-.83.07-1.16.21-.33.14-.58.33-.76.58-.18.24-.27.52-.27.83,0,.26.06.48.18.67.12.19.28.34.48.47.2.13.42.23.65.31.23.08.45.15.67.21l1.06.28c.35.08.71.2,1.07.35.37.15.71.34,1.02.58.31.24.57.53.76.88s.29.77.29,1.26c0,.62-.16,1.17-.48,1.65s-.78.86-1.38,1.13c-.6.28-1.33.42-2.18.42s-1.52-.13-2.12-.39c-.6-.26-1.06-.63-1.4-1.11-.34-.48-.52-1.04-.56-1.7h1.65c.03.39.16.72.39.98s.51.46.87.58.74.19,1.16.19c.46,0,.88-.07,1.24-.22.36-.15.65-.35.86-.62.21-.26.31-.57.31-.93,0-.32-.09-.59-.27-.79s-.43-.38-.74-.51-.66-.25-1.05-.36l-1.29-.35c-.87-.24-1.57-.59-2.08-1.05s-.76-1.07-.76-1.83c0-.63.17-1.18.51-1.65s.8-.83,1.38-1.09c.58-.26,1.24-.39,1.97-.39s1.39.13,1.96.39c.57.26,1.01.62,1.34,1.07.33.45.5.97.51,1.56h-1.59Z"/>
      <path d="M567.36,86.57v-10.91h1.65v4.74h5.44v-4.74h1.65v10.91h-1.65v-4.76h-5.44v4.76h-1.65Z"/>
      <path d="M589.14,75.67v10.91h-1.65v-10.91h1.65Z"/>
      <path d="M600.53,86.57v-10.91h3.89c.85,0,1.55.15,2.11.46.56.31.97.73,1.25,1.26s.42,1.14.42,1.8-.14,1.27-.42,1.81c-.28.54-.7.96-1.26,1.27-.56.31-1.26.47-2.11.47h-2.67v-1.4h2.53c.54,0,.97-.09,1.3-.28s.58-.44.74-.76c.16-.32.23-.69.23-1.1s-.08-.78-.23-1.1-.4-.57-.74-.75c-.34-.18-.78-.27-1.32-.27h-2.07v9.5h-1.65Z"/>
    </g>
  </g>
</svg>